<?xml version="1.0"?>
<svg xmlns="http://www.w3.org/2000/svg" version="1.2" baseProfile="tiny" width="800" height="250" viewBox="0 0 800 250" stroke-linecap="round" stroke-linejoin="round">
<g id="41703">
<path d="M 421.93 234.42 429.63 233.69 435.76 231.15 441.11 229.7 444.98 230.57 447.54 229.63 449.4 230.03 455.77 228.69 458.87 227.54 467.37 226.55 466.03 222.14 463.9 221.42 463.18 218.16 468.08 219.23 470.97 217.57 469.26 216.32 472.02 214.45 475.47 211.27 474.46 208.22 474.91 205.88 476.62 204.17 475.02 202.85 475.63 201.31 478.75 197.23 480.33 194.31 484.23 193.7 486.04 190.24 489.89 187.25 491.03 184.91 495.23 183.99 498.9 181.59 500.02 177.07 497.11 171.88 498.08 169.98 501.3 168.78 505.41 172.23 509.24 170.98 512.21 172.57 514.24 170.55 517.79 164.17 520.49 161.73 524.66 162.96 527.57 162.4 532.09 163.2 534.48 162.26 533.41 160.07 533.04 156.39 537.89 156.24 540.34 155.16 544.99 156.31 548.59 155.97 550.51 153.21 549.12 149.87 553.3 150.85 555.48 149.16 558.99 149.97 561.72 149.82 566.34 150.67 568.74 151.96 573.98 152.22 578.28 152.9 580.08 152.31 582.69 157.14 586.14 160.36 588.99 164.07 590.46 164.08 595.09 161.09 600.38 159.48 603.46 160.82 604.41 163.72 606.8 164.7 609.99 167.89 613.47 168.73 614.99 167.72 617.76 167.93 619.44 170.08 618.59 172.28 619.02 173.74 621.12 175.28 623.82 175.92 627.53 175.34 627.9 177.51 627.52 182.03 630.66 182.89 633.01 184.23 634.33 183.87 637.01 185.69 638.61 189.26 638.12 192.55 635.87 194.21 637.05 195.49 636.36 197.1 633.15 199.93 633.7 202.34 631.18 203.75 629.95 205.29 622.63 208.49 619.39 212.04 619.46 213.77 617.28 216.14 616.85 221.24 617.95 223.28 616.27 224.46 614.01 224.17 612.21 222.76 609.9 222.48 607.76 221.08 602.97 220.82 600.59 221.64 601.91 216.63 598.55 215.02 596.98 215.66 594.29 214.55 594.12 213.07 596.54 211.21 597.63 209.27 600.96 205.68 603.09 204.83 608.88 201.4 611.13 201.14 614.84 198.75 615.74 196.46 613.27 195.99 610.23 193.59 607.36 189.59 598.33 191.73 598.7 194.64 600.13 196.42 602.96 197.93 599.54 199.79 597.88 201.52 595.78 201.75 592.79 199.65 591.48 200.3 583.3 199.16 582.22 198.28 573.76 199.03 569.71 196.35 568.94 199.73 567.09 201.69 566.9 205.23 564.95 204.29 560.72 205.55 559.81 211.13 554.75 211.16 552.38 210.05 551.28 207.1 539.8 211.45 536.61 212.18 534.93 213.66 535.59 215.5 534.68 217.81 535.35 221.54 534.74 223.57 537.46 228.58 536.44 232.13 534.14 236.51 532 237.83 529.71 236.94 526.07 237.6 523.64 237.42 522.19 240.29 518.38 242.17 515.29 241.68 506.17 242.22 502.89 241.22 500.68 242.6 497.69 241.51 494.05 244.11 491.76 244.27 490.6 245.83 487.94 246.87 487.95 248.55 484.61 249.35 480.6 248.27 477.84 246.71 476.43 244.21 472.11 241.78 466.25 239.64 464.05 240 455.44 240.14 445.02 240.91 442.42 239.88 438.68 240.4 430.53 238.53 426.82 236.63 425.06 237.09 421.22 236.22 421.93 234.42 Z M 486.19 225.66 490.15 226.29 493.69 227.7 494.9 229.65 499.43 229.1 498.95 227.49 501.67 222.8 499.34 223.23 491.84 220.81 489.17 221.51 487.9 225.4 486.19 225.66 Z M 526.02 206.86 527 208.02 525.17 209.55 527.21 211.2 529.3 210.19 532.87 210.58 532.63 207.45 530.6 206.85 526.02 206.86 Z" fill-rule="evenodd" id="level=district;display_name=Сузак району"/>
<path d="M 526.02 206.86 530.6 206.85 532.63 207.45 532.87 210.58 529.3 210.19 527.21 211.2 525.17 209.55 527 208.02 526.02 206.86 Z" id="level=district;display_name=Көк-Жаңгак шаары"/>
<path d="M 389.3 185.17 389.69 180.95 391.46 177.72 393.33 176.21 396.95 171.61 401.87 167.97 401.93 166.14 403.84 164 403.86 168.33 403.13 169.46 397.6 173.49 396.39 175.4 394.19 176.59 391.2 179.87 390.56 183.26 389.3 185.17 Z" id="level=district;display_name=Майлуу-Суу шаары"/>
<path d="M 654.94 100.69 659.37 99.37 661.67 99.78 666.72 103.53 666.24 104.85 667.82 107.54 670.17 109.86 672.82 110.95 674.43 112.7 678.35 113.94 684.32 114.39 686.46 113.31 689.12 114.2 691.14 113.11 697.07 114.85 701.17 118.12 703.75 118.5 709.74 115.46 713.62 116.73 714.15 115.66 716.87 115.21 719.77 115.96 731.19 116.11 734.16 117.71 737.67 116.01 743.43 117.48 745.16 116.37 746.17 113.45 751.08 112.75 755.32 113.85 757.26 112.77 759.08 113 761.8 115.06 763.82 111.46 766.18 109.49 771.83 106.76 776.63 107.81 779.33 105.87 784.6 106.08 786.48 103.51 790.2 102.86 795.84 102.61 796.87 102.17 799 104.63 798.61 107.74 797.49 109.41 794.9 109.8 794.09 111.54 795.9 113.82 797.72 114.8 798.98 119.48 797.55 125.12 796.04 125.46 792.27 130.88 789.31 132.02 789.63 134.14 788.84 137.29 788.76 140.28 786.77 142.95 782.06 142.97 778.93 145.61 776.06 148.73 772.77 148.67 765.56 150.13 765.75 151.95 763.55 152.57 758.16 152.3 757.05 153.36 744.94 154.51 744.38 156.07 741.58 158.19 737.66 159.46 729.87 160.17 728.64 161.34 725.97 161.77 726.01 167.01 726.76 168.95 729.33 170.27 729.86 172.96 732.77 173.72 735.39 176.08 731.15 179.4 728.24 180.55 721.92 178.01 715.86 178.21 711.75 179.52 705.99 179.73 702.58 180.64 699.68 179.91 695.66 180.17 694.28 182.26 688.5 184.89 685.01 185.61 683.45 188.18 677.6 189.75 675.68 192.63 676.65 195.59 680.13 198.58 680.54 200.34 684.78 204.05 682.91 208.74 681.1 209.2 677.68 212.13 675.01 216.79 673.02 218.87 671.23 216.31 668.06 215.57 663.36 215.78 659.61 214.11 655.79 215.07 653.18 214.39 652.23 213.23 648.99 212.8 649.43 210.08 649.47 202.76 651.55 201.23 650.69 199.94 645.49 199.06 643.73 196.91 645.96 195.2 646.07 193.77 643.98 193.15 640.47 193.19 638.12 192.55 638.61 189.26 637.01 185.69 634.33 183.87 633.01 184.23 630.66 182.89 627.52 182.03 627.9 177.51 627.53 175.34 623.82 175.92 621.12 175.28 619.02 173.74 618.59 172.28 619.44 170.08 617.76 167.93 614.99 167.72 613.47 168.73 609.99 167.89 606.8 164.7 604.41 163.72 603.46 160.82 600.38 159.48 595.09 161.09 590.46 164.08 588.99 164.07 586.14 160.36 582.69 157.14 580.08 152.31 578.82 146.73 579.92 143.39 579.88 141.45 575.21 140.71 571.55 138.74 570.3 136.47 568.12 135.85 565.98 136.89 562.39 135.35 560.53 133.95 561.17 132 563.98 130.97 564.65 129.89 567.98 128.53 571.21 128.3 572.13 125.02 572.08 121.65 575.3 120.42 579.85 120.29 582.03 121.9 584.27 122.11 587.59 119.23 587.03 117.42 588.24 116.53 593.56 115.99 594.18 115.1 599.28 116.57 601.16 118.73 603.96 114.83 604.53 112.3 609.66 108.89 612.95 109.2 613.38 110.98 620.68 113.96 621.43 115.77 627.42 116.44 630.59 115.96 633.39 117.05 635.04 115.98 638.33 117.94 639.35 119.29 645.13 119.51 647.68 118.25 650.33 118.92 654.35 118.89 657.54 116.63 659.32 116.1 658.5 114.23 659.5 111.44 657.94 110.24 659.91 108.18 657.23 104.55 657.9 103.63 654.96 102.07 654.94 100.69 Z" id="level=district;display_name=Тогуз-торо району"/>
<path d="M 421.93 234.42 424.09 231.06 419.05 225.19 418.02 222.73 430.28 219.88 442.9 210.89 439.92 210.18 439.29 208.44 442.05 206.36 444.26 200.59 444.17 196.17 445.44 191.01 445.7 187.51 448.45 179.44 451.33 175.07 452.59 170.2 454.56 167.53 456.45 166.59 458.03 164.45 458.61 161.56 456.44 157.94 457.26 155.17 456.5 154.45 459.17 149.97 461.62 148.3 465.36 147.19 468.91 147.53 469.71 146.04 474.63 145.04 476.5 143.7 479.35 142.99 481 139.44 483.13 137.55 484.37 135.12 480.48 131.55 480.8 129.84 483.12 127.57 485.96 127.16 488.01 123.97 492.93 120.19 491.18 119.48 491.32 114.08 493.13 113.06 499.47 113.31 505.29 112.36 509.78 113.91 510.1 116.94 511.5 119.13 516.31 118.11 520.75 118.64 523.31 117.73 526.22 119.89 530.31 120.54 532.5 123.51 535.29 121.78 537.19 121.84 545.65 125.52 546.24 127.33 550.74 129.56 553.25 128.53 555.94 128.42 557.98 131.8 560.53 133.95 562.39 135.35 565.98 136.89 568.12 135.85 570.3 136.47 571.55 138.74 575.21 140.71 579.88 141.45 579.92 143.39 578.82 146.73 580.08 152.31 578.28 152.9 573.98 152.22 568.74 151.96 566.34 150.67 561.72 149.82 558.99 149.97 555.48 149.16 553.3 150.85 549.12 149.87 550.51 153.21 548.59 155.97 544.99 156.31 540.34 155.16 537.89 156.24 533.04 156.39 533.41 160.07 534.48 162.26 532.09 163.2 527.57 162.4 524.66 162.96 520.49 161.73 517.79 164.17 514.24 170.55 512.21 172.57 509.24 170.98 505.41 172.23 501.3 168.78 498.08 169.98 497.11 171.88 500.02 177.07 498.9 181.59 495.23 183.99 491.03 184.91 489.89 187.25 486.04 190.24 484.23 193.7 480.33 194.31 478.75 197.23 475.63 201.31 475.02 202.85 476.62 204.17 474.91 205.88 474.46 208.22 475.47 211.27 472.02 214.45 469.26 216.32 470.97 217.57 468.08 219.23 463.18 218.16 463.9 221.42 466.03 222.14 467.37 226.55 458.87 227.54 455.77 228.69 449.4 230.03 447.54 229.63 444.98 230.57 441.11 229.7 435.76 231.15 429.63 233.69 421.93 234.42 Z" id="level=district;display_name=Базар-Коргон району"/>
<path d="M 360.12 143.29 361.95 140.27 364.19 139.98 365.95 135.87 368.75 135.74 372.1 134.01 371.51 131.69 375.35 130.16 375.77 128.95 379.59 129.79 380.6 127.64 383.81 127.54 385.7 125.28 388.91 125.39 391.86 126.51 392.55 127.91 396.31 129.81 404.29 132.3 413.81 132.25 416.52 133.92 420.05 134.12 422.08 134.85 421.22 136.4 427.14 137.14 430.43 135.25 433.81 137.44 436.92 136.55 439.44 134.74 441.93 134.11 444.9 132.49 447.06 133.61 448.7 132.62 452.53 133.72 453.16 135.25 456.11 133.41 457.51 134.14 462.23 133.34 464.45 132.31 467.75 132.93 471.67 131.83 471.79 128.98 472.92 127.94 476.49 128.24 478.09 127.21 483.12 127.57 480.8 129.84 480.48 131.55 484.37 135.12 483.13 137.55 481 139.44 479.35 142.99 476.5 143.7 474.63 145.04 469.71 146.04 468.91 147.53 465.36 147.19 461.62 148.3 459.17 149.97 456.5 154.45 457.26 155.17 456.44 157.94 458.61 161.56 458.03 164.45 456.45 166.59 454.56 167.53 452.59 170.2 451.33 175.07 448.45 179.44 445.7 187.51 445.44 191.01 444.17 196.17 444.26 200.59 442.05 206.36 439.29 208.44 439.92 210.18 442.9 210.89 430.28 219.88 418.02 222.73 415.68 220.44 412.26 221.52 411.29 219.8 407.71 220.18 405.84 218.71 407.89 217.2 405.31 216.06 405.72 214.31 398.07 208.92 394.93 208.43 393.29 209.84 389.16 209.64 387.1 208.94 386.36 207.3 383.7 206.88 381.21 203.96 379.97 206.32 378.17 208 375.63 209.06 371.91 209.25 367.76 212.52 363.26 214.23 358.88 214.3 350.41 215.36 348.22 213.53 348.66 212.11 352.31 213.25 354.95 209.03 356.76 209.48 357.16 205.57 356.68 203.63 354.15 199.23 353.69 196.57 351.81 195.85 351.69 194.06 346.65 192.54 346.91 190.27 349.25 189.17 351.32 187.05 352.15 184.99 351.9 181.25 353.54 178.83 355.57 178.85 357.87 175.58 361.42 173.92 362.52 170.16 362.51 168.2 360.51 167.62 359.37 164.9 357.56 163.44 355.74 160.06 356.53 157.66 358.41 154.83 359.61 155.08 361.84 152.61 362.3 149.11 361.32 146.61 361.28 143.93 360.12 143.29 Z M 389.3 185.17 390.56 183.26 391.2 179.87 394.19 176.59 396.39 175.4 397.6 173.49 403.13 169.46 403.86 168.33 403.84 164 401.93 166.14 401.87 167.97 396.95 171.61 393.33 176.21 391.46 177.72 389.69 180.95 389.3 185.17 Z" fill-rule="evenodd" id="level=district;display_name=Ноокен району"/>
<path d="M 360.12 143.29 361.28 143.93 361.32 146.61 362.3 149.11 361.84 152.61 359.61 155.08 358.41 154.83 356.53 157.66 355.74 160.06 357.56 163.44 359.37 164.9 360.51 167.62 362.51 168.2 362.52 170.16 361.42 173.92 357.87 175.58 355.57 178.85 353.54 178.83 351.9 181.25 352.15 184.99 351.32 187.05 349.07 185.76 349.97 184.33 348.3 181.1 349.03 179.33 350.94 177.97 352.14 175.85 354.02 175.93 355.78 174.7 355.29 172.38 356.57 171.45 355.58 168.47 356.78 165.77 353.76 163.71 351.99 160.65 350.43 159.5 350.48 157.28 355.67 154.16 359.01 153.21 358.86 150.71 361.12 149.18 357.83 146.44 360.12 143.29 Z" id="level=district;display_name=Таш-Көмүр шаары"/>
<path d="M 254.24 129.17 254.09 127.13 250.45 124.8 248.47 120.8 246.56 119.81 244.68 117.42 242.67 116.65 240.07 114.46 239.32 111.57 240.24 107.9 237.57 104.58 237.32 102.85 235.05 101.71 235.85 100.31 234.64 98.17 231.43 94.71 230 94.82 223.94 91.9 220.82 87.98 220.56 85.02 220.39 81.54 217.83 81.33 218.03 79 221.23 76.02 226.27 75.03 226.65 73.69 231.47 72.21 233.24 70.94 237.87 70.77 240.49 71.16 247.67 68.58 252.24 65.56 251.76 64.35 254.03 62.84 257.53 62.22 262.69 63.09 266.67 61.95 268.48 62.2 270.28 60.79 275.47 61.82 277.19 61.19 278.71 58.32 280.47 57.78 284.61 53.34 288.01 52.57 292.2 50.3 295.69 45.45 296.22 43.82 298.79 42.98 299.98 40.94 306.58 37.68 312.75 38.07 314.29 39.45 316.74 39.2 320.36 40.49 323.56 40.36 326.66 40.92 329.52 42.56 332.43 45.67 332.73 47.36 330.6 49.37 332.14 51.35 331.88 53.22 333.51 55.52 337.68 54.84 339.19 53.59 343.06 52.82 346.12 54.56 348.22 56.78 357.26 56.93 362.07 58.6 365.3 61.77 369.28 62.12 374.49 64.02 383.01 68.15 387.16 67.75 392.99 68.23 394.32 69.09 395.94 73.54 397.68 74.4 398.46 76.33 394.21 78.09 391.4 77.95 390.29 79.77 387.57 79.81 386.41 81.9 382.74 83.59 382.46 85.88 384.38 87.51 385.23 89.62 387.21 90.97 388.42 94.41 386.29 97.33 383.1 99.68 383.66 102.86 387.13 106.96 390.62 107.16 392.98 107.91 399.54 108.33 403.31 110.92 403.79 111.91 406.99 113.72 409.92 114.47 411.05 116.53 407.77 118.03 404.31 117.98 402.88 121.32 400.74 121.92 399.79 123.52 396.18 123.47 393.48 124.36 391.86 126.51 388.91 125.39 385.7 125.28 383.81 127.54 380.6 127.64 379.59 129.79 375.77 128.95 375.35 130.16 371.51 131.69 372.1 134.01 368.75 135.74 365.95 135.87 364.19 139.98 361.95 140.27 360.12 143.29 357.83 146.44 361.12 149.18 358.86 150.71 359.01 153.21 355.67 154.16 350.48 157.28 350.43 159.5 351.99 160.65 353.76 163.71 356.78 165.77 355.58 168.47 356.57 171.45 355.29 172.38 355.78 174.7 354.02 175.93 352.14 175.85 350.94 177.97 349.03 179.33 348.3 181.1 349.97 184.33 349.07 185.76 346.11 186.62 344.37 186.07 341.46 187.65 339.75 187.53 337.83 188.86 336.8 190.89 333.39 193.18 326.84 190.73 322.66 189.57 321.57 187.09 313.45 187.01 311.96 188.91 305.33 186.39 303.73 186.6 300.55 185.12 300.1 180.67 296.29 179.34 297.57 176.41 299.18 175.09 300.59 169.69 302.31 169.15 304.35 165.81 307.33 163.01 302.99 160.42 299.51 155.38 301.79 154.54 301.55 153.18 298.8 151.32 297.11 153.41 293 152.82 291.3 151.12 292.56 148.98 290.83 148.59 290.86 146.68 287.62 145.71 284.19 141.51 284.06 137.61 280.83 136.13 278.38 138.35 273.18 136.78 272.41 137.55 272.92 142.28 272.31 144.11 269.08 144.19 265.89 141.11 266.97 139.49 267.42 136.59 271.8 132.83 269.88 129.19 273.17 126.2 273.51 124.4 271.61 122.9 274.42 121.18 273.83 119.43 271.01 118.6 267.5 119.6 267.68 122 263.87 124.42 262.62 127.48 258.02 129.29 254.24 129.17 Z" id="level=district;display_name=Аксы району"/>
<path d="M 514.46 18.28 516.43 18.27 519.78 19.65 520.78 18.5 527.7 19.09 529.84 19.93 532.73 19.73 536.23 21.07 540.54 21.21 541.43 22.26 548.7 23.14 550.1 23.87 552.58 33.13 555.29 34.57 558.46 34.99 562.47 33.9 564.06 35.52 567.46 34.86 567.98 37.21 570.54 36.92 572.2 35.82 574.3 36.23 575.15 37.83 577.64 37.21 581.57 37.9 585.89 40.38 590.78 40.53 593.88 39.29 596.26 40.35 599.79 40.67 601.54 39.58 605.77 39.2 614.58 36.78 617.17 38.28 618.22 37.34 622.37 39.07 626.85 38.04 629.29 38.6 628.9 40.04 630.54 43.93 632.81 44.88 632.04 46.79 632.53 48.62 628.69 52.92 628.27 55.26 624.67 56.74 624.8 58.85 622.91 60.47 620.42 60.09 619.77 62.53 624.95 63.05 629.82 65.02 631.12 66.21 634.95 66.06 635.98 64.31 635.75 61.66 644.48 67.12 648.22 66.53 650.47 67.96 652.76 66.49 655.36 67.02 658.21 65.85 660.71 66.98 664.7 70.76 663.45 73.23 663.41 76.23 664.68 78.27 664.64 80.16 666.47 81.03 667.47 82.73 665.9 84.97 672.74 86.75 679.18 86.16 682.59 87.79 684.74 87.51 684.44 90.44 683.32 92.15 683.79 95.75 683.45 99.8 683.98 104.46 683.76 106.81 679.22 108.06 677.36 107.45 674.83 104.56 676.83 103.24 677.57 101.55 677.17 98.87 672.81 95.52 669.54 94.35 666.06 94.75 663.36 93.32 658.88 92.82 657.15 91.28 650.54 91.07 650.73 94.73 651.94 94.98 654.94 100.69 654.96 102.07 657.9 103.63 657.23 104.55 659.91 108.18 657.94 110.24 659.5 111.44 658.5 114.23 659.32 116.1 657.54 116.63 654.35 118.89 650.33 118.92 647.68 118.25 645.13 119.51 639.35 119.29 638.33 117.94 635.04 115.98 633.39 117.05 630.59 115.96 627.42 116.44 621.43 115.77 620.68 113.96 613.38 110.98 612.95 109.2 609.66 108.89 604.53 112.3 603.96 114.83 601.16 118.73 599.28 116.57 594.18 115.1 593.56 115.99 588.24 116.53 587.03 117.42 587.59 119.23 584.27 122.11 582.03 121.9 579.85 120.29 575.3 120.42 572.08 121.65 572.13 125.02 571.21 128.3 567.98 128.53 564.65 129.89 563.98 130.97 561.17 132 560.53 133.95 557.98 131.8 555.94 128.42 553.25 128.53 550.74 129.56 546.24 127.33 545.65 125.52 537.19 121.84 535.29 121.78 532.5 123.51 530.31 120.54 526.22 119.89 523.31 117.73 520.75 118.64 516.31 118.11 511.5 119.13 510.1 116.94 509.78 113.91 505.29 112.36 499.47 113.31 493.13 113.06 491.32 114.08 491.18 119.48 492.93 120.19 488.01 123.97 485.96 127.16 483.12 127.57 478.09 127.21 476.49 128.24 472.92 127.94 471.79 128.98 471.67 131.83 467.75 132.93 464.45 132.31 462.23 133.34 457.51 134.14 456.11 133.41 453.16 135.25 452.53 133.72 448.7 132.62 447.06 133.61 444.9 132.49 441.93 134.11 439.44 134.74 436.92 136.55 433.81 137.44 430.43 135.25 427.14 137.14 421.22 136.4 422.08 134.85 420.05 134.12 416.52 133.92 413.81 132.25 404.29 132.3 396.31 129.81 392.55 127.91 391.86 126.51 393.48 124.36 396.18 123.47 399.79 123.52 400.74 121.92 402.88 121.32 404.31 117.98 407.77 118.03 411.05 116.53 409.92 114.47 406.99 113.72 403.79 111.91 403.31 110.92 399.54 108.33 392.98 107.91 390.62 107.16 387.13 106.96 383.66 102.86 383.1 99.68 386.29 97.33 388.42 94.41 387.21 90.97 385.23 89.62 384.38 87.51 382.46 85.88 382.74 83.59 386.41 81.9 387.57 79.81 390.29 79.77 391.4 77.95 394.21 78.09 398.46 76.33 397.68 74.4 395.94 73.54 394.32 69.09 392.99 68.23 387.16 67.75 383.01 68.15 374.49 64.02 369.28 62.12 365.3 61.77 362.07 58.6 357.26 56.93 348.22 56.78 346.12 54.56 343.06 52.82 339.19 53.59 337.68 54.84 333.51 55.52 331.88 53.22 332.14 51.35 330.6 49.37 332.73 47.36 332.43 45.67 329.52 42.56 326.66 40.92 323.56 40.36 320.36 40.49 316.74 39.2 314.29 39.45 312.75 38.07 306.58 37.68 305.37 33.54 306.89 31.34 309.98 31.27 311.81 29.84 312.18 26.06 315.26 24.73 317.11 22.57 325.49 24.04 333.26 27.71 338.3 26.67 339.14 28.96 342.75 28.81 345.62 29.4 349.47 27.99 351.68 26.13 352.03 23.39 353.92 20.78 353.11 19.67 353.25 16.44 352.04 15.87 352.46 12.58 356.22 10.23 356.53 8.78 358.72 8.36 359.51 4.55 358.22 2.08 361.89 1 365 1.11 370.39 2.77 373.85 2.92 375.84 2.26 380.56 2.72 382.24 4.41 385.55 4.74 387.28 6.9 389.27 7.42 388.86 11.11 392.18 10.9 394.85 12.15 397.36 12.1 403.43 10.6 406.11 11.13 409.42 12.92 412.13 12.25 416.11 12.35 419.58 13.37 420.92 15.78 424.82 16.58 431.62 16.82 433.48 17.79 436.94 16.69 439.9 18.17 442.97 18.71 444.22 20.31 447.45 21.64 448.23 22.74 455.28 25.89 455.94 27.73 459.03 29.38 464.86 31.22 468.33 30.59 470.63 28.43 475.93 27.16 475.83 24.93 474.71 22.83 482.35 21.58 484.48 20.88 485.14 19.05 489.92 15.05 492.86 16.17 494.83 18.76 497.82 17.48 503.34 17.14 508.03 19.1 513.65 19.09 514.46 18.28 Z M 446.88 102.14 439.19 102.58 438.4 103.37 435.17 102.75 433.53 104.99 436.59 104.85 441.8 105.64 440.91 104.25 446.89 103.03 446.88 102.14 Z" fill-rule="evenodd" id="level=district;display_name=Токтогул району"/>
<path d="M 446.88 102.14 446.89 103.03 440.91 104.25 441.8 105.64 436.59 104.85 433.53 104.99 435.17 102.75 438.4 103.37 439.19 102.58 446.88 102.14 Z" id="level=district;display_name=Кара-Көл шаары"/>
<path d="M 96.11 133.01 97.8 133.51 102.97 132.06 106.77 129.67 106.47 127.45 107.73 126.66 108.9 122.67 112.02 120.73 113.81 120.63 116.65 118.15 115.64 116.83 118.15 115.24 121.08 114.53 125.7 114.78 128.98 112.83 128.67 109.18 130.71 109.13 131.93 107.28 134.27 107.03 137.91 105.69 139.98 106.72 141.98 106.39 145.52 108.17 148.3 108.64 151.47 107.62 154.98 105.7 157.07 109.18 158.95 110.05 158.73 111.62 160.64 114.26 161.12 120.95 160.16 123.84 163.05 126.47 162.88 130.57 165.18 131.22 161.69 135.88 163.25 138.75 165.03 140.45 169.9 142.78 171.77 144.59 175.82 146.39 178.98 150.69 178.68 151.86 181.06 153.21 187.16 159.04 189.73 160.97 188.16 163.76 184.79 164.86 185.83 166.72 189.37 169.43 192.33 168.95 195.98 166.74 197.66 166.88 198.4 168.72 193.59 170.61 195.37 171.41 194.49 174.44 194.9 175.99 197.09 178.03 201.49 176.67 204.24 174.24 206.06 173.44 206.46 171.81 204.68 169.54 204.9 167.11 199.98 166.22 198.87 164.22 193.22 160.76 195.42 159.91 200.53 156.1 198.92 155.4 193.26 155.52 191.65 154.36 193.79 148.23 197.73 145.5 201.1 147.37 199.6 150.42 199.71 152.63 201.83 153.7 203.92 150.8 208.02 147.3 205.6 146.8 204.86 144.49 205.67 138.62 196.61 139.44 193.65 138.67 184.19 133.77 186.95 132.91 184.85 128.15 183.4 126.49 184.52 124.9 180.34 123.69 178.55 122.06 174.98 122.5 172.06 121.26 171.23 118 172.59 117.62 175.24 113.44 176.11 109.73 180.27 105.31 180.39 101.95 179.02 100.17 178.13 94.26 179.19 93.2 182.37 93.61 184.76 95.89 190.27 95.27 191.69 94.07 195.74 93.6 199.06 93.84 199.91 92.84 202.78 92.73 204.76 93.49 206.16 95.78 208.92 94.67 208.33 93.63 212.05 90.93 213.69 86.95 215.89 86.71 218.56 85.19 220.56 85.02 220.82 87.98 223.94 91.9 230 94.82 231.43 94.71 234.64 98.17 235.85 100.31 235.05 101.71 237.32 102.85 237.57 104.58 240.24 107.9 239.32 111.57 240.07 114.46 242.67 116.65 244.68 117.42 246.56 119.81 248.47 120.8 250.45 124.8 254.09 127.13 254.24 129.17 251.51 131.68 253.99 131.85 255.62 130.93 259.41 130.18 261.52 135.43 263.07 136.84 264.6 140.66 261.96 144.24 259.33 144.82 261.38 147.64 256.83 154.57 252.39 155.88 251.04 158.15 243.53 163.75 239.47 162.98 237.12 163.49 236.3 160.99 234.98 160.85 231.13 162.91 227.84 162.56 223.66 164.62 224.66 165.85 222.91 171.07 224.98 173.1 223.91 174.76 225.32 175.66 225.77 178.2 220.94 181.37 221.68 184.26 224.14 185.61 224.54 187.01 221.15 191.26 214.75 195.69 212.24 192.57 210.07 193.31 206.19 192.21 201.92 193.16 199.97 194.77 194.42 196.64 193.66 194.64 194.21 188.23 193.21 184.14 190.58 181.87 189.6 182.43 186.02 180.77 184.79 181.88 184.82 184.56 182.57 185.04 180.95 182.02 178.41 182.83 176.63 184.89 173.85 185.27 170.73 187.79 167.79 189.35 165.91 189.09 159.37 185.14 157.95 183.45 154.2 182.73 152.37 181.16 147.91 182.06 141.77 184.86 139.03 185.48 135.48 183.7 134.05 181.01 131.67 180.39 126.13 177.02 123.97 173.63 120.86 171.55 117.74 170.57 115.41 171.39 111.86 173.93 110.52 174.15 110.16 176.76 108.44 179.41 106.39 176.59 105.88 169.07 105.08 168.09 106.6 165.46 105.91 161.01 108.03 157.52 106.58 156.22 107.3 152.49 106.81 146.55 103.14 143.9 102.28 142.16 99.12 139.76 98.89 138.39 96.76 137.15 95.79 135.15 96.11 133.01 Z" id="level=district;display_name=Ала-Бука району"/>
<path d="M 306.58 37.68 299.98 40.94 298.79 42.98 296.22 43.82 295.69 45.45 292.2 50.3 288.01 52.57 284.61 53.34 280.47 57.78 278.71 58.32 277.19 61.19 275.47 61.82 270.28 60.79 268.48 62.2 266.67 61.95 262.69 63.09 257.53 62.22 254.03 62.84 251.76 64.35 252.24 65.56 247.67 68.58 240.49 71.16 237.87 70.77 233.24 70.94 231.47 72.21 226.65 73.69 226.27 75.03 221.23 76.02 218.03 79 217.83 81.33 220.39 81.54 220.56 85.02 218.56 85.19 215.89 86.71 213.69 86.95 212.05 90.93 208.33 93.63 208.92 94.67 206.16 95.78 204.76 93.49 202.78 92.73 199.91 92.84 199.06 93.84 195.74 93.6 191.69 94.07 190.27 95.27 184.76 95.89 182.37 93.61 179.19 93.2 178.13 94.26 179.02 100.17 180.39 101.95 180.27 105.31 176.11 109.73 175.24 113.44 172.59 117.62 171.23 118 172.06 121.26 174.98 122.5 178.55 122.06 180.34 123.69 184.52 124.9 183.4 126.49 184.85 128.15 186.95 132.91 184.19 133.77 193.65 138.67 196.61 139.44 205.67 138.62 204.86 144.49 205.6 146.8 208.02 147.3 203.92 150.8 201.83 153.7 199.71 152.63 199.6 150.42 201.1 147.37 197.73 145.5 193.79 148.23 191.65 154.36 193.26 155.52 198.92 155.4 200.53 156.1 195.42 159.91 193.22 160.76 198.87 164.22 199.98 166.22 204.9 167.11 204.68 169.54 206.46 171.81 206.06 173.44 204.24 174.24 201.49 176.67 197.09 178.03 194.9 175.99 194.49 174.44 195.37 171.41 193.59 170.61 198.4 168.72 197.66 166.88 195.98 166.74 192.33 168.95 189.37 169.43 185.83 166.72 184.79 164.86 188.16 163.76 189.73 160.97 187.16 159.04 181.06 153.21 178.68 151.86 178.98 150.69 175.82 146.39 171.77 144.59 169.9 142.78 165.03 140.45 163.25 138.75 161.69 135.88 165.18 131.22 162.88 130.57 163.05 126.47 160.16 123.84 161.12 120.95 160.64 114.26 158.73 111.62 158.95 110.05 157.07 109.18 154.98 105.7 151.47 107.62 148.3 108.64 145.52 108.17 141.98 106.39 139.98 106.72 137.91 105.69 134.27 107.03 131.93 107.28 130.71 109.13 128.67 109.18 128.98 112.83 125.7 114.78 121.08 114.53 118.15 115.24 115.64 116.83 116.65 118.15 113.81 120.63 112.02 120.73 108.9 122.67 107.73 126.66 106.47 127.45 106.77 129.67 102.97 132.06 97.8 133.51 96.11 133.01 87.16 132.25 84.03 134.39 81.01 133.83 76.26 135.27 74.62 134.58 73.15 137.01 70.35 137.08 69.74 138.99 67.39 140.86 67.15 142.73 64.3 142.97 60.54 144.71 58.94 144 56.04 144.84 52.74 142.74 51.82 139.81 47.4 136.41 44.54 135.43 42.58 133.9 41.96 132.21 37.31 132.87 34.27 128.31 31.56 128.26 27.55 126.95 23.72 123.43 18.82 125.11 18.14 126.99 12.75 128.54 9.05 127.76 7.64 126.3 3.27 125.43 1 124.16 2.42 122.25 3.51 119.17 2.06 116.98 3.96 115.12 7.19 114.21 8.44 110.41 7.3 107.46 10.44 107.68 12.79 106.55 16.73 108.26 19.49 106.1 21.88 105.75 23.49 104.09 27.02 103.1 30.49 102.87 34.9 101.24 38.15 96.63 40.05 94.83 47.02 91.99 49.36 91.62 52.33 88.45 57.56 88.62 59.69 83.88 58.97 83.21 59.66 79.46 62.95 74.82 65.67 74.33 70.22 72.71 71.5 71.26 75.05 71.39 75.23 68.4 76.21 65.71 80.32 65.53 81.08 64.1 85.37 59.6 86.98 55.88 90.88 54.37 94.45 53.63 98.42 53.51 99.84 54.66 102.98 54.36 103.12 50.72 105.92 52.13 108.85 52 111.79 53.48 113.07 52.48 116.68 53.05 120.02 49.83 120.3 48.25 119.1 44.1 119.69 41.53 117.22 39.66 118.8 36.37 120.93 34.92 120.32 32.63 121.99 30.14 123.88 31.4 126.01 30.53 128.18 32.45 130.61 32.28 135.46 34.15 141.93 33.85 144.3 34.29 145.93 31.89 147.92 30.45 148.25 28.92 150.63 27.76 152.58 28.48 154.21 25.43 157.48 24.71 160.35 23.11 162.99 23.06 163.45 20.31 168.27 19.23 170.24 16.18 172.27 16.82 175.97 14.47 179.73 14.51 180.45 15.54 183.66 15.61 187.14 12.82 188.79 10.58 190.89 9.42 189.36 7.81 192.62 5.27 192.28 3.7 194.84 3.31 196.76 1.4 197.96 2.32 202.43 3.16 211.39 3.48 219.15 6.36 221.95 6.36 224.63 7.48 226.9 6.6 230.15 7.36 232.38 4.66 234.28 4.28 237.67 5 243.7 5.23 251.61 2.03 253.73 3.14 259.22 3.25 261.1 5.19 263.54 6.49 266.83 7.21 269.64 10.49 272.37 10.44 275.93 11.92 281.4 12.96 282.59 12.16 288.27 14.34 292.27 13.05 296 14.25 299.96 16.22 301.51 16.16 304.83 18.23 309.36 19.36 313.6 21.12 314.9 20.89 317.11 22.57 315.26 24.73 312.18 26.06 311.81 29.84 309.98 31.27 306.89 31.34 305.37 33.54 306.58 37.68 Z" id="level=district;display_name=Чаткал району"/>
</g>
</svg>