<?xml version="1.0"?>
<svg xmlns="http://www.w3.org/2000/svg" version="1.2" baseProfile="tiny" width="800" height="274" viewBox="0 0 800 274" stroke-linecap="round" stroke-linejoin="round">
<g id="41708">
<path d="M 295.02 91.52 295.35 90.2 300.2 88.88 306.58 89.78 305.25 83.99 307.3 83.67 307.3 79.73 310.02 79.8 309.51 82.06 312.08 81.83 312.32 80.19 317.9 81.53 324.31 86.26 323.16 89.5 325.55 89.71 326.66 95.14 325.4 101.11 328.69 102.1 330.38 104.67 329.7 107.87 327.26 109.16 325.85 112.12 324.55 112.72 325.26 118.5 323.27 121.58 323.65 123.65 326.74 127.33 326.51 132.15 327.24 134.29 325.71 136.84 322.74 139.38 322.74 140.88 326.04 142.42 326.51 144.55 329 148.27 326.2 149.4 319.62 150.2 321.39 153.12 321.29 154.46 323.69 156.42 323.67 158.33 325.25 159.3 325.53 161.62 329.47 162.74 328.21 165.66 326.19 166.65 321.58 166.5 317.28 165.18 314.14 165.81 312.4 165.26 305.19 165.29 301.7 161.26 299.81 160.22 292.88 161.36 289.36 160.74 286.49 156.64 281.5 156.72 279.62 159.41 275.44 158.76 273.05 162.05 270.16 162.45 267.32 160.47 269.92 157.88 269.39 156.6 270.32 152.96 273.77 150.02 274.76 147.92 274.8 141.56 272.29 135.71 272.26 133.97 265.55 132.21 260.93 129.94 261.45 126.68 263.3 123.85 262.53 120.79 262.73 117.59 260.29 115.71 261.94 110.56 261.67 108.11 265.3 107.93 269.35 104.49 273.31 103.02 273.5 101.16 269.28 101.8 270.27 96.19 276.22 94.95 280.56 94.73 283.3 95.57 283.34 92.95 290.16 93.27 289.21 90.13 285.63 89.71 285.76 88.4 288.63 87.72 291.61 89.92 293.65 93.03 295.02 91.52 Z M 297.31 68.83 297.66 66.05 296.72 64.66 297.34 61.62 294.6 61.58 292.87 64.74 293.4 69.02 290.54 69.22 290.7 71.84 283.7 72 283.85 69.81 277.94 65.09 278.27 56.37 279.91 53.97 282.63 51.57 280.26 49.62 279.74 48.24 274.91 49.23 270.67 49.56 270.29 47.05 272.92 46.87 272.43 43.41 274.83 43.4 275.13 40.71 276.91 39.51 274.06 36.27 269.26 36.03 267.1 34.45 267.15 31.5 264.66 27.7 263.43 23.92 265.24 23.26 266.4 20.61 273.84 22.76 277.91 21.92 281.33 24.5 288.93 25.76 291 26.99 293.4 26.59 295.24 29.81 297.95 31.27 300.67 35.72 304.11 36.62 306.12 40.57 309.89 41.97 311.45 44.06 315.78 44.78 318.63 48.14 322.02 51.09 325.31 53.15 323.05 55.72 320.87 55.8 318.22 59.33 315.71 60.75 318.15 62.31 318.36 66.95 316.94 70.92 316.54 74.73 316.19 75.35 308.55 74.71 308.72 72.65 303.7 72.03 302.55 68.09 305.53 62.95 301.74 61.91 303.57 57.32 299.4 59.07 299.65 66.51 297.31 68.83 Z" fill-rule="evenodd" id="level=district;display_name=Аламүдүн району"/>
<path d="M 145.37 29.59 150.68 27.4 152.19 29.46 157.73 29.91 165.09 31 168.08 27.01 169.47 23.92 172.17 21.92 173.75 19.11 175.39 13.67 174.52 11.82 177.49 9.42 185.72 14.79 189.56 17.83 187.71 21.84 184.5 31.64 177.32 32.36 174.38 41.46 169.46 53.23 182.86 56.42 180.35 57.89 178.99 62.74 183.5 64.39 183.19 71.74 183.5 74.36 179.77 77.27 179.52 82.13 176.47 87.51 178.05 92.3 178.06 95.28 179.32 96.53 178.52 98.24 179.44 103.43 175.45 104.44 172.73 101.08 170.92 101.05 173.47 104.77 177.49 108.48 180.15 114.28 183.45 117.35 183.81 122.79 184.86 126.26 184.42 128.67 185.22 135.18 183.2 136.91 184.58 139.23 182.36 142.54 177.14 144.5 175.79 147.83 172.47 151.39 172.47 157.42 166.97 160.89 169.13 161.6 169.44 164.36 165.31 169.22 167.33 170.66 168.02 173.4 164.23 174.24 163.04 173.3 157.3 173.8 155.14 174.79 154.93 176.45 152.18 178.18 147.75 177.02 144.07 177.35 142.68 178.84 136.44 179.54 132.19 179.43 130.55 180.86 126.51 180.11 121.98 180.26 115.43 178.98 112.3 180.83 108.78 179.31 107.88 174.02 108.12 171.93 111.42 170.18 111.39 168.01 112.89 166.17 115.5 166.09 117.06 161.47 116.64 159.27 117.95 158.26 119.64 158.78 124.72 156.66 129.06 153.25 126.59 148.8 124.9 146.8 126.76 142.77 128.8 139.84 131 138.01 136.06 135.64 141.3 131.88 145.06 132.37 147.2 129.15 146.67 128.09 149.69 125.85 148.73 118.99 149.47 117.61 152.29 116.53 152.44 112.2 151.35 111.99 149.96 107.72 150.01 102.94 147.89 97.88 145.54 95.05 145.3 85.37 142.26 77.89 139.98 75.33 138.7 79.1 135.99 83.94 133.15 82.76 132.17 80.53 128.71 75.72 126.4 74.33 125.79 71.11 122.04 69.47 118.62 65.81 117.35 63.41 124.99 59.82 135.49 54.34 140.9 52.12 138.94 50.12 139.13 48.08 141.31 46.24 141.79 42.18 143.19 40.99 145.4 34.5 145.37 29.59 Z M 260.85 202.63 259.15 204.12 259.34 205.86 257.37 209.91 252.9 213.07 251.34 214.85 255.1 216.99 258.15 219.47 253.77 222.78 254.97 224.77 251.01 225.72 249.68 227.28 249.79 230.82 250.93 232.88 250 233.9 245.03 234.93 243.01 239.94 243.65 241.59 240.26 243.28 238.78 245.33 234.83 248.95 233.8 251.48 235.25 254.52 234.24 257.09 231.64 258.05 230 259.75 222.64 257.77 219.71 258.1 217.76 257.32 212.96 259.87 208.23 266.05 208.63 270.89 206.53 272.95 204.42 270.82 205.21 266.25 207.88 260.8 207.81 257.73 206.36 257.14 202.6 259.53 197.43 260.55 194.75 261.63 193.98 260.14 190.41 257.15 188.24 254.11 184.29 252.84 183.62 251.91 178.99 249.91 176.5 246.5 177.48 244.96 182.38 243.3 181.67 237.8 179.54 237.12 178.81 235.23 176.48 234.68 174.11 232.86 168.14 231.07 166.08 229.45 163.36 231.02 159.02 231.21 155.69 230.4 152.87 228.8 154.61 226.5 153.58 223.2 153.96 219.49 153.57 215.97 151.52 214.82 148.17 214.39 140.81 211.71 142.14 209.85 136.83 207.23 128.37 205.95 124.06 203.61 124.77 201.16 133.96 198.41 148.57 194.55 152.34 192.82 152.88 190.77 156.63 190.58 158.79 191.61 167.4 188.14 172.34 188.03 185.35 186.89 189.79 187.53 196.43 186.43 202.54 186.4 207.69 185.39 219.75 191.76 223.62 191.1 225.64 195.21 228 198.54 226.88 199.84 222.92 200.47 219.29 201.95 214.04 206.2 218.54 211.17 220.79 215.39 230.13 211.22 232.53 208.33 236.33 205.93 236.85 202.28 241.09 200.63 246.56 199.91 251.34 200.38 252.4 201.75 258.39 201.32 260.85 202.63 Z" fill-rule="evenodd" id="level=district;display_name=Жайыл району"/>
<path d="M 496.68 157.97 495.54 157.36 496.07 154.77 498.3 149.73 500.52 147.06 495.96 146.39 494.44 144.34 493.35 140.54 496.6 138.44 498.39 135.16 504.2 133.64 505.37 131.36 502.69 129.77 500.33 126.22 497.89 125.03 496.38 126.25 485.45 127.14 484.93 129.26 482.79 130.68 479.21 128.99 475.38 128.21 478.1 125.03 478.14 122.87 473.69 124.4 471.87 122.32 470.12 122.24 469.01 119.33 463.98 118.67 465.05 113.11 462.48 109.38 459.8 101.57 469.32 101.03 469.95 98.02 468.77 96.59 464.45 95.21 464.9 93.84 459.57 90.75 461.23 89.05 459.34 85.08 459.88 83.02 463.57 83.26 466.31 81.89 473.09 83.6 479.64 84.48 483.07 84.37 498.51 87.97 502.88 89.36 511.06 90.69 519.58 83.79 521.68 79.84 524.33 71.24 527.18 67.69 531.41 63.68 533.72 64.06 536.12 63 545.29 62.56 553.16 60.44 555.6 62.4 556.74 64.63 566.71 66.26 570.55 68.97 573.66 67.97 576.95 68 578.55 66.93 581.99 67.64 583.72 66.61 587.6 66.74 602.45 65.2 603.41 67.91 610.62 66.92 615.76 67.43 622.72 68.93 624.17 70.93 622.45 73.34 623.2 75.96 627.05 76.45 627.9 78.04 630.83 78.58 634.12 77.35 635.7 77.64 639.72 75.71 645.1 76.17 647.83 75.24 649.07 73.65 651.37 74.33 657.96 73.31 659.28 70.49 661.23 69.95 661.43 67.57 664.89 66.8 668.39 67.86 670.12 69.2 674.92 69.88 678.58 69.39 680.02 68.1 685.3 69.97 688.83 69.01 694.29 69.25 700.56 70.29 705.74 67.69 708.28 66.91 709.47 64.52 708.15 63.03 709.43 61.53 714.23 60.29 717.72 61.99 722.31 60.56 725.01 57.34 724.68 55.43 732.34 57.48 733.68 56.43 739.27 57.44 740.63 58.45 743.53 57.5 744.92 55.42 748.02 56.03 750.74 54.46 753.26 55.5 756.95 55.17 758.77 58.82 761.22 60.99 763.66 62.01 767.7 58.57 767.96 56.35 772.37 55.56 775.93 56.86 778.24 56.61 779.94 57.74 785.5 57.2 786.17 62.8 790.96 62.67 793.4 63.48 796.73 65.77 799 65.76 798.49 68 797.48 69.66 790.69 70.77 789.58 72.38 785.92 73.41 785.62 74.71 782.9 76.81 781.03 76.82 780.07 79.35 780.24 82.08 777.8 86.84 774.4 88.24 772.35 87.52 766.64 87.1 764.39 87.69 759.57 87.43 754.87 89.06 752.2 88.56 747.07 89.37 736.76 89.04 732.82 90.13 728.36 89.06 726.32 91.02 720.06 92.21 717.12 94.43 711.96 94.61 708.84 95.47 699.55 94.92 697.96 94.19 688.83 95.74 687.87 95.25 680.67 94.83 673.6 96.65 668.24 95.5 665.67 95.93 658.73 95.74 657.78 96.92 653.55 98.99 649.72 98.84 645.68 100.36 641.99 100.85 637.62 102.75 634.98 103.1 632.45 105.59 627.54 106.86 621.64 109.07 614.89 113.66 613.03 113.82 610.29 118.02 603.66 119.49 601.5 121.36 602.47 123.67 599.8 126.44 593.9 126.82 592.17 125.72 585.23 125.1 581.55 126.77 575.17 126.95 573.43 128.64 566.57 128.22 563.63 128.83 562.66 130.35 559.1 131.07 558.52 132.77 555.45 132.91 555.13 131.32 549.61 131.06 542.02 133.67 540.04 132.39 534.59 131.43 530.48 128.43 529.48 129.09 527.86 132.84 530.49 136.4 528.98 142.01 523.17 139.88 519.23 140.51 516.46 143.38 512.99 143.05 508.83 144.29 508.8 146.77 506.22 150.01 505.95 151.57 502.09 154.5 498.82 155.55 496.68 157.97 Z" id="level=district;display_name=Кемин району"/>
<path d="M 189.56 17.83 191.19 19.11 197.76 16.3 208.37 15.02 209.39 20.49 211.62 26.77 210.89 27.91 206.73 29.5 206.02 32.72 212.22 31.94 211.85 35.29 210 37.79 211.52 38.77 212.9 42.31 216.01 46.23 221.02 47.92 221.58 50.42 224.43 51.87 219.23 54.23 222.29 56.33 224.57 59.41 225.95 64.34 230.35 71.26 230.59 80.36 227.1 85.67 227.62 91.84 218.66 93.02 221.47 95.69 212.27 93.99 204.04 94.52 206.36 97.01 207.07 99.54 212.28 105.9 214.31 107.13 211.91 109.23 211.92 112.23 210.64 114.29 210.56 116.9 209.45 118.16 211.01 122.51 211.43 126.68 210.16 128.23 209.94 132.89 207.62 133.97 210.34 135.84 213.93 135.91 218.3 137.73 218.37 133.98 219.83 132.76 222.99 133.6 222.5 135.92 224.08 140.26 223.68 145.63 224.72 148 223.55 150.07 223.24 153.27 220.83 154.87 218.73 155.74 218.1 157.43 219.1 159.52 218.25 162.37 219.64 166.45 217.55 169.86 211.77 169.64 208.74 171.5 201.26 172.94 196.74 172.21 194.33 173.19 189.76 173.57 185.08 172.93 180.69 174.73 174.52 173.58 170.18 174.54 168.02 173.4 167.33 170.66 165.31 169.22 169.44 164.36 169.13 161.6 166.97 160.89 172.47 157.42 172.47 151.39 175.79 147.83 177.14 144.5 182.36 142.54 184.58 139.23 183.2 136.91 185.22 135.18 184.42 128.67 184.86 126.26 183.81 122.79 183.45 117.35 180.15 114.28 177.49 108.48 173.47 104.77 170.92 101.05 172.73 101.08 175.45 104.44 179.44 103.43 178.52 98.24 179.32 96.53 178.06 95.28 178.05 92.3 176.47 87.51 179.52 82.13 179.77 77.27 183.5 74.36 183.19 71.74 183.5 64.39 178.99 62.74 180.35 57.89 182.86 56.42 169.46 53.23 174.38 41.46 177.32 32.36 184.5 31.64 187.71 21.84 189.56 17.83 Z" id="level=district;display_name=Москва району"/>
<path d="M 313.56 197.66 309.42 196.48 305.46 196.85 304.11 196.21 299.72 197.6 295.25 197.77 293.2 198.85 290.4 198.19 285.99 199.27 283.82 199.02 278.85 200.64 275.71 200.89 269.11 200.04 267.26 200.95 264.95 200.45 260.85 202.63 258.39 201.32 252.4 201.75 251.34 200.38 246.56 199.91 241.09 200.63 236.85 202.28 236.33 205.93 232.53 208.33 230.13 211.22 220.79 215.39 218.54 211.17 214.04 206.2 219.29 201.95 222.92 200.47 226.88 199.84 228 198.54 225.64 195.21 223.62 191.1 219.75 191.76 207.69 185.39 202.54 186.4 196.43 186.43 189.79 187.53 185.35 186.89 172.34 188.03 167.4 188.14 158.79 191.61 156.63 190.58 152.88 190.77 152.34 192.82 148.57 194.55 133.96 198.41 124.77 201.16 124.06 203.61 128.37 205.95 136.83 207.23 142.14 209.85 140.81 211.71 148.17 214.39 151.52 214.82 153.57 215.97 153.96 219.49 153.58 223.2 154.61 226.5 152.87 228.8 155.69 230.4 159.02 231.21 163.36 231.02 166.08 229.45 168.14 231.07 174.11 232.86 176.48 234.68 178.81 235.23 179.54 237.12 181.67 237.8 182.38 243.3 177.48 244.96 176.5 246.5 173.62 246.69 168.95 251.43 161.98 251.85 161.01 252.84 157.08 252.96 155.58 252.29 150.32 252.24 143.3 253.45 142.06 252.84 141.52 250.84 142.37 248.76 139.89 247.72 138.1 243.47 138.52 241.9 135.85 241.29 130.96 242.41 126.43 240.52 125.28 241.54 122.45 239.91 112.83 242.55 108.21 242.96 106.29 244.15 102.44 243.81 99.84 242.65 96.46 244 91.11 243.84 86.4 241.13 82.1 240.38 79.37 241.06 78.45 239.31 76.15 238.86 74.34 240.06 71.55 240.38 70.98 237.81 67.27 238.53 65.53 236.76 61.14 237.95 57.69 237.5 54.73 235.92 52.02 225.8 50.48 225.01 42.54 224.04 41.57 222.9 36.86 222.75 33.04 221.28 29.88 221.5 27.55 220.58 19.99 219.94 18.89 221.2 15.23 219.68 13.08 219.69 13.75 215.32 11.92 214.03 14.66 211.88 13.32 209.38 9.62 208.24 4.64 207.72 3.66 206.39 1 205.67 2.96 202.6 2.59 197.79 3.61 195.55 2.56 193.55 6.17 193.12 8.97 193.61 10.79 195.35 13.57 195.14 16.11 193.32 15.74 190.2 17.01 186.13 21 185.03 25.4 187.58 29.72 187.15 34.1 188.81 40.22 187.94 42.86 186.09 48.57 186.45 50.87 188.36 54.19 187.44 58.5 188.12 59.08 184.79 60.54 183.58 63.56 183.16 69.54 183.72 78.16 183.3 84.27 186.14 93.25 184.78 97.93 182.03 100.65 182.71 104.32 181.96 105.74 179.91 108.78 179.31 112.3 180.83 115.43 178.98 121.98 180.26 126.51 180.11 130.55 180.86 132.19 179.43 136.44 179.54 142.68 178.84 144.07 177.35 147.75 177.02 152.18 178.18 154.93 176.45 155.14 174.79 157.3 173.8 163.04 173.3 164.23 174.24 168.02 173.4 170.18 174.54 174.52 173.58 180.69 174.73 185.08 172.93 189.76 173.57 194.33 173.19 196.74 172.21 201.26 172.94 208.74 171.5 211.77 169.64 217.55 169.86 219.64 166.45 218.25 162.37 219.1 159.52 218.1 157.43 218.73 155.74 220.83 154.87 222.89 155.6 226.14 154.8 229.01 157.82 231.3 159.2 236.15 158.04 240.18 158.89 243 158.64 252.38 160.46 257.85 159.68 262.43 158.01 265.29 160.52 267.32 160.47 270.16 162.45 273.05 162.05 275.44 158.76 279.62 159.41 281.5 156.72 286.49 156.64 289.36 160.74 292.88 161.36 299.81 160.22 301.7 161.26 305.19 165.29 312.4 165.26 314.14 165.81 317.28 165.18 321.58 166.5 326.19 166.65 328.21 165.66 329.47 162.74 331.49 162.39 336.04 162.95 335.64 164.65 338.29 166.96 339.86 170.26 341.6 171.77 347.19 180.13 349.15 180.04 349.99 182.05 347.01 184.85 343.98 185.82 342.73 184.61 340.4 185.39 335.99 185.32 333.41 184.51 332.52 185.88 328.57 187.3 323.62 186.52 322.35 189.25 319.28 191.22 316.08 191.22 315.68 194.22 313.56 197.66 Z M 117.95 158.26 113.58 155.78 110.1 155.63 109.19 156.77 104.86 157.25 102.63 153.84 97.42 153.38 98.04 157.27 95.8 157.92 93.64 161.43 90.81 159.83 87.09 155.22 83.44 154.55 81.36 152.24 80.19 149.55 76.49 146.32 74.88 144 75.06 141.74 73.41 139.19 73.9 137.19 71.86 134.25 73.25 131.79 73.77 128.59 72.44 125.54 73.04 120.4 76.68 116.11 77.7 113.44 77.23 111.79 79.08 108.83 81.18 103.4 87.74 96.71 89.49 88.62 89.7 79.97 88.69 74.01 86.43 71.87 86.99 67.16 89.36 65.02 94.16 62.66 96.87 58.38 94.95 54.82 94.31 50.57 96.35 47.08 97.66 46.29 109.81 42.57 114.5 40.58 124.42 37.88 134.3 33.59 137.81 31.65 143.56 30.47 145.37 29.59 145.4 34.5 143.19 40.99 141.79 42.18 141.31 46.24 139.13 48.08 138.94 50.12 140.9 52.12 135.49 54.34 124.99 59.82 117.35 63.41 118.62 65.81 122.04 69.47 125.79 71.11 126.4 74.33 128.71 75.72 132.17 80.53 133.15 82.76 135.99 83.94 138.7 79.1 139.98 75.33 142.26 77.89 145.3 85.37 145.54 95.05 147.89 97.88 150.01 102.94 149.96 107.72 151.35 111.99 152.44 112.2 152.29 116.53 149.47 117.61 148.73 118.99 149.69 125.85 146.67 128.09 147.2 129.15 145.06 132.37 141.3 131.88 136.06 135.64 131 138.01 128.8 139.84 126.76 142.77 124.9 146.8 126.59 148.8 129.06 153.25 124.72 156.66 119.64 158.78 117.95 158.26 Z" fill-rule="evenodd" id="level=district;display_name=Панфилов району"/>
<path d="M 285.76 88.4 285.63 89.71 289.21 90.13 290.16 93.27 283.34 92.95 283.3 95.57 280.56 94.73 276.22 94.95 270.27 96.19 269.28 101.8 273.5 101.16 273.31 103.02 269.35 104.49 265.3 107.93 261.67 108.11 261.94 110.56 260.29 115.71 262.73 117.59 262.53 120.79 263.3 123.85 261.45 126.68 260.93 129.94 265.55 132.21 272.26 133.97 272.29 135.71 274.8 141.56 274.76 147.92 273.77 150.02 270.32 152.96 269.39 156.6 269.92 157.88 267.32 160.47 265.29 160.52 262.43 158.01 257.85 159.68 252.38 160.46 243 158.64 240.18 158.89 236.15 158.04 231.3 159.2 229.01 157.82 226.14 154.8 222.89 155.6 220.83 154.87 223.24 153.27 223.55 150.07 224.72 148 223.68 145.63 224.08 140.26 222.5 135.92 222.99 133.6 219.83 132.76 218.37 133.98 218.3 137.73 213.93 135.91 210.34 135.84 207.62 133.97 209.94 132.89 210.16 128.23 211.43 126.68 211.01 122.51 209.45 118.16 210.56 116.9 210.64 114.29 211.92 112.23 211.91 109.23 214.31 107.13 212.28 105.9 207.07 99.54 206.36 97.01 204.04 94.52 212.27 93.99 221.47 95.69 218.66 93.02 227.62 91.84 227.1 85.67 230.59 80.36 230.35 71.26 225.95 64.34 224.57 59.41 222.29 56.33 219.23 54.23 224.43 51.87 221.58 50.42 221.02 47.92 216.01 46.23 212.9 42.31 211.52 38.77 210 37.79 211.85 35.29 212.22 31.94 206.02 32.72 206.73 29.5 210.89 27.91 211.62 26.77 209.39 20.49 208.37 15.02 215.62 14.01 223.4 14.56 225.54 12.78 219.93 3.17 222.14 1 227.16 3.86 230.82 3.34 233.49 5.45 237.16 4.9 239.25 5.78 242.04 10.66 248.16 11.58 251.75 14.25 256.59 14.28 260.43 15.99 259.46 16.84 264.2 18.75 266.4 20.61 265.24 23.26 263.43 23.92 264.66 27.7 267.15 31.5 267.1 34.45 269.26 36.03 274.06 36.27 276.91 39.51 275.13 40.71 274.83 43.4 272.43 43.41 272.92 46.87 270.29 47.05 270.67 49.56 274.91 49.23 279.74 48.24 280.26 49.62 279.91 53.97 278.27 56.37 277.94 65.09 283.85 69.81 283.7 72 280.53 72.44 281 76.01 276.08 78.73 276.06 81.26 278.3 81.29 277.72 85.87 279.67 86.01 282.45 82.84 285.97 83.22 285.76 88.4 Z" id="level=district;display_name=Сокулук району"/>
<path d="M 495.54 157.36 493.29 158.04 492.3 159.92 486.67 160.68 485.47 162.36 479.65 162.67 478.81 161.49 475.4 161.96 473.79 160.63 474.37 158.44 472.27 156.66 467.86 159.77 462.93 159.82 459.08 161.01 455.46 159.68 452.54 161.9 450.8 161.47 445.97 157.01 444.05 157.81 440.7 160.69 436.78 160.44 432.66 161.22 427.69 163.27 423.15 163.42 418.53 160.71 414.33 160.86 410.56 159.92 408 161.8 403.04 161.52 397.66 158.15 394.9 158.75 389.3 162.73 384.86 162.35 382.81 162.87 380.45 161.41 382.4 161.6 387.46 156.87 388.52 152.3 391.57 149.52 386.18 148.52 387.6 139.7 388.71 136.88 388.31 134.61 389.52 130.98 392.85 127.73 394.79 126.64 398.61 126.27 396.82 122.91 396.14 119.51 397.14 117.98 401.46 116.67 404.71 117.43 404.89 110.01 402.76 107.52 401.83 105.21 398.17 100.25 398.21 95.96 401.83 96.49 401.55 94.08 404.04 93.47 404.83 88.34 407.19 88.94 408.99 84.94 406.73 82.54 403.8 81.68 403.75 79.62 406.31 78.13 407.02 75.49 410.61 75.85 411.8 77.73 418.32 79.95 418.1 81.49 421.9 81.21 425.36 83.92 430.94 85.64 434.21 89.9 430.37 91.2 433.02 94.97 437.78 93.3 437.15 89.41 439.07 89.03 438.18 86.6 435.3 84.98 442.8 85.48 443.12 84.61 437.25 83.45 438.09 80.79 428.81 78.99 438.4 79.59 442.49 81 444.47 80.48 454.17 82.63 458.16 82.33 459.88 83.02 459.34 85.08 461.23 89.05 459.57 90.75 464.9 93.84 464.45 95.21 468.77 96.59 469.95 98.02 469.32 101.03 459.8 101.57 462.48 109.38 465.05 113.11 463.98 118.67 469.01 119.33 470.12 122.24 471.87 122.32 473.69 124.4 478.14 122.87 478.1 125.03 475.38 128.21 479.21 128.99 482.79 130.68 484.93 129.26 485.45 127.14 496.38 126.25 497.89 125.03 500.33 126.22 502.69 129.77 505.37 131.36 504.2 133.64 498.39 135.16 496.6 138.44 493.35 140.54 494.44 144.34 495.96 146.39 500.52 147.06 498.3 149.73 496.07 154.77 495.54 157.36 Z" id="level=district;display_name=Чүй району"/>
<path d="M 317.9 81.53 317.28 78.01 318.45 77.5 316.49 76.37 316.54 74.73 316.94 70.92 318.36 66.95 318.15 62.31 315.71 60.75 318.22 59.33 320.87 55.8 323.05 55.72 325.31 53.15 331.02 53.3 333.04 51.66 341.03 52.01 342.11 51.23 346.12 52.01 349.81 54.14 354.35 55.72 356.14 57.38 358.18 57.4 366.59 60.84 369.44 62.56 373.35 63.09 375.79 64.91 378.51 65.54 381.19 67.14 383.98 66.72 387.86 68.59 389.78 68.33 400.28 73.88 407.02 75.49 406.31 78.13 403.75 79.62 403.8 81.68 406.73 82.54 408.99 84.94 407.19 88.94 404.83 88.34 404.04 93.47 401.55 94.08 401.83 96.49 398.21 95.96 398.17 100.25 401.83 105.21 402.76 107.52 404.89 110.01 404.71 117.43 401.46 116.67 397.14 117.98 396.14 119.51 396.82 122.91 398.61 126.27 394.79 126.64 392.85 127.73 389.52 130.98 388.31 134.61 388.71 136.88 387.6 139.7 386.18 148.52 391.57 149.52 388.52 152.3 387.46 156.87 382.4 161.6 380.45 161.41 379.03 158.63 375.11 158.11 374.85 159.58 370.92 160.58 370.38 161.75 365.74 161.93 362.29 160.43 357.36 160.54 353.31 161.92 350.62 160.41 345.87 162.24 344.16 161.67 338.97 161.96 336.04 162.95 331.49 162.39 329.47 162.74 325.53 161.62 325.25 159.3 323.67 158.33 323.69 156.42 321.29 154.46 321.39 153.12 319.62 150.2 326.2 149.4 329 148.27 326.51 144.55 326.04 142.42 322.74 140.88 322.74 139.38 325.71 136.84 327.24 134.29 326.51 132.15 326.74 127.33 323.65 123.65 323.27 121.58 325.26 118.5 324.55 112.72 325.85 112.12 327.26 109.16 329.7 107.87 330.38 104.67 328.69 102.1 325.4 101.11 326.66 95.14 325.55 89.71 323.16 89.5 324.31 86.26 317.9 81.53 Z" id="level=district;display_name=Ысык-Ата району"/>
<path d="M 418.32 79.95 424.15 78.6 428.81 78.99 438.09 80.79 437.25 83.45 443.12 84.61 442.8 85.48 435.3 84.98 438.18 86.6 439.07 89.03 437.15 89.41 437.78 93.3 433.02 94.97 430.37 91.2 434.21 89.9 430.94 85.64 425.36 83.92 421.9 81.21 418.1 81.49 418.32 79.95 Z" id="level=district;display_name=Токмок шаары"/>
</g>
</svg>