<?xml version="1.0"?>
<svg xmlns="http://www.w3.org/2000/svg" version="1.2" baseProfile="tiny" width="800" height="308" viewBox="0 0 800 308" stroke-linecap="round" stroke-linejoin="round">
<g id="41702">
<path d="M 479.93 84.62 478.75 83.49 475.62 83.51 473.64 76.29 474.36 75.21 478.58 73.4 482.63 73.67 482.6 75.47 485.01 76.17 485.64 78.45 487.43 79.9 484.43 80.73 482.86 82.1 484.67 83.98 483.59 87.17 479.93 84.62 Z M 460.18 65.88 463.63 63.52 464.81 63.92 468.41 61.96 466.71 63.96 467.18 65.32 461.32 66.37 460.18 65.88 Z" fill-rule="evenodd" id="level=district;display_name=Каракол шаары"/>
<path d="M 95.39 86.89 91.45 87.53 91.11 89.66 89.44 92.84 82.82 92.84 86.71 89.57 88.81 86.88 86.89 85.04 82.06 84.9 83.21 83.14 87.6 83.74 91.6 81.38 95.97 81.47 105.74 79.63 107.22 83.37 99.71 85.74 96.3 85.8 95.39 86.89 Z" id="level=district;display_name=Балыкчы"/>
<path d="M 299.98 234.76 298.29 233.23 297.88 231.11 294.99 231.44 293.31 234.58 291.34 236.6 289.05 236.66 283.65 239.51 276.52 240.14 275.11 240.99 271.29 239.1 266.51 239.9 263.04 239.42 261.75 238.24 257.97 239.25 249.98 237.87 249.88 239.23 247.91 240.29 245.75 239.84 242.18 242.23 239.84 241.57 236.99 241.99 235.28 241.05 235.97 237.97 233.94 237.74 223.31 238.24 216.6 242.09 214.84 240.51 208.6 239.49 202.1 240.6 200.57 238.44 198.84 238.26 196.65 234.93 194.14 233.78 191.85 234.38 190.77 236.92 188.06 237.59 182.86 236.23 182.28 233.66 183.01 230.3 184.62 228.18 186.42 227.63 188.38 225.4 188.63 222.17 184.11 218.9 184.06 217.69 191.04 214.23 191.75 212.37 191.25 207.93 192.15 205.93 189.04 204.82 186.62 203.21 180.8 202.67 178.85 203.94 177.58 206.44 171.45 207.7 165.71 207.7 160.96 207.06 154.29 207.83 152.14 205.96 148.94 205.2 145.98 206.2 140.12 205.76 141.9 203.91 141.97 201.8 140.55 199.52 140.58 197.85 142.11 193.89 146.97 189.64 156.65 190.66 161.07 189.54 165.55 190.94 168.04 190.73 171.33 188.67 172.04 183.61 175.19 181.78 177.62 179.1 177.26 177.38 175.31 174.86 171.73 177.39 169.39 177.03 166.9 175.38 166.98 173.76 158.45 172.66 157.72 170.04 153.64 169.71 149.48 167.52 145.34 166.57 144.87 167.54 141.76 167.89 139.17 166.7 136.05 167.02 131.12 166.14 130.71 164.52 127.04 162.98 124.11 163.18 119.34 161.88 117.21 163.08 113.94 162.66 111.9 161.28 110.26 162.2 107.36 160.49 104.95 160.26 102.71 158.89 100.61 159.35 97.48 157.02 93.79 159.17 92.77 160.76 89.93 160.98 88.11 160.04 86.04 160.91 80.5 161.51 75.82 162.72 70.22 161.82 71.23 157.45 74.23 156.38 74.59 154.41 78.93 154.76 81.61 152.34 80.77 149.42 83.32 147.57 83.89 144.86 85.59 142.41 83.1 139.67 80.58 139.12 72.77 135.96 73.18 132.57 69.48 129.88 63.48 127.18 64.07 121.62 60.43 116.17 60.02 110.04 60.74 108.51 58.6 107.89 58.46 105.79 60.2 98.8 59.04 96.72 51.7 96.06 46.53 94.05 45.1 94.66 44.76 97.18 43.28 100.52 41.52 101.81 37.83 102.16 32.44 101.76 28.16 102.66 26.4 97.87 28.07 95.8 26.99 94.48 24.13 94.28 20.12 95.38 16.76 93.01 10.69 90.63 8.78 91.27 7.15 90.11 3.24 89.4 1 87.03 2.95 84.83 5.93 83.87 9.44 81.2 9.69 79.78 12.04 76.83 12.07 74.57 15.86 73.44 19.02 73.74 21.54 71.12 25.13 70.55 30.43 72.49 31.8 67.38 29.41 64.14 30.88 60.72 31.79 60.12 35.54 62.85 40.5 63.73 42.31 64.9 49.22 62.51 54.25 62.75 54.54 64.2 57.34 64.07 57.87 62.52 61.11 61.87 62 60.48 64.67 59.92 70.92 60.31 72.51 58.77 78.33 58.61 81.68 57.08 88 57.65 85.71 60.1 85.3 63.66 86.68 64.71 90 70.91 90.87 73.28 89.84 77.2 90.04 79.16 91.6 81.38 87.6 83.74 83.21 83.14 82.06 84.9 86.89 85.04 88.81 86.88 86.71 89.57 82.82 92.84 89.44 92.84 91.11 89.66 91.45 87.53 95.39 86.89 97.86 88.24 98.76 92.31 101.62 93.4 103 95.12 101.9 96.56 106.29 98.69 107.97 100.01 105.52 102.95 107.39 107.17 110.07 108.37 116.04 109.65 118.88 108.65 122.25 106.25 132.09 103.53 137.61 105.14 141.17 108.84 146.49 111.12 153.92 113.08 164.16 117.09 168.68 117.93 172.75 117.3 175.9 118.51 180.94 118.75 186.14 117.98 186.16 121.19 191.1 119.08 192.76 118.98 197.42 121.18 204.81 126.02 208.58 127.28 211.66 127.75 215.34 129.39 220.12 130.49 225.56 129.77 226.48 131.83 225.21 135.48 226.9 135.2 229.29 131.19 235.55 132.52 238.93 134.22 241.72 133.31 245.69 134.58 247.38 137.22 249.83 136.74 253.52 137.65 257.37 136.68 263.1 136.93 267.28 134.92 269.84 135.27 276.79 134.11 283.86 134.2 287.13 132.78 289.25 133.36 294.71 133.02 299.83 134.27 302.92 134.49 305.73 133.98 306.93 137.65 305.01 144.12 300.93 150.33 300.13 153.93 301.35 158.44 298.49 163.56 300.29 168.27 300.33 170.79 299.4 172.34 302.95 174.51 303.09 178.28 300.06 180.24 298.77 184.59 302.19 187.05 305.16 186.12 312.79 186.94 314.92 189.11 319.23 189.65 323.03 188.94 327.4 190.92 325.65 192.27 325.3 196.1 326.64 197.93 324.91 199.27 323 198.91 316.3 198.96 310.09 200.29 309.81 203.08 310.5 206.59 317.87 209.38 319.38 211.83 321.14 212.48 319.6 215.54 321.53 217.76 324.66 219.18 327.55 221.37 327.02 222.72 329.41 226.17 328.87 227.33 324.6 226.02 322.97 226.75 321.16 230.13 317.9 230.35 316.9 231.67 310.38 232.81 306.94 233 305.07 234.46 303.35 233.35 299.98 234.76 Z" id="level=district;display_name=Тоң району"/>
<path d="M 107.22 83.37 105.74 79.63 95.97 81.47 91.6 81.38 90.04 79.16 89.84 77.2 90.87 73.28 90 70.91 86.68 64.71 85.3 63.66 85.71 60.1 88 57.65 89.57 58.65 94.95 58.3 97.38 55.78 96.5 53.68 98.47 51.98 104.5 50.64 107 46.81 108.7 46.66 114.84 42.48 120.22 40.47 124.69 39.31 127 37.04 129.41 36.73 133.38 34.99 136.75 34.55 140.43 33.16 143.92 33.29 147.78 31.41 148.63 30.33 154.96 30.51 157.3 30.12 162.18 31.17 168.63 29.5 175.19 29.89 176.06 30.33 184.37 28.92 185.83 29.58 194.29 30.09 197.14 29.3 201.84 29.14 204.51 27.12 210.21 26.04 212.07 24.25 216.14 25.23 219.73 24.23 229.12 24.53 233.8 23.8 236.23 24.25 240.51 22.76 244.9 23 246.95 22.46 252.15 22.85 254.02 23.5 257.12 22.23 259.34 17.89 259.18 15.4 260.06 13.1 261.76 13.09 264.25 11.17 264.52 9.99 267.85 9.05 268.87 7.58 275.05 6.58 275.97 5.07 278.06 5.77 284.55 5.5 288.72 6.55 289.96 4.99 293.64 5.76 298.96 8.05 301.35 6.67 307.72 4.49 310.91 2.91 313.27 3.44 316.6 2.9 319.25 1.11 321.2 3.46 327.76 2.82 329.03 1.56 333.1 1 334.75 2.83 337.65 3.65 338.47 5.16 344.11 5.41 345.75 4.48 350.1 5.07 351.93 5.86 354.08 4.75 357.11 5.74 358.7 7.19 362.88 6.18 364.48 7.09 367.33 6.25 370.06 6.87 373.05 5.3 378.48 7.47 379.53 10.09 383.71 11.03 385.32 10.15 389.34 9.92 391.42 11.25 394.02 11.66 395.96 12.96 399.93 11.14 401.12 12.01 401.53 14.83 405.78 16.41 405.51 17.8 403 20.93 403.83 22.41 402.51 26.07 402.35 28.73 404.68 31.56 404.77 36.39 401.82 36.5 402.06 38.72 398.33 38.66 393.76 37.85 388.12 39.6 384 39.43 379.25 37.11 377.07 37.06 369.8 39.44 363.4 39.83 357.93 41.14 355.11 42.43 349.14 45.94 343.79 47.17 340.97 49.52 338.29 48.48 334.15 49.14 332.61 50.58 328.4 51.27 323.68 51.35 314.43 50.1 307.97 47.82 304.46 46.04 300.08 45.14 292.68 46.78 290.58 48.21 287.82 48.89 283.37 48.23 280.01 49.89 278.07 53.22 275.9 53.57 272.39 51.6 269.24 52.79 264.93 53.26 258.99 52.53 255.46 53 254.3 54.82 251.43 55.47 250.37 53.15 246.47 54.11 243.9 59.83 242.61 60.88 238.87 59.39 236.95 56.8 234.62 58.35 230.36 60.12 227.01 60.4 223.27 60.05 219.02 60.43 214.38 61.4 205.82 61.3 201.42 61 196.11 62.24 194.15 63.15 194.28 65.27 191.21 63.67 184.88 64.8 181.08 66.27 176.8 67.21 174.14 68.34 172.85 70 172.64 74.35 170.38 75.21 167.75 75.19 163.56 76.03 155.84 75.56 148.63 76.92 146.97 78.02 146.63 80.31 143.46 82.58 139.46 83.26 133.76 82.63 132.43 81.67 125.89 80.88 117.59 80.66 111.61 81.77 107.22 83.37 Z" id="level=district;display_name=Ысык-Көл району"/>
<path d="M 664.06 76.04 658.63 76.6 655.44 76.4 654.04 75.52 647.17 75.92 645.88 77.46 639.45 78 637.35 79.09 632.69 80.23 628.99 79.96 626.68 79.22 622.44 82.46 620.11 81.91 620.46 77.81 618.66 74.92 611.96 73.9 608.71 72.65 606.41 68.73 605.98 66.08 603.76 62.37 604.53 59.92 603.22 50.12 600.91 47.16 600.44 42.64 595.54 38.8 589.62 37.41 588.21 36.56 583.54 35.85 580.01 34.78 577.32 35.44 574.58 36.92 574.15 38.35 571.17 38.53 567.72 41 565.98 44.73 562.76 43.94 553.22 43.29 551.72 43.8 544.5 44.2 538.24 45.29 536.4 46.08 533.75 45.81 529.74 47.88 523.28 47.32 521.82 46.75 517.45 46.83 515.31 44.79 510.85 45.94 506.66 48.3 503.56 48.12 498.25 48.64 497.09 47.79 488.97 47.5 485.05 48.34 478.53 48.22 475.08 48.65 476.09 55.39 474.42 55.47 476.24 61.79 472.63 60.36 469.7 59.99 465.33 60.84 464.09 59.74 459.06 61.2 458.02 62.37 454.06 62.78 447.69 61.55 445.46 61.99 439.1 61.03 429.86 61.38 424.35 58.54 423.76 55.3 425.95 52.07 431.15 49.31 432.13 47.09 433.72 46.56 435.88 47.42 438.8 46 439.95 44.48 442.62 43.57 442.78 41.57 444.13 38.73 448.29 38.43 451.69 37.42 457.96 42.54 458.37 41.55 454.14 38.28 457.05 38.29 457.68 35.68 461.38 35.88 462.08 34.17 458.2 33.93 454.1 35.45 450.23 35.52 448.45 33.8 442.22 36.75 435.37 36.14 434.03 35.54 427.55 38.39 420.28 38.03 414.69 39.64 414.04 40.29 408.62 40.09 403.75 38.44 402.06 38.72 401.82 36.5 404.77 36.39 404.68 31.56 402.35 28.73 402.51 26.07 403.83 22.41 403 20.93 405.51 17.8 405.78 16.41 411.7 14.36 411.81 12.98 415.67 14.06 417.52 13.92 421.28 16.92 423.54 16.29 427.59 16.6 430.2 14.25 437.46 15.25 441.28 14.78 442.74 13.8 443.21 11.67 445.86 11.01 448.93 13.16 450.24 11.87 454.38 12.75 456.21 12.48 464.85 15.31 472.39 15.67 474.49 14.26 475.82 10.18 477.32 9.76 479.95 11.36 482.9 11.87 487.07 11.39 488.34 10.02 490.58 10.21 492.32 8.49 494.56 9.12 497.02 7.76 499.27 9.3 502.13 9.8 504.87 11.18 505.75 13.25 511.56 14.35 512.7 16.26 514.83 17.06 518.11 15.75 520.21 17.2 523.13 17.9 524.21 20.61 527.01 22.68 532.27 22.71 534.91 20.73 537.81 21.34 539.22 22.66 542.53 21.98 546.19 22.65 548.31 25.17 550.24 23.75 555.76 24.44 559.68 26.16 562.08 25.15 568.6 27.26 573.36 29.75 579.75 28.43 583.11 29.45 589.45 29.25 590.53 31.78 593.14 31.75 595.33 29.54 597.51 29.34 601.88 27.54 603.93 28.4 611.47 26.06 620.22 24.49 619.3 28.63 615.4 33.1 615.14 37.61 617.15 41.56 617.13 43.1 623.14 50.32 627.37 53.41 629.3 53.98 632.63 56.31 637.4 56.57 640.96 59.7 645.71 59.68 651.15 63.55 651.83 66.03 654.91 68.73 659.24 71.16 660.71 74.84 664.06 76.04 Z" id="level=district;display_name=Түп району"/>
<path d="M 670.29 191.67 669.3 189.51 662.86 187.36 661.15 188.11 660.08 185.92 656.5 185.08 655.16 182.84 653.08 183.4 651.43 181.49 649.14 181.39 647.13 183.88 643.69 182.26 641.42 183.78 637.93 185.02 637.14 183.38 634.7 182.95 632.16 190.73 628.23 192.05 624.25 194.27 619.63 195.35 619.04 193.9 615.8 193.8 609.26 191.65 608.99 190.7 603.54 188.05 602.25 186.9 603 185.25 599.14 183.46 595.37 185.12 592.94 186.75 591.38 186.09 588.65 187.32 587.63 185.15 589.41 184.08 589.03 182.68 595.99 179.59 594.91 175.83 597.35 174.88 598.3 172.68 599.9 172.3 601.01 170.4 596.25 170.06 590.88 171.31 586.2 171.64 583.63 171.09 579.36 172.75 568.45 173.23 567.57 171.44 565.73 171.46 561.37 169.43 560.5 167.94 555.96 167.48 553.34 166.35 551.91 167.89 549.36 168.9 545.41 169.5 538.61 167.99 537.41 166.09 535.2 165.78 535.17 163.62 533.77 162.53 534.59 161.11 532.71 159.97 529.31 160.32 523.64 160.07 521.65 158.85 519.6 159.08 517.42 156.67 517.4 154.54 516.05 153.92 516.14 150.67 513.26 148.58 512.77 146.47 514.62 145.31 514.13 144.06 511.28 143.25 510.94 141.13 509.28 139.36 504.84 140.28 504.07 138.67 501.07 137.87 501.16 134.85 495.19 134.34 492.8 135.46 488.33 132.81 488.85 129.57 488.06 128.18 489.84 125.9 490.13 122.38 487.34 122.14 486.23 120.71 485.43 117.65 483.12 114.48 481.26 114.11 481.91 112.04 481.06 110.01 484.69 107.52 485.22 105.13 483.73 103.03 481.06 100.81 477.79 99.76 475.46 96.2 473.45 95.34 468.17 95.45 465.18 92.88 465.16 90.54 467.14 85.61 465.01 82.94 463.84 78.42 465.71 78.12 464.16 72.37 456.73 71.53 453.74 69.57 453.05 67.09 452.86 65.06 455.41 65.66 459.22 65.34 460.18 65.88 461.32 66.37 467.18 65.32 466.71 63.96 468.41 61.96 467.4 60.68 465.33 60.84 469.7 59.99 472.63 60.36 476.24 61.79 474.42 55.47 476.09 55.39 475.08 48.65 478.53 48.22 485.05 48.34 488.97 47.5 497.09 47.79 498.25 48.64 503.56 48.12 506.66 48.3 510.85 45.94 515.31 44.79 517.45 46.83 521.82 46.75 523.28 47.32 529.74 47.88 533.75 45.81 536.4 46.08 538.24 45.29 544.5 44.2 551.72 43.8 553.22 43.29 562.76 43.94 565.98 44.73 567.72 41 571.17 38.53 574.15 38.35 574.58 36.92 577.32 35.44 580.01 34.78 583.54 35.85 588.21 36.56 589.62 37.41 595.54 38.8 600.44 42.64 600.91 47.16 603.22 50.12 604.53 59.92 603.76 62.37 605.98 66.08 606.41 68.73 608.71 72.65 611.96 73.9 618.66 74.92 620.46 77.81 620.11 81.91 622.44 82.46 626.68 79.22 628.99 79.96 632.69 80.23 637.35 79.09 639.45 78 645.88 77.46 647.17 75.92 654.04 75.52 655.44 76.4 658.63 76.6 664.06 76.04 664.04 77.36 668.52 78.66 670.93 79.85 672.38 81.77 673.31 84.46 677.06 84.91 682.03 84.13 683.08 84.89 686.71 84.51 689.04 85.4 692.37 84.71 696.96 85.38 697.54 83.06 699.47 81.73 702.63 80.94 706.69 81.76 709.29 83 710.66 82.6 715.65 83.75 715.86 85.73 719.68 85.14 722.42 86.77 725.85 86.52 730.09 87.56 734.64 87 736.11 88.28 737.93 87.92 741.92 88.41 745.6 87.52 746.26 88.57 749.49 88.17 750.19 88.93 753.87 89.28 753.25 91.15 754.47 93.33 753.95 94.53 756.37 98.78 759.57 98.72 759.69 101.02 761.74 101.88 762.76 103.9 764.74 104.82 773.69 105.43 773.34 107.86 774.39 108.97 777.97 109.56 781.36 111.69 784.28 114.77 780.05 116.4 789.83 127.8 788.23 131.67 787.98 137.41 784.1 137.83 783.59 139.3 785.7 140.36 786.24 142.54 785.54 143.9 788.27 146.93 795.71 151.75 799 153.03 798.67 154.1 794.05 158.07 789.86 157.77 783.48 159.03 780.51 158.17 776.18 157.66 772.64 156.46 771.09 156.85 764.05 155.95 762.47 157.2 758.69 157.3 755.8 156.55 754.01 157.38 751.4 156.62 747.09 157.51 744.53 157.13 741.45 158.46 734.15 160.68 732.5 162.29 732.54 164.35 733.76 166.99 730.56 168.7 729.96 169.95 727.67 170.64 727.86 173.07 725.08 175.54 725.9 176.55 725.02 178.5 721.81 181.62 719.3 183.25 716.47 181.56 710.95 181.58 707.87 182.77 705.94 182.13 701.14 182.82 696.44 183.02 692.87 186.1 692.54 188.78 684.7 191.75 682.3 191.71 680.49 192.8 676.26 192.87 674.5 192.3 671.98 192.79 670.29 191.67 Z M 479.93 84.62 483.59 87.17 484.67 83.98 482.86 82.1 484.43 80.73 487.43 79.9 485.64 78.45 485.01 76.17 482.6 75.47 482.63 73.67 478.58 73.4 474.36 75.21 473.64 76.29 475.62 83.51 478.75 83.49 479.93 84.62 Z" fill-rule="evenodd" id="level=district;display_name=Ак-Суу району"/>
<path d="M 394.89 306.53 393.73 305.34 389.22 303.65 386.62 303.86 384.02 303.27 377.02 302.91 376.49 301.84 372.64 301.43 368.57 302.89 363.91 302.71 359.42 304.64 355.49 303.3 353.88 301.71 351.79 301.79 349.98 300.15 349.95 295.05 351.34 292.75 354.31 290.47 354.07 289.27 347.4 289.56 346.6 287.53 343.06 287.62 338.85 288.44 335.89 287.71 331.21 288.42 320.88 291.61 318.37 292.75 301.32 294.84 301.15 293.94 304.72 292.63 308.97 289.67 310.43 284.62 310.31 282.41 311.84 279.4 313.27 278.93 314.97 276.76 312.84 273.34 310.23 272.05 304.74 272.17 299.07 270.99 294.8 268.36 293.94 263.78 293.02 262.98 292.23 258.88 290.97 254.98 287.89 251.92 294.46 250.37 297.09 249.3 298.54 246.72 300.69 244.83 301.83 241.51 301.51 238.08 299.98 234.76 303.35 233.35 305.07 234.46 306.94 233 310.38 232.81 316.9 231.67 317.9 230.35 321.16 230.13 322.97 226.75 324.6 226.02 328.87 227.33 329.41 226.17 327.02 222.72 327.55 221.37 324.66 219.18 321.53 217.76 319.6 215.54 321.14 212.48 319.38 211.83 317.87 209.38 310.5 206.59 309.81 203.08 310.09 200.29 316.3 198.96 323 198.91 324.91 199.27 326.64 197.93 325.3 196.1 325.65 192.27 327.4 190.92 323.03 188.94 319.23 189.65 314.92 189.11 312.79 186.94 305.16 186.12 302.19 187.05 298.77 184.59 300.06 180.24 303.09 178.28 302.95 174.51 299.4 172.34 300.33 170.79 300.29 168.27 298.49 163.56 301.35 158.44 300.13 153.93 300.93 150.33 305.01 144.12 306.93 137.65 305.73 133.98 313.09 133.37 317.79 133.93 318.57 135.98 324.13 137.39 327.56 136.53 330.44 134.21 335.1 131.78 345.39 130.33 348.14 130.52 352.38 130.02 357.22 127.42 359.59 126.91 362.88 122.13 368.62 117.91 375.74 113.81 379.04 110.67 382.05 104.29 384.65 100.65 387.91 101.55 391.16 100.72 391.69 98.71 394.04 99.81 396.9 98.66 394.04 97.22 390.63 94.54 385.53 94.73 383.77 95.59 378.24 94.82 377.02 93.23 379.44 90.08 381.47 90.16 386.66 87.52 392.05 86.98 398.33 83.44 404.02 83.61 409.57 85.32 411.63 84.97 417.65 80.76 420.8 77.43 422.95 77.24 424.79 73.58 428.59 71.75 431.84 64.86 433.4 63.92 436.37 64.89 437.19 63.86 440.23 63.64 443.77 64.37 445.92 66.09 448.05 64.85 451.88 65.8 453.05 67.09 453.74 69.57 456.73 71.53 464.16 72.37 465.71 78.12 463.84 78.42 465.01 82.94 467.14 85.61 465.16 90.54 465.18 92.88 468.17 95.45 473.45 95.34 475.46 96.2 477.79 99.76 481.06 100.81 483.73 103.03 485.22 105.13 484.69 107.52 481.06 110.01 481.91 112.04 481.26 114.11 483.12 114.48 485.43 117.65 486.23 120.71 487.34 122.14 490.13 122.38 489.84 125.9 488.06 128.18 488.85 129.57 488.33 132.81 492.8 135.46 495.19 134.34 501.16 134.85 501.07 137.87 504.07 138.67 504.84 140.28 509.28 139.36 510.94 141.13 511.28 143.25 514.13 144.06 514.62 145.31 512.77 146.47 513.26 148.58 516.14 150.67 516.05 153.92 517.4 154.54 517.42 156.67 519.6 159.08 521.65 158.85 523.64 160.07 529.31 160.32 532.71 159.97 534.59 161.11 533.77 162.53 535.17 163.62 535.2 165.78 537.41 166.09 538.61 167.99 545.41 169.5 549.36 168.9 551.91 167.89 553.34 166.35 555.96 167.48 560.5 167.94 561.37 169.43 565.73 171.46 567.57 171.44 568.45 173.23 579.36 172.75 583.63 171.09 586.2 171.64 590.88 171.31 596.25 170.06 601.01 170.4 599.9 172.3 598.3 172.68 597.35 174.88 594.91 175.83 595.99 179.59 589.03 182.68 589.41 184.08 587.63 185.15 588.65 187.32 591.38 186.09 592.94 186.75 595.37 185.12 599.14 183.46 603 185.25 602.25 186.9 603.54 188.05 608.99 190.7 609.26 191.65 615.8 193.8 619.04 193.9 619.63 195.35 624.25 194.27 628.23 192.05 632.16 190.73 634.7 182.95 637.14 183.38 637.93 185.02 641.42 183.78 643.69 182.26 647.13 183.88 649.14 181.39 651.43 181.49 653.08 183.4 655.16 182.84 656.5 185.08 660.08 185.92 661.15 188.11 662.86 187.36 669.3 189.51 670.29 191.67 666.91 190.18 661.21 191.91 656.7 192.2 652.37 196.62 649.44 197.87 645.8 200.41 643.6 198.21 641.62 197.42 639.17 200.12 636.51 200.98 633.12 205.16 628.66 206.73 628.74 208.83 625.94 209.1 625.4 210.47 623.17 212.15 619.63 212.65 613.84 211.69 609.76 213.03 607.04 212.79 605.59 215.64 602.47 216.51 599.94 218.46 595.74 218.64 592.96 220.27 590.41 220.23 590.61 221.85 588.36 224.23 586.16 224.16 583.82 223.05 579.04 225.41 575.16 226.32 571.89 229.97 569.15 231.86 566.38 232.4 565.18 234.93 563.68 235.44 561.38 234.57 559.65 235.94 559.67 237.66 556.44 239.08 554.79 239.1 553.27 241.3 550.3 241.29 549.14 240.39 546.19 241.38 541.65 241.71 539.86 242.61 537.52 241.94 533.56 243.44 531.52 246.12 533.78 247.59 531.88 249.67 529.6 249.85 526.77 251.64 525.45 254.62 523.59 256.88 519.32 255.54 515.77 257.11 513.19 256.9 512.31 254.88 508.42 255.57 504.28 259.67 503.24 262.03 500.68 261.83 499.63 263.23 495.01 264.22 489.62 266.62 487.7 265.9 485.19 266.13 481.91 267.27 479.16 267.5 479.49 268.92 477.88 270.37 469.92 269.78 467.27 272.23 465.12 270.69 461.75 270.33 459.81 270.92 454.05 269.89 452.99 268.83 449.29 269.57 444.37 269.99 438.65 272.06 436.82 274.55 438.84 279.09 435.47 283.92 435.65 288.45 434.69 288.77 434.24 294.73 434.69 295.76 432.56 298.92 429.64 299.74 427.31 299.31 423.56 300.98 420.99 301.28 415.2 304.89 410.82 305.02 406.69 306.9 405.36 305.66 396.1 306.16 394.89 306.53 Z" id="level=district;display_name=Жети-Өгүз району"/>
</g>
</svg>