<?xml version="1.0"?>
<svg xmlns="http://www.w3.org/2000/svg" version="1.2" baseProfile="tiny" width="800" height="235" viewBox="0 0 800 235" stroke-linecap="round" stroke-linejoin="round">
<g id="41705">
<path d="M 475.95 105.86 475.81 103.68 478.05 101.31 473.93 99.47 473.76 95.97 469.47 96.59 466.93 95.35 457.2 95.45 463.62 91.77 464.42 88.02 460.26 85.49 467.72 84.58 471.22 80.66 473.77 75.54 468.94 76.69 467.8 77.85 457.79 78.3 456.19 80.26 451.91 79.79 452.4 76.14 448.46 70.98 448.12 65.27 445.26 63.41 445.4 57.52 443.81 55.47 441.91 48.04 439.35 44.35 435.16 40.43 433.08 33.74 431.36 30.93 431.04 27.59 433.19 25.17 434.17 21.67 432.23 21.37 433.18 18.42 431.87 14.82 442.14 12.56 449.41 6.31 454.28 3.06 459.93 3.54 476.93 1.7 483.5 3.15 484.77 4.43 490.1 1 496.65 4.12 494.79 5.36 498.45 9.58 502.35 7.25 505.44 8.38 513.3 7.03 516.38 10.03 518.42 9.38 524.26 13.76 527.64 15.5 540.21 17.73 543.11 16.53 547.98 19.35 548.33 28.42 558.77 31.49 568.09 32.95 573.49 34.34 576.2 32.16 574.32 26.77 574.41 19.62 577.23 20.17 582.39 18.6 586.1 18.68 589.23 20.25 589.26 22.16 593.56 25.18 594.07 27.25 592.46 29.94 594.85 33.98 592.12 34.7 592.74 37.51 591.27 39.05 594.27 41.3 597.6 41.49 599.65 44.24 599.48 47.56 605.23 42.35 610.59 39.28 614.59 35.22 618.32 33.92 621.84 34.88 625.68 34.7 625.18 25.96 627.8 23.17 638.83 20.73 642.71 22.01 647.78 22.62 649.4 25.59 652.48 26.78 657.94 26.03 654.56 22.28 661.69 22.19 664.49 19.32 667.98 17.5 672.87 19.28 679.64 16.78 679.09 14.66 681.87 12.91 692.22 12.09 701.84 9.93 704.36 8.57 711.18 6.83 714.47 6.97 715.35 16.87 717.77 20.41 718.32 23.35 721.13 23.26 721.43 26.79 709.03 30.97 709.93 33.85 716.26 36.64 723.92 36.96 732.89 39.84 734.96 42.64 733.27 47.2 734.02 49.78 737.36 49.47 739.23 51.06 740.73 54.94 741.8 61.84 740.49 63.49 736.02 65.15 732.31 68.08 733.37 71.49 736.95 73.74 739.58 74.03 737.28 77.17 738.01 79 734.01 83.26 736.71 90.91 742.59 93.46 744.62 92.49 755.23 93.93 757.72 96.97 756.73 100.09 758.93 102.6 758.79 105.84 760.86 106.5 762.19 109.67 765.75 111.24 762.72 113.43 764.17 116.57 768.9 117.18 772.28 115 775.45 114.71 779.81 110.85 784.94 111.88 785.74 115.53 784.47 117.49 788.32 123.83 793.01 124.17 794.2 128.81 797.12 131.78 799 132.2 798.7 136.68 795.71 137.45 793.85 142.38 791.93 142.32 787.69 145.73 785.39 148.98 781.17 149.03 780.58 150.91 775.81 153.98 771.93 152.89 767.16 155.95 763.68 156.9 761.95 155.01 757.76 157.8 755.31 157.43 749.68 163.88 747.71 162.88 740.2 163.48 737.17 164.83 735.98 167.53 729.5 168.2 724.49 165.7 723.61 167.24 709.17 163.1 701.47 165 698.04 164.75 696.02 168.09 691.35 168.32 688.17 170.47 686.07 165.03 680.5 165.12 676.17 167.15 667.04 164.08 668.75 162.23 661.07 160.29 657.83 160.59 654.38 157.92 647.43 157.9 644.32 156.79 642.26 158.37 637.59 159.46 633.24 156.02 629.36 154.26 626.9 154.63 623.15 151.86 624.43 146.93 621.38 144.22 618.22 145.82 615.1 144.64 609.86 145.6 600.02 144.3 597.92 142.37 591.6 142.38 588.29 143.15 587.17 146.15 580.64 150.3 576.69 151.02 572.52 150.73 569.44 152.06 565.96 150.92 564.48 152.53 559.38 153.81 560.44 155.63 558.41 159.95 554.39 161.9 550.88 158.84 543.27 156.85 541.91 153.39 535.26 153.78 523.95 152.61 521.93 153.71 516.89 152.77 515.76 154.4 511.86 154.44 509.59 156.34 503.94 157.1 497.19 150.85 491.72 147.75 493.01 144.11 488.94 140.66 487.75 137.25 489.13 135.02 479.73 129.17 478.18 124.03 479.39 122.35 478.35 119.62 482.96 116.1 481.92 111.87 475.95 105.86 Z M 622.74 84.75 617.25 84.22 612.98 86.54 611.95 88.62 608.17 90.37 596.05 90.49 600.7 98.35 604.9 98.25 607.31 100.14 612.2 96.75 612.78 93.92 615.91 92.87 617.65 94.75 624.68 95.3 629.29 97.7 629.9 94.23 631.61 92.13 632.56 88.5 623.07 87.27 622.74 84.75 Z" fill-rule="evenodd" id="level=district;display_name=Кадамжай району"/>
<path d="M 267.08 64.92 260.09 66.52 252.56 69.95 244.23 71.65 243.11 73.3 245.58 79.33 242.77 81.79 236.55 82.85 231.99 87.22 227.45 88.76 225.34 92.34 219.38 92.74 216.29 91.57 212.19 93.46 212.42 94.97 202.65 97 202.24 97.7 211.78 113.7 215.71 116.58 216.17 122.77 220.86 125.29 223.54 124.77 235.61 124.57 237.38 127.66 237.77 131.23 244.09 131.62 245.23 133.92 241.36 137.13 237.39 139.03 237.77 141.84 232.58 145.41 233.15 147.18 231.18 151.22 225.96 150.98 222.49 154.21 212.46 157.35 211.27 161.32 209.37 162.64 209.03 165.44 204.45 167.18 204.36 168.87 208.78 171.75 206.91 175.5 209.42 182.79 208.51 184.43 205.34 184.99 202.11 187.42 199.32 187.81 196.53 190.82 193.03 189.11 189.34 189.05 187.6 193.86 183.47 196.04 178.77 197.52 177.03 195.23 177.32 192.35 175.02 190.19 166.99 190.76 164.12 190.25 161.37 187.47 155 188.86 155.35 192.48 151.95 195.18 152.98 196.18 147.83 199.41 144.14 195.41 141.34 194.89 138.83 192.78 134.81 192.25 133.62 189.89 130.55 189.26 129.6 187.39 117.8 185.17 116.33 183.42 110.31 183.64 106.49 182.11 102.26 184.54 101.35 186.92 93.18 186.8 89.74 183.76 87.98 184.7 83.07 183.99 83.13 186.44 79.29 187.72 76.24 193.46 71.3 192.43 68.88 196.27 63.98 195.73 62.42 197.2 57.04 196.69 54.76 200.14 50.9 196.87 45.21 199.55 39.56 196.65 33.08 192.54 29.31 199.84 24.92 201.57 19.12 196.36 23.11 189.63 22.56 188.02 23.88 182.95 19.23 181.88 20.32 177.96 19.88 175.65 17.61 175 16.41 168.17 14.01 164.79 15.36 160.64 18.53 158.38 15.94 152.75 12.06 149.74 6.88 144.3 7.34 141.48 4.46 135.82 4.66 132.62 1 131.88 2.16 127.08 5.98 126.32 5.22 124.56 10.42 121.94 9.52 118.13 10.75 115.39 13.41 116.09 16.16 114.6 12.67 111.05 8.77 104.02 12.09 100.12 13.79 96.87 17.25 96.53 20.3 92.35 23.56 91.57 23.93 87.09 20.96 80.36 24.41 79.98 27.1 85.64 30.85 86.18 32.58 84.04 37.14 86.34 41.65 87.51 40.71 89.34 42.36 91.43 41.48 93.39 42.31 97.13 40.46 101.84 41.31 103.6 45.53 100.1 47.85 100.49 48.38 104.46 50.01 104.74 53.39 101.73 58.85 101.67 57.78 98.84 62.47 98.36 65.36 99.52 68.48 98.94 64.57 92.08 65.76 86.04 60.29 77.79 59.95 76.42 64.21 69.9 63.63 67.27 61.21 64.65 64.26 61.65 70.79 61.25 76.34 59.48 79.73 60.47 81.66 58.35 88.6 56.13 94.89 54.78 100.08 54.78 103.19 55.61 107.12 52.67 116.65 46.55 118.89 42.96 120.89 41.78 126.45 40.63 131.26 40.38 135.67 38.92 151.25 35.82 156.8 34.38 169.85 32.66 173.69 30.4 179.23 29.49 181.16 28.04 184.32 28.4 187.78 30.25 187.64 33.71 190.76 34 209.88 42.54 218.86 48 222.64 49.84 230.29 52.46 238.68 54.47 244.6 54.48 251.05 53.16 253.39 55.04 260.78 57.54 265.57 59.79 267.08 64.92 Z M 75.17 97.66 72.33 98.94 72.11 102.31 77.76 103.31 99.95 105.55 100.81 104.02 97.78 101.71 75.17 97.66 Z" fill-rule="evenodd" id="level=district;display_name=Лейлек району"/>
<path d="M 554.39 161.9 553.87 165.1 551.26 166.71 550.46 172.74 548.29 175.85 544.92 177.02 546.05 179.39 543.18 180.77 539.36 180.55 534.71 181.81 535.57 184.77 531.24 186.61 527.33 186.02 523.87 189.13 519.37 189.08 514.85 187.7 506.11 189.8 503.17 197.71 497.73 200.16 495.27 203.05 492.97 202.56 489.62 198.73 487.4 194.14 483.89 193.55 481.03 196.94 477.08 199.59 473.27 201.07 470.01 204.26 458.03 203.4 454.68 201.99 447.06 201.81 447.03 206.44 444.5 208.33 442.86 213.25 443.6 218.87 441.9 220.13 441.03 224.68 438.58 226.27 437.63 228.58 434.19 227.69 428.3 230.5 420.37 226.92 414.36 226.54 409.68 224.8 408.14 228.2 405.17 232.1 402.38 233.25 400.09 232.25 396.87 227.86 389.35 229.39 388.55 231.83 384.76 232.13 381.93 233.52 374.29 232.09 372.66 230.46 366.64 229.79 363.61 225.39 362.57 222.29 366.17 219.07 366.33 214.61 363.45 209.73 357.26 205.65 354.17 205.3 348.74 201.71 346.73 198.58 346.46 194.89 343.94 191.58 339.79 188.98 337.96 185.77 332.91 185.51 329.77 184.39 326.83 185.44 319.78 182.77 316.6 182.72 315.46 178.92 313.63 179.5 307.49 176.86 304.83 180.07 301.01 180.33 297.58 181.66 293.06 186.13 287.78 181.3 285.06 183.91 283.13 188.18 279.21 188.06 273.42 185.82 271.86 183.15 267.68 184.92 266.98 188.27 262.67 190.92 260.39 190.94 260.04 193.73 253.28 199.96 246.37 199.79 240.08 197.28 238.46 193.68 239.35 191.94 234.58 190.42 230.58 187.14 226.83 190.76 222.73 193.35 216.3 191.88 211.28 185.76 208.51 184.43 209.42 182.79 206.91 175.5 208.78 171.75 204.36 168.87 204.45 167.18 209.03 165.44 209.37 162.64 211.27 161.32 212.46 157.35 222.49 154.21 225.96 150.98 231.18 151.22 233.15 147.18 232.58 145.41 237.77 141.84 237.39 139.03 241.36 137.13 245.23 133.92 244.09 131.62 237.77 131.23 237.38 127.66 235.61 124.57 223.54 124.77 220.86 125.29 216.17 122.77 215.71 116.58 211.78 113.7 202.24 97.7 202.65 97 212.42 94.97 212.19 93.46 216.29 91.57 219.38 92.74 225.34 92.34 227.45 88.76 231.99 87.22 236.55 82.85 242.77 81.79 245.58 79.33 243.11 73.3 244.23 71.65 252.56 69.95 260.09 66.52 267.08 64.92 273.69 64.91 279.09 66.36 282.15 68.17 281.6 69.84 286.94 71.75 293.09 70.66 296.92 71.91 303.91 72.17 305.53 73.36 305.03 76.53 307.67 78.37 312.65 75.9 315.29 78.31 318.28 79.14 321.48 84.05 320.01 86.28 315.57 86.13 313.67 87.05 313.08 89.74 304.68 93.29 307.89 96.54 310.67 95.69 313.1 97.24 317.73 95.72 325.92 91.86 331.16 88.18 330.49 84.16 332.54 81.87 336.58 79.53 334.44 76.03 334.71 72.03 333.26 70.05 341.24 70.54 339.91 60.23 346.44 58.71 350.59 58.8 364.03 56.17 366.66 56.48 371.09 53.87 371.77 50.25 374.67 48.75 375.49 42.72 382.99 42.38 384.16 44.51 386.69 44.39 391.46 42.47 396.56 38.59 412.71 33.52 419.72 30.48 417.76 22.07 413.91 19.51 413.49 15.22 416.71 14.4 419.69 15.03 428.03 12.56 431.87 14.82 433.18 18.42 432.23 21.37 429.26 25.64 431.04 27.59 431.36 30.93 433.08 33.74 435.16 40.43 430.51 41.3 423.53 39.76 425.52 44.45 428.12 55.4 427 62 424.65 64.74 425.49 71.24 426.75 74.25 434.84 79.1 439.46 78.6 448.74 79.92 451.32 83.27 445.34 87.01 447.87 89.18 447.35 91.3 450.2 92.62 450.52 94.95 445.49 97.03 442.86 100.41 442.01 104.66 439.23 104.9 437.08 107.42 437.64 109.45 445.86 109.05 447.19 106.54 452.66 103.48 456.32 107.04 454.83 109.56 455.18 112.39 459.17 111.8 463.05 112.29 466.11 110.05 471.26 109.7 471.77 105.82 475.95 105.86 481.92 111.87 482.96 116.1 478.35 119.62 479.39 122.35 478.18 124.03 479.73 129.17 489.13 135.02 487.75 137.25 488.94 140.66 493.01 144.11 491.72 147.75 497.19 150.85 503.94 157.1 509.59 156.34 511.86 154.44 515.76 154.4 516.89 152.77 521.93 153.71 523.95 152.61 535.26 153.78 541.91 153.39 543.27 156.85 550.88 158.84 554.39 161.9 Z M 354.27 125.99 359.45 124.21 359.6 120.28 360.94 118.88 359.77 114.46 356.47 115.37 352.04 115.33 350.44 116.4 346.35 115.74 340.9 116.93 331.79 115.17 327.76 115.87 320.32 114.28 311.96 111.57 309.87 113.33 304.79 115.42 303.75 113.59 300.29 115.69 307.02 119.84 308.25 123.73 312.06 124.77 311.99 126.6 317.1 128.76 315.54 130.57 323.57 138.38 331.7 139.15 337.58 137.14 340.99 132.52 351.74 126.65 354.27 125.99 Z M 390.22 76.4 392.55 72.1 391.34 71 383.17 69.79 385.29 66.35 380.36 65.17 381.49 62.25 376.75 61.53 372.9 65.09 375.06 66.88 375.21 70.25 370.77 74.57 375.28 78.08 377.09 77.17 382.53 77.06 387.33 77.8 390.22 76.4 Z M 305 95.13 301.66 95.4 298.8 99.18 298.89 101.35 301.81 101.76 305 95.13 Z" fill-rule="evenodd" id="level=district;display_name=Баткен району"/>
<path d="M 75.17 97.66 97.78 101.71 100.81 104.02 99.95 105.55 77.76 103.31 72.11 102.31 72.33 98.94 75.17 97.66 Z" id="level=district;display_name=Сүлүктү шаары"/>
<path d="M 390.22 76.4 387.33 77.8 382.53 77.06 377.09 77.17 375.28 78.08 370.77 74.57 375.21 70.25 375.06 66.88 372.9 65.09 376.75 61.53 381.49 62.25 380.36 65.17 385.29 66.35 383.17 69.79 391.34 71 392.55 72.1 390.22 76.4 Z" id="level=district;display_name=Баткен"/>
<path d="M 684.17 19.03 684.74 18.16 690.62 18.87 699.6 16.08 702.7 20.55 706.22 20.69 706.87 23.7 704.78 27.56 701.91 28.38 697.33 26.15 694.93 25.95 691.91 28.15 688.43 26.87 689.91 22.41 689.1 20.75 684.13 20.61 684.17 19.03 Z" id="level=district;display_name=Кызыл-Кыя шаары"/>
</g>
</svg>