<?xml version="1.0"?>
<svg xmlns="http://www.w3.org/2000/svg" version="1.2" baseProfile="tiny" width="800" height="415" viewBox="0 0 800 415" stroke-linecap="round" stroke-linejoin="round">
<g id="41704">
<path d="M 133.25 46.8 137.33 44.63 139.63 45.13 141.47 44.22 148.05 45.07 151.18 44.82 156.13 43.2 158.29 43.45 162.68 42.38 165.48 43.04 167.52 41.96 171.98 41.79 176.34 40.41 177.7 41.04 181.64 40.68 185.76 41.85 188.98 42.36 190.38 46.23 194.57 45.27 200.03 45.47 202.43 44.92 204.55 48.03 207.96 50.53 212.81 48.4 217.59 51.07 219.64 51.07 221.08 52.66 223.08 51.99 224.51 50.07 230.06 46.33 234.34 47.59 236.74 46.94 238.48 44.55 241.56 44.28 248.39 44.85 249.73 45.47 253.98 45.34 256.79 46.48 264.33 47.79 266.35 47.31 268.41 49.17 267.34 53.75 264.76 55.54 262.19 59 260.68 58.99 258.08 56.97 255.57 58.39 257.34 60.47 257.06 62.88 258.2 64.6 256.27 67.33 258.58 69.2 265.3 67.03 268.48 69.38 274.83 69.06 269.42 73.11 268.42 75.34 268.52 79.49 267.5 83.07 271.49 83.92 273.68 86.42 277.8 87.72 280.29 87.69 280.4 93.71 267.4 94.52 264.62 95.58 262.72 94.77 263.33 102.98 261.68 130.11 261.05 130.59 255.61 132.9 254.52 134.71 251.88 135.05 247.53 137.04 246.34 140.35 244.3 143 239.42 143.39 235.69 145.49 234.36 144.25 230.47 143.66 228.43 144.75 221.4 145 219.01 144.61 214.23 149.11 206.34 152.33 204.42 150.76 197.01 153.18 193.76 155.12 192.65 155.6 186.5 155.87 182.45 156.57 180.41 159.37 174.67 159.15 171.73 161.26 166.51 160.11 160.36 163.08 157.79 165.23 155.59 169.14 152.63 166.91 150.65 166.65 148.54 167.83 143.92 166.64 138.58 167.39 137.48 170.57 135.6 171.78 129.33 170.18 125.51 172.03 122.28 170.29 109.84 170.13 106.69 169.31 103.72 169.8 103.15 170.97 98.92 169.58 92.41 172.89 89.59 172.48 85.14 168.92 78.68 167.03 76.49 168.21 73.59 167.25 71.26 168.42 64.76 167.92 60.49 166.58 58.74 164.67 55.85 163.49 53.29 160.97 51.58 158.03 52.1 156.59 46.61 152.51 44.1 152.07 39.28 153.51 36.02 147.29 34.69 147.02 34.49 143.03 41.68 143.26 43.56 144.95 48.45 145.49 51.38 147.04 55.17 146.61 58.73 147.88 63.48 151.53 63.9 154.45 63.11 156.28 60.93 157.71 63.68 160.86 65.71 161.53 70.65 160.16 70.89 157.61 70.31 152.54 70.68 148.13 70.17 144.21 71.39 142.36 71.71 139.16 69.38 139.47 65.66 137.69 58.65 138.34 51.21 136.39 52.92 133.96 51.82 132.1 49.83 131.16 49.87 129.1 48.5 126.88 48.54 123.62 49.9 120.93 45.56 116.81 42.84 115.59 39.73 116.86 36.9 116.29 34.41 117.88 31.96 116.32 27.9 116.97 18.39 111.03 18.64 113.91 17.52 115.81 13.35 115.98 11.94 114.68 6.63 112.54 1 111.98 1.7 109.31 4.42 109.73 6.47 107.97 6.33 105.67 10.25 104.06 10.71 101.52 14.88 96.83 16.12 97.43 23.11 96.23 28.35 96.28 29.85 96.95 33.76 96.83 34.74 95.84 41.68 95.43 46.33 90.7 49.2 90.51 51.68 93.91 56.29 95.9 56.96 96.83 60.9 98.1 63.06 101.13 66.62 104.11 67.39 105.58 70.05 104.51 75.21 103.5 78.95 101.11 80.4 101.7 80.46 104.76 77.8 110.19 77.02 114.75 79.12 116.86 81.21 114.81 80.82 109.99 85.52 103.83 90.31 101.3 92.25 102.07 95.17 101.74 102.51 103.71 104.14 102.02 106.73 101.07 107.73 98.5 106.29 95.48 107.32 92.95 111.26 89.35 112.73 87.31 116.11 85.62 115.47 83.97 117.48 78.99 122.43 77.96 123.36 76.94 122.22 74.89 122.12 71.36 123.44 69.81 127.38 68.87 126.19 66.88 130.56 63.58 127.51 61.11 123.76 58.98 125.32 57.21 129.78 54.05 131.74 50.02 131.55 48.29 133.25 46.8 Z" id="level=district;display_name=Жумгал району"/>
<path d="M 252.41 5.74 254.76 7.19 256.8 6.67 261.22 7.04 266.8 3.08 269.56 2.48 274.92 5.84 279.86 6.12 282.42 4.25 286.16 5.18 290.35 5.03 294.96 7.73 299.48 7.58 304.43 5.54 308.54 4.77 312.44 5.01 315.78 2.14 317.7 1.35 322.51 5.79 324.23 6.22 327.15 4.01 330.76 5.34 334.59 4.14 339.5 4.1 343.9 1 345.99 2.77 345.41 4.95 347.01 6.28 350.41 5.81 351.25 6.98 357.05 6.68 358.25 5.01 363.86 4.24 364.84 2.38 367.08 1.69 368.22 2.31 370.67 4.9 374.94 5.67 376.73 6.94 378.82 6.24 385.46 8.84 389.13 11.44 393.51 10.23 396.65 10.45 397.83 11.9 395.99 14.16 397.93 19.39 402.61 18.41 408.5 18.85 412.54 18.46 414.46 17.06 416.07 13.41 416.45 10.65 418.01 9.98 423.67 12.18 431.69 12.9 432.97 15.17 431.06 22.81 431.21 25.11 433.56 25.8 432.77 27.47 433.21 34.17 437.19 40.13 436.56 46.21 443.11 49.16 447.16 52.11 446.71 55.81 455.25 59.27 458 59.87 460.73 62.87 458.87 65.54 458.24 68.52 455.46 70.54 456.37 73.73 453.44 76.38 448.7 75.99 448.31 78.15 445.02 79.32 443.92 84.09 450.05 85.08 455.16 83.76 461.23 83.11 463.49 82.14 465.47 83.18 468.58 82.94 469.69 81.19 473.73 78.85 477.16 81.4 479.45 80.9 481.9 82.39 484.53 82.64 487.71 84.51 489.5 83.51 491.73 85.01 495.31 85.48 497.64 84.16 502.86 85.59 506.06 85.36 510.07 87.05 510.53 88.83 515.92 89.78 519.33 89.44 522.16 90.74 525.56 90.35 526.07 89.29 530.6 90.33 535.16 92.72 539.61 93.09 540.41 95.95 549.74 97.15 549.66 98.93 552.38 100.73 554.94 101.12 558.85 98.35 560.98 101.11 561.38 103 558.72 105.93 555.27 107.92 554.5 113.46 550.9 115.72 548.18 115.95 543.28 114.41 538.45 115.64 527.86 114.53 522.54 119.17 520.87 123.5 520.84 125.33 516.46 124.89 513.53 122.87 506.79 123.57 498.22 121.38 498.35 119.65 495.99 117.18 492.92 116.51 485.42 112.89 480.19 112.38 478.84 113.11 476.26 112.02 470.33 114.26 465.3 114.13 462.27 114.99 456.34 115.58 455.21 116.77 451.58 116.28 448.9 118.65 444.3 117.99 441.16 118.62 437.77 117.55 436.19 118.26 428.51 117.11 425.11 115.17 424.88 113.93 418.87 112.4 416.36 110.77 412.93 110.82 409.12 112.58 405.86 113.25 405.27 114.28 390.93 114.56 390.02 115.71 385.19 118.49 383.79 121.11 381.82 120.71 375.96 117.46 373.67 117.81 371.66 116.38 363.5 114.4 361.27 112.58 359.72 113.28 353.07 110.78 348.38 115.28 348.39 117.06 346.46 122.08 340.3 126.92 339.57 127.96 334.25 132.06 333.65 135.32 332.38 136.29 329.6 135.27 326.99 135.59 324.39 133.75 321.02 132.39 317.83 132.8 316.83 130.78 314.32 129.23 309.9 127.95 305.46 128.32 301.55 126.61 297.51 126.56 293.66 128.15 286.47 129.27 281.52 128.13 277.19 128.27 273.53 129.65 270.63 132.89 265.58 132.32 261.05 130.59 261.68 130.11 263.33 102.98 262.72 94.77 264.62 95.58 267.4 94.52 280.4 93.71 280.29 87.69 277.8 87.72 273.68 86.42 271.49 83.92 267.5 83.07 268.52 79.49 268.42 75.34 269.42 73.11 274.83 69.06 268.48 69.38 265.3 67.03 258.58 69.2 256.27 67.33 258.2 64.6 257.06 62.88 257.34 60.47 255.57 58.39 258.08 56.97 260.68 58.99 262.19 59 264.76 55.54 267.34 53.75 268.41 49.17 266.35 47.31 264.33 47.79 256.79 46.48 253.98 45.34 249.73 45.47 248.39 44.85 241.56 44.28 238.48 44.55 236.74 46.94 234.34 47.59 230.06 46.33 224.51 50.07 223.08 51.99 221.08 52.66 219.64 51.07 217.59 51.07 212.81 48.4 207.96 50.53 204.55 48.03 202.43 44.92 200.03 45.47 194.57 45.27 190.38 46.23 188.98 42.36 185.76 41.85 187.88 38.42 188.28 35.43 191.47 35.43 194.52 33.47 195.79 30.75 200.72 31.53 204.65 30.12 205.54 28.75 208.11 29.55 212.5 29.63 214.83 28.84 216.07 30.05 219.1 29.09 222.06 26.3 221.22 24.3 219.28 24.38 213.7 16.05 211.97 14.55 210.4 11.26 207.76 8.96 208.16 7.27 211.08 6.28 216.26 5.99 217.96 6.56 222.69 4.73 225.37 6.24 229.4 4.87 234.32 4.75 237.76 6.25 242.37 6.07 242.92 4.91 246.83 3.9 247.09 2.44 250.99 2.96 252.41 5.74 Z" id="level=district;display_name=Кочкор району"/>
<path d="M 85.83 300.68 82.78 300.48 79.8 298.88 78.28 295.28 74.93 294.97 72.48 293.48 70.67 288.36 68.8 288.65 66.53 287.44 65.39 285.23 59.22 283.92 58.96 282.14 61.12 279.87 64.03 274.81 67.76 271.61 69.72 271.11 71.76 266.01 67.14 261.98 66.69 260.06 62.91 256.8 61.86 253.58 63.94 250.44 70.31 248.73 72.01 245.94 75.8 245.16 82.1 242.29 83.6 240.02 87.98 239.73 91.13 240.53 94.84 239.53 101.11 239.31 105.58 237.88 112.18 237.66 119.06 240.43 122.23 239.18 126.85 235.57 123.99 232.99 120.83 232.17 120.25 229.24 117.45 227.81 116.64 225.69 116.59 219.99 119.5 219.52 120.84 218.25 129.32 217.48 133.58 216.1 136.63 213.79 137.23 212.09 150.42 210.84 151.63 209.68 157.49 209.98 159.89 209.3 159.68 207.32 167.53 205.73 171.12 205.8 174.24 202.4 177.65 199.52 182.77 199.5 184.94 196.6 185.02 193.35 185.88 189.92 185.54 187.6 188.75 186.37 192.86 180.47 194.5 180.1 196.06 173.96 194.69 168.86 192.71 167.8 190.74 165.32 191.62 163.43 194.44 162.99 195.65 161.18 196.08 157.79 193.76 155.12 197.01 153.18 204.42 150.76 206.34 152.33 214.23 149.11 219.01 144.61 221.4 145 228.43 144.75 230.47 143.66 234.36 144.25 235.69 145.49 239.42 143.39 244.3 143 246.34 140.35 247.53 137.04 251.88 135.05 254.52 134.71 255.61 132.9 261.05 130.59 265.58 132.32 270.63 132.89 273.53 129.65 277.19 128.27 281.52 128.13 286.47 129.27 293.66 128.15 293.5 129.45 295.19 134.15 295.09 136.15 293.39 142.02 295 145.85 294.46 148.98 295.51 152.77 299.67 156.12 300.29 158.39 302.32 159.37 306 159.87 306.97 164.91 308.39 166.93 307.34 170.19 306.06 171.74 305.1 175.66 303.29 179.14 304.41 181.62 300.76 185.96 299.03 186.74 299.77 189.44 297.1 190.65 293.72 193.35 291.48 192.77 287.83 192.97 283.92 194.25 281.51 196.26 281.15 201.87 279.55 202.02 278.15 205.82 280.86 209.25 280.44 213.69 279.07 218.18 279.1 220.81 280.57 223.19 285.25 226.22 288.41 231.32 288.47 232.79 291.84 237.34 294.62 239.43 295.47 245.05 302.09 245.8 305.41 248.13 308.16 248.44 310.42 249.68 311.71 255.15 311.37 258.09 309.96 259.1 309.31 262.19 307.32 266.32 304.84 267.56 298.02 267.28 296.84 267.99 292.1 267.56 285.65 270.8 282.88 273 279.17 274.11 277.04 272.99 274.99 274.01 274.43 276.01 276.59 279.25 277.55 283.93 273.51 286.2 270.22 287.1 266.59 288.93 261.79 288.33 257.71 288.56 253.76 290.11 251.76 289.63 242.03 289.91 230.87 287.57 229.04 288.44 226.16 288.14 223.35 289.7 222.03 291.57 219.91 292.09 213.97 295.05 210.49 295.73 208.42 300.49 203.79 300.2 202.16 299.25 196.23 298.87 190.17 295.27 185.11 296.58 177.23 295.93 172.21 294.49 167.18 293.83 163.26 295.84 160.99 295.03 158.65 296.01 156.72 294.13 153.44 293.23 148.26 294.45 143.61 293.72 140.85 293.91 136.04 292.92 131.12 298.43 128.45 297.66 127.65 295.39 121.28 297.25 119.81 298.81 114.77 299.77 106.84 299.14 106.6 295.89 100.43 293.35 96.02 294.27 93.05 293.45 89.42 299.9 85.83 300.68 Z" id="level=district;display_name=Ак-Талаа району"/>
<path d="M 438.17 197.1 435.54 196.57 430.47 197.54 427.47 196.44 423.58 196.53 421.67 195.88 418.01 196.13 416.71 195.14 421.47 193.84 425.09 194.43 429.61 195.89 432.65 195.69 436.31 194.52 437.14 195.15 442.69 194.84 444.95 195.9 442.17 197.36 438.17 197.1 Z" id="level=district;display_name=Нарын шаары"/>
<path d="M 695.2 163.86 696.87 167.5 697.22 171.24 695.97 174.88 693.63 176.95 692.04 179.76 689.16 180.93 681.98 182.63 685.34 185.98 686.72 190.25 687.58 194.73 688.59 195.61 689.53 200.61 694.2 203.49 687.32 204.73 685.59 205.54 680.68 205.71 676.65 207.15 670.46 206.28 667.24 207.51 665.32 210.99 663.32 210.89 658.43 215.76 652.89 215.51 650.78 216.31 645.88 216.38 643.45 213.54 642.65 211.49 636.01 209.31 633.94 209.93 635.9 203.87 631.9 202.97 627.84 203.09 625.96 201.76 625.39 199.24 623.08 197.3 619.85 196.25 615.78 198.58 610.57 198.57 609.71 197.25 606.25 196.68 604.08 198.41 594.7 198.37 590.92 200.54 588.61 199.66 583.84 199.02 581.45 199.52 576.91 198.52 575.64 200.21 572.19 200.53 570.15 201.88 567.26 202.44 563.48 200.79 560.29 201.93 558.35 200.59 555.21 200.38 548.93 203.06 547.47 204.31 547.91 206.45 541.51 207.36 540.65 209.38 537.73 211.07 535.07 211.2 533.3 209.26 529.32 208.57 524.38 210.02 521.29 207.18 515.64 208.51 510.81 207.8 505.37 209.61 503.02 207.39 498.26 207.39 492.86 209.84 489.55 208.46 483.4 209.05 479.8 211.15 476.54 207.41 473.74 207.47 464.88 204.56 461.03 204.18 459.5 206.25 457.29 206.71 453.42 209.29 449.45 211.12 446.93 214.11 441.22 216.33 436.88 216.64 433.25 215.42 427.73 215.88 426.01 216.66 419.45 216.11 418.05 215.34 412.11 215.12 410.13 215.56 405.67 215.25 404.13 213.64 398.77 212.17 395.03 212.52 392.59 213.48 386.66 213.72 383.2 216.46 377.65 216.74 373.91 217.52 364.72 218.55 361.82 219.74 359.79 221.6 356.17 222.46 352.79 222.42 347.47 221.21 341.59 223.76 340.46 225.09 338.9 230.62 331.78 234.89 330.74 236.95 326.93 236.73 325.95 239.93 324.62 241.59 321.77 243.07 317.47 247.47 313.23 249.45 310.42 249.68 308.16 248.44 305.41 248.13 302.09 245.8 295.47 245.05 294.62 239.43 291.84 237.34 288.47 232.79 288.41 231.32 285.25 226.22 280.57 223.19 279.1 220.81 279.07 218.18 280.44 213.69 280.86 209.25 278.15 205.82 279.55 202.02 281.15 201.87 281.51 196.26 283.92 194.25 287.83 192.97 291.48 192.77 293.72 193.35 297.1 190.65 299.77 189.44 299.03 186.74 300.76 185.96 304.41 181.62 303.29 179.14 305.1 175.66 306.06 171.74 307.34 170.19 308.39 166.93 306.97 164.91 306 159.87 302.32 159.37 300.29 158.39 299.67 156.12 295.51 152.77 294.46 148.98 295 145.85 293.39 142.02 295.09 136.15 295.19 134.15 293.5 129.45 293.66 128.15 297.51 126.56 301.55 126.61 305.46 128.32 309.9 127.95 314.32 129.23 316.83 130.78 317.83 132.8 321.02 132.39 324.39 133.75 326.99 135.59 329.6 135.27 332.38 136.29 333.65 135.32 334.25 132.06 339.57 127.96 340.3 126.92 346.46 122.08 348.39 117.06 348.38 115.28 353.07 110.78 359.72 113.28 361.27 112.58 363.5 114.4 371.66 116.38 373.67 117.81 375.96 117.46 381.82 120.71 383.79 121.11 385.19 118.49 390.02 115.71 390.93 114.56 405.27 114.28 405.86 113.25 409.12 112.58 412.93 110.82 416.36 110.77 418.87 112.4 424.88 113.93 425.11 115.17 428.51 117.11 436.19 118.26 437.77 117.55 441.16 118.62 444.3 117.99 448.9 118.65 451.58 116.28 455.21 116.77 456.34 115.58 462.27 114.99 465.3 114.13 470.33 114.26 476.26 112.02 478.84 113.11 480.19 112.38 485.42 112.89 492.92 116.51 495.99 117.18 498.35 119.65 498.22 121.38 506.79 123.57 513.53 122.87 516.46 124.89 520.84 125.33 522.39 127.82 522.31 130.13 520.37 132.15 526.78 132.63 530.01 131.54 533.51 132.37 535.87 134.41 543.15 133.57 548.35 134.27 554.64 134.27 561.33 132.9 562.73 130.16 564.86 128.78 571.22 129.36 573.87 131.12 577.27 132.34 576.29 134.52 576.83 139.38 576.06 141.41 568.42 145.2 568.47 146.52 573.42 150.09 573.14 153.63 571.01 156.07 569.04 156.67 567.28 158.99 566.48 162.66 567.11 165.48 572.79 166.96 575.76 166.23 576.94 163.45 579.45 162.79 582.19 164.05 584.59 167.7 586.48 167.9 588.15 170.25 595.26 169.04 602.08 170.16 604.01 171.88 611.34 167.68 622.98 167.13 625.2 167.38 624.44 170.75 626.31 171.78 629.42 171.31 631.98 172.03 635.89 169.42 638.25 169.91 640.4 168.75 640.52 167.26 649.25 168.78 653.39 167.68 654.8 168.96 658.6 169.49 663.83 168.61 667.99 170.68 669.54 169.75 677.33 169.06 683.25 165.95 685.75 165.88 687.9 163.67 689.74 160.24 692.9 159.87 693.35 162.2 695.2 163.86 Z M 438.17 197.1 442.17 197.36 444.95 195.9 442.69 194.84 437.14 195.15 436.31 194.52 432.65 195.69 429.61 195.89 425.09 194.43 421.47 193.84 416.71 195.14 418.01 196.13 421.67 195.88 423.58 196.53 427.47 196.44 430.47 197.54 435.54 196.57 438.17 197.1 Z" fill-rule="evenodd" id="level=district;display_name=Нарын району"/>
<path d="M 215.25 368.32 213.47 366.56 211.62 366.59 207.15 365.18 206.03 367.32 202.97 370.82 200.28 369.89 196.36 369.9 194.41 368.32 190.15 368.42 185.87 369.47 183.9 367.72 180.06 365.69 175.68 365.77 172.9 363.72 167.82 363.92 166.75 362.46 161.9 363.68 163.37 360.24 163.9 357.3 165.78 355.93 166.56 353.71 161.57 348.39 157.52 348.34 155.34 346.66 153.77 346.98 151.17 345.14 149.15 345.67 145.86 343.29 142.34 345.15 141.05 343.85 131.37 339.18 129.45 339.63 124.7 336.76 123.51 335.5 119.05 333.92 115.75 330.67 114.21 328.4 114.49 326.93 112.53 325.75 109.49 322.63 107.12 323.35 102.87 319.57 102.51 316.69 100.62 313.99 95.36 314.85 92.98 313.16 92.27 310.06 92.96 308.2 91.38 305.73 88.96 304.48 88.32 302.53 85.83 300.68 89.42 299.9 93.05 293.45 96.02 294.27 100.43 293.35 106.6 295.89 106.84 299.14 114.77 299.77 119.81 298.81 121.28 297.25 127.65 295.39 128.45 297.66 131.12 298.43 136.04 292.92 140.85 293.91 143.61 293.72 148.26 294.45 153.44 293.23 156.72 294.13 158.65 296.01 160.99 295.03 163.26 295.84 167.18 293.83 172.21 294.49 177.23 295.93 185.11 296.58 190.17 295.27 196.23 298.87 202.16 299.25 203.79 300.2 208.42 300.49 210.49 295.73 213.97 295.05 219.91 292.09 222.03 291.57 223.35 289.7 226.16 288.14 229.04 288.44 230.87 287.57 242.03 289.91 251.76 289.63 253.76 290.11 257.71 288.56 261.79 288.33 266.59 288.93 270.22 287.1 273.51 286.2 277.55 283.93 276.59 279.25 274.43 276.01 274.99 274.01 277.04 272.99 279.17 274.11 282.88 273 285.65 270.8 292.1 267.56 296.84 267.99 298.02 267.28 304.84 267.56 307.32 266.32 309.31 262.19 309.96 259.1 311.37 258.09 311.71 255.15 310.42 249.68 313.23 249.45 317.47 247.47 321.77 243.07 324.62 241.59 325.95 239.93 326.93 236.73 330.74 236.95 331.78 234.89 338.9 230.62 340.46 225.09 341.59 223.76 347.47 221.21 352.79 222.42 356.17 222.46 359.79 221.6 361.82 219.74 364.72 218.55 373.91 217.52 377.65 216.74 383.2 216.46 386.66 213.72 392.59 213.48 395.03 212.52 398.77 212.17 404.13 213.64 405.67 215.25 410.13 215.56 412.11 215.12 418.05 215.34 419.45 216.11 426.01 216.66 427.73 215.88 433.25 215.42 436.88 216.64 441.22 216.33 446.93 214.11 449.45 211.12 453.42 209.29 457.29 206.71 459.5 206.25 461.03 204.18 464.88 204.56 473.74 207.47 476.54 207.41 479.8 211.15 483.4 209.05 489.55 208.46 492.86 209.84 498.26 207.39 503.02 207.39 505.37 209.61 510.81 207.8 515.64 208.51 521.29 207.18 524.38 210.02 529.32 208.57 533.3 209.26 535.07 211.2 537.73 211.07 540.65 209.38 541.51 207.36 547.91 206.45 547.47 204.31 548.93 203.06 555.21 200.38 558.35 200.59 560.29 201.93 563.48 200.79 567.26 202.44 570.15 201.88 572.19 200.53 575.64 200.21 576.91 198.52 581.45 199.52 583.84 199.02 588.61 199.66 590.92 200.54 594.7 198.37 604.08 198.41 606.25 196.68 609.71 197.25 610.57 198.57 615.78 198.58 619.85 196.25 623.08 197.3 625.39 199.24 625.96 201.76 627.84 203.09 631.9 202.97 635.9 203.87 633.94 209.93 636.01 209.31 642.65 211.49 643.45 213.54 645.88 216.38 650.78 216.31 652.89 215.51 658.43 215.76 663.32 210.89 665.32 210.99 667.24 207.51 670.46 206.28 676.65 207.15 680.68 205.71 685.59 205.54 687.32 204.73 694.2 203.49 700.4 204.78 706.41 204.65 709.26 206.06 711.59 209.8 709.73 212.17 708.17 212.69 706.5 215.98 706.62 218.4 705.02 223.92 700.38 227.16 696.48 228.59 696.66 229.58 715.31 227.29 718.05 226.04 729.35 222.55 734.47 221.77 737.71 222.57 742.31 221.68 746.18 221.57 747.06 223.79 754.35 223.48 754.62 224.79 751.36 227.29 749.84 229.8 749.88 235.38 751.86 237.18 754.14 237.09 755.9 238.82 760.21 240.29 765.11 238.18 770.21 238.37 774.66 236.78 778.87 237.23 779.46 238.4 787.11 238.79 789.95 239.44 792.8 239.21 797.72 241.06 799 242.36 795.21 243.66 793.1 246.02 785.02 248.74 781.89 251.39 779.91 253.99 779.33 258.26 779.96 262.1 783.67 266.21 782.08 268.76 778.22 268.08 774.96 271.74 775 273.19 772.39 274.52 765.93 271.62 765.12 273.19 757.5 276.71 752.53 276.89 749.84 274.6 746.12 276.76 743 275.56 737.83 278.5 734.38 278.15 731.63 276.47 729.56 277.43 726.7 276.94 724.1 277.92 717.67 278.14 715.69 277.63 716.17 273.26 711.41 273.65 708.16 273.37 702.56 270.83 699.18 271.96 697.29 269.68 685.9 273.9 685.57 275.6 679.4 277.09 676.74 276.5 675.25 274.5 672.87 274.62 672.84 272.25 670.32 271.52 668.31 272.47 662.12 272.9 661.7 275.4 653.85 273.53 653.2 272.35 649.12 272.18 645.78 270.14 647.08 268.12 643.93 266.86 643 265.34 639.96 265.99 634.44 265.37 632.95 266.28 629.19 266.15 627.02 263.86 619.83 266.22 619.07 268.53 615.32 271.52 608.41 274.04 606.43 274.03 603.56 272.1 601.24 273.21 600.47 275.04 597.76 278.02 598.79 281.77 592.38 281.72 587.88 283.35 587.28 284.87 584.58 284.8 581.58 286.3 579.26 288.46 579.96 289.87 577.15 292.81 575.39 296.17 576.86 297.55 577.17 300.99 573.23 307.35 573.59 311.54 570.96 315.15 570.11 317.75 566.98 319.67 563.58 318.71 563.57 320.35 558.25 322.67 558.17 324.99 559.67 327.73 559.36 329.55 563.44 333.49 564.51 335.53 561.01 338.23 561.71 341.21 559.69 344.25 560.96 349.32 557.73 350.98 552.83 351.43 551.43 352.77 551.71 355.22 549.92 357.57 545.69 359.64 541.51 363.82 541.35 366.28 537.69 370.82 539.23 371.7 538.31 374.81 538.94 377.4 537.3 379.77 532.75 382.96 532.31 386.46 527.97 386.39 527.06 388.11 522.91 389.43 521.59 392.69 520.15 393.61 514.43 394.17 512.94 395.66 509.51 396.16 508.79 393.67 506.16 394.02 503.59 398.23 501.1 401.12 496.63 398.34 498.75 394.02 496.42 392.66 495.87 390.37 492.48 390.52 489.53 389.16 490.89 385.97 488.33 384.12 486.34 386.82 484.3 388.09 480.46 388.96 479.8 390.87 477.39 392.29 473.42 393.61 471.76 395.38 468.46 395.13 463.49 393.74 461.45 392.07 459.15 392.2 454.54 393.64 449.54 392.44 446.04 393.49 443.59 395.16 445.4 399.61 440.43 400.51 438.31 398.49 435.76 397.27 434.5 395.04 431.66 395.13 429.24 396.35 428.52 399.13 426.01 401.01 425.63 402.54 422.4 403.96 422.23 407.17 423.08 410.17 419.76 412.21 418.84 410.05 414.48 409.35 410.76 407.93 408.25 408.62 404.03 407.2 403.3 405.29 400.53 405.91 399.27 408.05 396.29 408.47 394.17 410.45 389.66 410.04 387.97 411.43 385.75 409.44 383.56 411.06 382.81 413.07 379.41 414.41 377.57 412.17 379.41 409.8 378.55 407.86 376.59 406.43 375.84 402.14 372.39 400.12 371.95 398.35 373.86 395.43 373.5 392.62 375.56 387.48 377.76 386.81 381.28 383.2 380.72 381.23 383.21 379.86 383.84 377.83 376.69 373.92 375.17 372.41 373.14 373.19 369.23 371.51 367.53 368.14 368.07 367.17 364.75 363.87 364.9 358.41 364.45 353.2 366.06 349.13 362.49 346.97 363.07 345.35 359.48 344.39 360.47 341.41 357.48 341.61 354.36 343.16 348.71 344.44 346.64 346.4 339.96 349.59 337.13 352.27 334.1 352.89 331.45 357.33 327.84 360.14 323.86 362.49 317.06 363.3 310.64 366.72 308.86 368.57 306.96 369.07 303.54 371.69 303.69 374.11 300.49 376.18 296.39 375.83 295.64 377.92 291.54 379.94 291.53 382.32 288.53 383.03 286.68 382.36 281.18 382.35 278.39 380.8 275.52 381.06 272.44 379.92 269.69 380.49 266.61 382.66 265.47 384.48 263.27 384.89 257.89 382.54 256.04 383.08 251.6 380.93 249.54 378.85 243.67 381.66 232.68 376.75 230.69 375.4 231.05 373.86 226.27 372.42 222.82 370.32 221.55 370.54 215.25 368.32 Z" id="level=district;display_name=Ат-Башы району"/>
</g>
</svg>