<?xml version="1.0"?>
<svg xmlns="http://www.w3.org/2000/svg" version="1.2" baseProfile="tiny" width="800" height="819" viewBox="0 0 800 819" stroke-linecap="round" stroke-linejoin="round">
<g id="41711">
<path d="M 73.6 82.82 80.07 1 124.67 37.61 73.6 82.82 Z M 93.99 497.69 85.2 430.5 144.87 422.13 276.62 419.11 273.64 369.81 327.35 366.13 317.46 285.51 349.97 225.97 401.56 226.83 389.99 284.06 407.63 310.18 400.94 362.54 396.58 463.65 451.31 459.87 448.08 536.14 440.68 610.05 358.81 607.8 362.8 538.15 363.5 527.06 369.38 462.62 320.86 477.63 207.57 492.32 93.99 497.69 Z" fill-rule="evenodd" id="level=district;display_name=Биринчи май району"/>
<path d="M 93.99 497.69 207.57 492.32 320.86 477.63 369.38 462.62 363.5 527.06 362.8 538.15 358.81 607.8 351.85 732.53 357.87 789.6 332.07 817.97 293.8 759.48 237.73 718 183.65 730.9 187.62 633.44 121.37 626.13 68.93 685.86 32.36 683.29 43.24 597.02 1 596.47 1.34 548.88 93.99 497.69 Z M 455.34 739.95 364.08 764.71 390.9 711.66 455.34 739.95 Z" fill-rule="evenodd" id="level=district;display_name=Ленин району"/>
<path d="M 358.81 607.8 440.68 610.05 448.08 536.14 562.47 520.41 799 525.65 776.92 535.33 788.51 601.57 683.62 576.24 679.09 607.19 630.6 611.55 640.32 568.91 589.09 567.6 588.99 641.84 550.41 647.91 575.43 756.89 455.34 739.95 390.9 711.66 364.08 764.71 357.87 789.6 351.85 732.53 358.81 607.8 Z" id="level=district;display_name=Октябрь району"/>
<path d="M 799 525.65 562.47 520.41 448.08 536.14 451.31 459.87 396.58 463.65 400.94 362.54 445.05 318.82 440.39 178.82 518.87 145.9 484.42 232.18 555.76 251.79 499.71 348.56 521.24 422.79 615.86 434.4 612.54 473.1 756.44 485.22 763.06 473.5 762.04 504.37 799 525.65 Z" id="level=district;display_name=Свердлов району"/>
</g>
</svg>