<?xml version="1.0"?>
<svg xmlns="http://www.w3.org/2000/svg" version="1.2" baseProfile="tiny" width="800" height="463" viewBox="0 0 800 463" stroke-linecap="round" stroke-linejoin="round">
<g id="41706">
<path d="M 2.08 359.24 1 356.96 4.23 355.84 6.32 352.84 7.09 347.06 9.59 345.51 10.1 342.43 13.96 340.56 15.91 336.41 14.9 334.66 19.79 333.43 21.22 331.88 24.56 332.98 27.51 331.7 31.52 331.98 35.32 331.29 41.59 327.29 42.67 324.41 45.85 323.68 51.93 323.66 53.94 325.53 63.4 326.77 68.43 325.85 71.43 326.99 74.47 325.44 77.4 328.05 76.16 332.79 79.77 335.44 82.13 335.09 85.86 336.78 90.04 340.08 94.53 339.04 96.51 337.52 99.5 338.58 106.17 338.61 109.49 341.18 112.6 340.88 119.98 342.75 118.33 344.53 127.11 347.48 131.27 345.52 136.62 345.44 138.64 350.67 141.7 348.6 146.18 348.38 148.13 345.17 151.42 345.41 158.82 343.58 172.69 347.57 173.54 346.08 178.35 348.49 184.57 347.84 185.73 345.25 188.64 343.95 195.85 343.37 197.75 344.33 203.15 338.14 205.51 338.49 209.53 335.81 211.19 337.63 214.54 336.72 219.12 333.78 222.85 334.82 227.43 331.87 228 330.06 232.05 330.01 234.27 326.89 238.34 323.62 240.18 323.67 241.97 318.94 244.85 318.2 249.69 318.32 255.88 320.81 263.26 314.71 266.12 315 271.68 317.82 278.5 320.18 286.16 316.55 292.59 315.97 296.06 314.07 304.43 319.08 302.39 322.63 303.3 327.28 309.2 328.18 310.99 331.32 314.06 332.28 318.76 337.53 322.17 339.5 322.88 342.33 320.71 344.45 308.97 346.26 308.86 348.52 316.76 358.14 320.46 361.73 320.44 364.44 324.96 371.51 330.31 374.99 332.99 377.52 334.18 387.92 333.2 390.67 333.95 395.48 331.25 400.17 326.24 414.38 326.9 418 323.88 420.96 316.46 419.76 313.09 417.22 311.04 416.93 303.18 421.07 301.6 417.94 297.21 416.82 294.66 415.33 289.14 414.07 282.69 411.17 280.55 409.51 275.23 411.51 272.62 409.98 266.52 410.34 262.15 409.51 258.99 415.61 255.96 418.02 253.16 418.32 250.84 419.95 247.55 416.55 246.59 413.69 242.34 413 231.22 414.34 229.24 417.51 229.99 420.53 221.96 420.8 219.72 421.84 210.78 422.42 206.87 425.08 204.08 424.3 198.13 424.68 195.9 427.88 191.4 428.17 191.99 430.35 188.35 433.76 188.78 437.96 185.74 441.27 184.32 446.56 182.91 449.12 180.23 451.14 180.1 455.32 181.65 457.83 175.55 461.72 173.68 461.75 169.55 459.46 169.12 454.61 166.89 449.71 167.74 447.49 165.44 445.67 161.43 445.77 160.84 441.59 158.91 439.11 156 439.52 154.12 438.2 149.98 439.15 142.94 439.83 138.99 437.11 135.56 430.41 137.31 426.92 134.54 424.21 134.72 419.54 127.98 415.98 124.99 418.92 120.29 419.93 117.13 419.51 113.73 420.47 113 422.82 109.47 422.74 107.25 424.28 105.75 427.5 102.76 426.97 100.84 433.08 95.63 435.34 81.26 434.33 74.97 437.62 71.91 438.13 69.93 436.91 69.02 434.1 65.51 430.79 62.1 425.64 60.05 423.88 65.34 418.85 65.22 416.51 70.2 414.81 72.69 411.34 73.36 408.81 71.82 405.8 71.77 401.63 66.31 398.36 67.05 396.2 65.79 393.61 53.41 395.9 50.71 394.97 45.9 395.4 43.8 396.69 33.49 397.42 32.3 398.18 28.64 394.25 23.12 397.39 20.16 395.05 15.29 394.47 13.13 391.51 14.55 390.13 12.21 387.85 10.2 381.96 13.23 375.18 17.56 370.51 16.87 367.64 11.33 361.8 8.66 362.24 4.7 359.1 2.08 359.24 Z" id="level=district;display_name=Чоң-Алай району"/>
<path d="M 346.9 307.97 344.79 309.82 340.56 310.58 338.87 313.47 333.49 312.98 327.66 310.74 324.17 312.96 319.45 314.8 317.04 314.46 304.43 319.08 296.06 314.07 292.59 315.97 286.16 316.55 278.5 320.18 271.68 317.82 266.12 315 263.26 314.71 255.88 320.81 249.69 318.32 244.85 318.2 245.13 313.9 243.33 313.49 240.52 310.64 239.37 306.18 234.87 305.85 231.18 299.76 232.39 297.87 231.62 294.37 226.7 293.38 222.5 297.09 219.45 297.36 216.21 299.46 211.67 298.87 210.27 295.86 213.19 293.75 209.77 292.24 208.48 289.2 206.5 288.57 206.63 285.46 204.52 283.04 205.47 280.04 203.08 277.12 192.88 275.74 190.93 276.67 185.28 274.22 182.69 266.87 186.53 262.77 185.83 261.02 188.04 258 185.51 257.72 182.07 255.56 181.05 252.28 184.62 249.47 188.91 247.87 190.17 246.28 189.15 239.66 187.7 235.93 185.91 234.4 182.7 234.7 181.98 232.23 183.6 227.84 181.61 225.15 172.99 222.39 165.63 222.08 159.55 219.39 158.69 216.63 170.6 212.61 170.31 209.22 167.61 209.3 167.08 206.48 164.76 203.08 163.91 193.57 160.75 193.43 154.19 195.1 151.77 196.41 142.53 198.49 132.58 199.27 129.91 200.96 125.95 199.91 116.71 198.57 110.53 194.39 110.86 192.43 117.16 189.22 124.41 183.93 129.52 181.47 131.12 179.09 136.34 178.41 139.99 179.32 149.55 176.37 153.04 176.12 161.04 178.16 160.77 179.67 164.45 181.23 170.54 181.52 179.44 185.45 183.41 185.23 189.23 183.94 193.46 181.31 197.49 181.45 199.24 178 203.73 177.5 206.08 176.4 211.29 177.86 218.09 174.71 223.16 174.65 232.49 177.52 235.74 170.56 239.25 171.03 246.98 174.74 253.88 174.59 257.18 175.64 262.67 173.8 266.5 176.61 267.25 172.14 266.97 167.78 273.02 168.81 274.08 174.76 274.29 181.74 280.24 184.71 281.98 188.51 286.51 188.97 285.81 181.89 284.31 178.64 289.42 174.85 295.22 169.3 296.76 168.67 301.33 168.19 304.65 179.96 305.13 184.84 313.26 184.44 318.78 186.17 316.61 190.37 322.68 188.42 326.95 192.57 326.32 194.78 330.61 195.34 331.71 198.39 334.11 199.73 347.63 200.85 345.41 207.06 345.85 215.58 344.18 224.31 348.4 229.09 347.74 233.1 345.95 234.81 345.7 238.05 354.74 237.79 357.87 239.06 366.61 238.23 371.06 236 374.74 239.07 382.12 241.48 384.32 240.93 388.03 242.21 390.04 244.66 387.32 247.06 389.05 254.47 386.52 255.2 380.1 254.09 376.59 255.89 372.25 255.1 369.24 255.71 369.33 258.89 371.87 262.35 370.62 265.7 370.81 269.23 366.78 270.24 364.21 269.39 361.48 270.06 359.77 267.41 350.72 264.56 341.3 260.68 338.3 261.92 342.43 271.28 334.2 282.26 336.98 285.57 340.3 285.96 350.48 289.16 349.52 290.5 351.12 294.09 351.4 298.8 347.34 301.67 346.9 307.97 Z" id="level=district;display_name=Ноокат району"/>
<path d="M 272.36 148.32 278.15 147.68 277.51 150.47 279.94 153.92 276.61 164.42 279.59 169.69 285.59 170.47 289.42 174.85 284.31 178.64 285.81 181.89 286.51 188.97 281.98 188.51 280.24 184.71 274.29 181.74 274.08 174.76 273.02 168.81 266.97 167.78 267.25 172.14 266.5 176.61 262.67 173.8 257.18 175.64 253.88 174.59 246.98 174.74 239.25 171.03 235.74 170.56 232.49 177.52 223.16 174.65 218.09 174.71 211.29 177.86 206.08 176.4 203.73 177.5 199.24 178 197.49 181.45 193.46 181.31 189.23 183.94 183.41 185.23 179.44 185.45 170.54 181.52 164.45 181.23 160.77 179.67 161.04 178.16 153.04 176.12 149.55 176.37 139.99 179.32 136.34 178.41 131.12 179.09 133.76 175.71 137.42 174.38 140.8 172.11 144.68 168.11 142.02 167.39 141.93 165.44 145.65 161.9 152.87 157.5 155.47 155.18 165.13 154.3 174.42 155.09 177.48 156.21 175.19 160.53 181.87 162.71 183.21 166.63 189.13 165.74 191.55 164.11 202.95 170.25 204.49 171.81 208.62 173.47 214.26 174.35 216.67 173.48 216.98 171.02 215.58 167.79 216.73 162.54 220.07 161.43 219.37 159.46 220.37 155.89 217.51 154.79 216.36 150.35 214.42 149.03 210.32 149.62 206.78 148.47 207.63 145.99 213.07 145.14 215.94 143.17 216.45 139.73 214.05 136.88 209.43 135.83 210.15 133.51 205.36 132.5 203.65 130.54 198.81 127.61 208.39 126.91 210.45 124.07 213.75 123.59 215.42 125.62 218.95 127.41 224.3 134.91 229.58 139.41 233.64 138.36 235.13 134.9 238.22 139.94 247.16 142.57 254.6 142.82 259.36 145.74 260.95 147.54 266.29 148.67 272.36 148.32 Z" id="level=district;display_name=Араван району"/>
<path d="M 296.18 133.15 293.45 128.46 293.68 125.67 295.28 122.71 299.52 118.83 300.99 116.52 300.52 113.61 303.69 110.48 310.04 109.86 316.28 110.86 320.68 104.29 319.34 102.68 327.89 99.95 332.72 98.99 336.72 97.16 339.61 96.97 344.51 92.65 349.91 89.4 356.89 88.61 361.4 89.39 365.55 88.63 368.37 91.44 370.5 89.38 376.4 90.59 378.65 94.42 377.54 97.72 378.01 100.07 380.85 99.97 383.12 103.24 382.12 107.3 382.81 113.42 381.43 117.11 381.51 120.3 379.93 122.05 380.03 125.55 383.39 132.4 383.09 137.42 384.91 147.33 390.05 150.53 391.17 150.15 402.06 153.42 405.27 155.26 408.25 158.5 414.4 157.3 417.46 155.43 422.22 154.06 428.74 150.69 430.61 149.15 431.39 146.33 440 148.42 440.9 152.14 442.36 153.16 438.84 157.85 434.73 158.77 431.61 161.18 428.31 165.61 425.11 167.77 420.48 169.01 419.19 170.45 421.32 173.29 427.51 177.59 425.81 178.78 418.99 176.68 414.57 170.29 409.1 171.82 406.09 171.2 398.04 173.69 402.99 180.13 399.88 181.41 399.65 183.32 405.82 186.77 408.6 190.86 412.05 191.67 415.84 194.04 419.72 200.08 422.12 202.71 427.72 205.29 428.94 207.11 425.94 212.85 428.99 216.64 429.4 219.97 431.1 222.53 431.26 227.35 428.55 231.78 429.14 233.99 427.81 237.08 424.84 238.49 424.52 240.26 421.02 242.18 422.68 245.29 420.44 248.54 420.58 251.65 414.86 256.27 416.14 257.78 414.36 259.95 416.15 263.44 417.43 268.28 420.03 269.64 416.62 271.64 416.31 273.16 413.13 274.62 411.18 277 410.07 281.51 407.51 281.72 402.72 287.99 399.65 288.41 396.15 295.24 389.21 296.32 389.96 297.92 387.74 301.76 381.78 304.54 377.11 303.59 375.89 305.57 370.26 306.98 366.25 307.3 363.48 310.95 358.16 310.06 351.27 309.74 346.9 307.97 347.34 301.67 351.4 298.8 351.12 294.09 349.52 290.5 350.48 289.16 340.3 285.96 336.98 285.57 334.2 282.26 342.43 271.28 338.3 261.92 341.3 260.68 350.72 264.56 359.77 267.41 361.48 270.06 364.21 269.39 366.78 270.24 370.81 269.23 370.62 265.7 371.87 262.35 369.33 258.89 369.24 255.71 372.25 255.1 376.59 255.89 380.1 254.09 386.52 255.2 389.05 254.47 387.32 247.06 390.04 244.66 388.03 242.21 384.32 240.93 382.12 241.48 374.74 239.07 371.06 236 366.61 238.23 357.87 239.06 354.74 237.79 345.7 238.05 345.95 234.81 347.74 233.1 348.4 229.09 344.18 224.31 345.85 215.58 345.41 207.06 347.63 200.85 334.11 199.73 331.71 198.39 330.61 195.34 326.32 194.78 326.95 192.57 322.68 188.42 316.61 190.37 318.78 186.17 313.26 184.44 305.13 184.84 304.65 179.96 301.33 168.19 296.76 168.67 295.68 165.33 295.98 160.13 302.96 159.24 302.23 156.87 310.44 156.57 311.81 162.49 313.95 161.88 313.84 159.21 317.12 158.08 319.67 162.43 324.18 161.06 319.11 157.84 321.37 156 317.69 153.08 318.53 148.2 315.99 149.11 314.76 146.86 316.28 143.47 311.82 142.79 312.06 140.4 309.31 140.07 311.12 136.45 310.42 134.99 304.26 132.69 304.08 135.36 300.75 135.45 296.18 133.15 Z M 296.07 133.58 298.87 138.32 297.17 140.67 299.06 141.61 298.29 145.13 291.52 147.13 279.06 146.83 278.15 147.68 272.36 148.32 274.81 145.77 274.58 137.78 275.64 135.14 273.09 131.94 275.03 130.27 280.25 128.5 282.23 130.69 285.67 130.36 291.21 131.5 296.07 133.58 Z" fill-rule="evenodd" id="level=district;display_name=Кара-Суу району"/>
<path d="M 452.46 150.2 443.92 152.34 442.36 153.16 440.9 152.14 440 148.42 431.39 146.33 430.61 149.15 428.74 150.69 422.22 154.06 417.46 155.43 414.4 157.3 408.25 158.5 405.27 155.26 402.06 153.42 391.17 150.15 390.05 150.53 384.91 147.33 383.09 137.42 383.39 132.4 380.03 125.55 379.93 122.05 381.51 120.3 381.43 117.11 382.81 113.42 382.12 107.3 383.12 103.24 386.13 101.7 387.27 99.57 384.31 94.82 381.35 92.76 379.71 89.9 384.31 87.93 388.32 87.12 391.01 87.96 394.69 91.64 396.79 87.55 394.36 84.38 391.28 84.12 391.92 81.69 397.56 79.48 401.19 77.08 400.9 75.9 395.29 76.29 391.42 77.72 385.29 82.69 384.83 79.83 386.9 77.3 386.43 73.5 383.08 71.35 388.19 68.83 390.11 65 393.37 65.24 398.25 64.36 401.31 65.54 404.18 63.77 407.25 57.92 408.61 53.16 404.97 46.46 405.78 43.74 404.89 38.75 406.11 35.66 405.22 33.21 407.47 31.22 411.74 30.24 427.11 24.43 428.58 28.37 431.74 29.85 438.52 29.82 439.73 22.35 445.4 20.67 448 21.92 448.25 17.19 450.73 14.56 451.75 10.04 457.17 13.63 468.5 12.62 469.95 13.8 480.88 15.33 482.64 14.45 486.64 17.27 489.45 16.96 491.67 14.64 496.25 12.16 492.46 10.13 490.55 7.76 490.05 3.86 502.13 1 505.97 6.35 510.04 9.57 513.35 10.19 512.15 13.25 507.17 16.45 504.16 16.8 496.41 21.39 493.58 22.53 489.12 27.33 487.66 29.92 484.42 32.41 484.64 34.39 488.24 35.88 490.34 35.03 494.84 37.18 493.07 43.88 496.27 42.78 502.66 43.14 505.53 45.01 508.62 45.38 511.03 47.26 514.06 47.65 516.3 46.08 514.83 43.35 515.4 36.52 518.32 33.35 518.23 31.04 522.56 26.29 532.36 22 534.01 19.94 537.37 18.06 536.64 14.84 540.93 11.05 541.85 8.89 540.28 7.18 543.29 4.97 546.43 5.81 551.12 5.76 553.92 6.59 553.78 8.5 550.8 10.79 553.15 13.67 560.1 14.84 561.26 16.58 558.48 18.61 558.42 28.42 557.84 32.05 562.17 32.63 563.44 34.18 566.93 35.09 572.04 33.8 577.06 36.04 583.35 35.76 587.58 36.75 589.98 40.17 590.31 42.36 597.89 43.97 599.29 46.68 602.08 48.17 604.38 47.82 606.61 54.11 609.62 55.95 613.73 56.32 615.61 60.74 619.26 62.72 623.02 62.96 626.07 65.24 626.86 67.64 629.84 69.17 631.78 72.21 630.93 74.49 631.81 78.31 634.73 80.38 641.19 79.33 643.52 82.64 643.96 86.18 639.47 88.09 634.71 92.35 628.67 95.41 620.29 95.89 618.87 98.34 618.63 101.75 616.5 103.66 612.76 104.9 608.5 104.4 606.89 102.89 602.92 104.39 598.99 103.96 596.32 104.78 590.69 102.52 586.6 101.67 584.5 100.14 578.06 100.77 573.76 99.42 571.11 95.63 567.5 95.37 566.3 93.19 562.03 92.25 561.09 88.96 557.46 85.44 552.43 85.75 548.23 82.88 543.94 83.82 540.59 87.86 537.31 89.31 534.21 92.11 530.1 92.62 528.2 91.45 523.57 92.65 516.23 97.48 514.44 100.16 510.03 99.41 507.42 101.5 502.27 102.48 501.32 104.06 495.99 103.63 493.08 109.63 486.78 110.06 482.01 106.25 475.3 106.33 472.04 103.62 466.6 102.56 467.23 108.42 460.68 106.94 456.35 102.61 452.13 102.97 447.33 101.25 443.27 104.61 441.92 106.78 438.78 108.09 441.78 110.44 441.89 114.18 444 115.3 440.54 117.44 440.08 119.08 435.68 120.12 438.07 124.38 436.25 127.14 439.38 128.17 447.11 135.55 450.68 135.3 450.25 133.24 455.82 134.25 453.58 138.21 454.65 140.02 451.76 146 450.52 147.12 452.46 150.2 Z" id="level=district;display_name=Өзгөн району"/>
<path d="M 643.96 86.18 649.18 90.82 652.09 89.95 655.83 93.77 658.25 95.23 657.9 97.03 659.79 99.82 663.84 103.83 669.33 105.76 670.8 107.32 676.63 110.84 678.99 110.29 690.9 116.02 692.48 117.63 696.81 115.34 700.85 118.27 703.33 117.62 706.52 119.87 708.46 119.49 711.14 121.54 716.12 121.6 722.25 128.14 721.29 130.88 718.98 132.56 718.33 136.17 716.52 140.4 722.49 138.91 723.8 140.69 730.05 140.45 733.46 142.97 738.84 142.87 743.56 145.37 745.98 147.52 751.25 146.23 756.49 146.11 758.87 148.05 763.69 148.04 767 149.18 770.77 144.87 772.14 142.25 777.64 143.98 779.91 143.95 782.1 146.11 777.09 150.01 777.81 153.71 775.95 157.27 776.68 158.74 775.21 161.63 770.36 162.42 772.35 166.48 779.49 172.04 782.26 172.78 783.74 175.69 786.2 176.1 791.43 183.01 797.91 185.47 799 186.98 796.49 188.92 793.79 188.73 787.71 192.47 785.26 191.92 780.83 188.58 775.79 186.36 770.87 185.46 764.94 186.99 761.12 185.73 758.12 187.62 752.4 186.43 749.18 186.55 750.04 192.15 744.83 199.42 746.29 200.51 740.63 204.37 736.17 204.54 733.22 201.83 729.92 202.64 727.95 201.68 724.25 202.19 720.09 206.92 718.13 207.48 716.67 210.78 713.27 213.87 712.13 216.41 709.05 219.33 702.67 220.38 696.86 225.61 692.23 231.49 681.08 236.48 676.35 241.01 674.08 241.03 672.42 244.06 669.52 244.32 666.72 246.34 660.83 244.29 657.18 241.36 653.42 244 651.29 243.81 648.14 240.31 646.28 236.96 643.66 238.9 639.67 239.87 638.34 238.82 632.92 239.29 626.84 241.51 624.65 240.93 620.26 243.64 614.91 242.19 612.61 243.92 611 248 608.72 247.96 601.59 249.87 598.49 246.08 595.83 244.94 593.8 244.77 590.37 240.98 583.04 241.53 580.98 240.68 578 241.83 575.98 240.47 571.66 232.67 568.09 231.02 570.11 228.3 565.46 223.83 564.82 221.89 562.12 220.69 558.54 220.63 554.01 218.28 552.18 215.71 550.35 209.16 544.7 203.62 542.39 197.97 544.16 194.6 536.92 187.52 533.39 183.45 532.24 183.58 521.64 188.06 517.39 186.09 513.3 185.61 507.21 187.02 505.93 184.99 501.84 184 497.48 185.37 497.63 182.91 492.82 176.61 487.69 175.32 483.48 175.05 481.87 171.63 483.03 167.99 480.53 166.2 479.7 162.42 474.01 163.79 472.51 164.97 467.37 165.06 467.25 163.41 455.67 164.56 454.55 158.12 451.68 152.98 452.46 150.2 450.52 147.12 451.76 146 454.65 140.02 453.58 138.21 455.82 134.25 450.25 133.24 450.68 135.3 447.11 135.55 439.38 128.17 436.25 127.14 438.07 124.38 435.68 120.12 440.08 119.08 440.54 117.44 444 115.3 441.89 114.18 441.78 110.44 438.78 108.09 441.92 106.78 443.27 104.61 447.33 101.25 452.13 102.97 456.35 102.61 460.68 106.94 467.23 108.42 466.6 102.56 472.04 103.62 475.3 106.33 482.01 106.25 486.78 110.06 493.08 109.63 495.99 103.63 501.32 104.06 502.27 102.48 507.42 101.5 510.03 99.41 514.44 100.16 516.23 97.48 523.57 92.65 528.2 91.45 530.1 92.62 534.21 92.11 537.31 89.31 540.59 87.86 543.94 83.82 548.23 82.88 552.43 85.75 557.46 85.44 561.09 88.96 562.03 92.25 566.3 93.19 567.5 95.37 571.11 95.63 573.76 99.42 578.06 100.77 584.5 100.14 586.6 101.67 590.69 102.52 596.32 104.78 598.99 103.96 602.92 104.39 606.89 102.89 608.5 104.4 612.76 104.9 616.5 103.66 618.63 101.75 618.87 98.34 620.29 95.89 628.67 95.41 634.71 92.35 639.47 88.09 643.96 86.18 Z" id="level=district;display_name=Кара-Кулжа району"/>
<path d="M 595.83 244.94 588.86 249.58 590.35 251.64 586.69 253.41 585.44 257.69 582.13 256.84 575.04 260.54 571.02 261.2 570.59 262.74 575.02 264.36 579.02 264.73 580.72 267.09 576.3 274.09 574.78 274.26 570.38 277.97 567.73 282.55 564.4 286.78 564.1 288.79 567.74 290.35 565.6 297.87 563.44 300.57 558.69 300.38 557.75 302.87 553.29 304.25 550.51 306.98 548.37 313.07 548.74 315.52 546.85 319.3 550.26 324.83 554.82 325.17 556.61 327.65 559.68 327.24 563.66 328.03 565.38 333.82 569 337.12 568.14 339.23 568.69 342.4 571.5 346.73 572.59 353.75 574.18 356.79 573.41 362.08 565.31 363.93 566 370.36 557.62 375.3 560.85 377.31 556.4 382.13 557.35 386.35 556.72 389.11 549.61 390.54 548.27 391.58 538.87 392.97 534.01 392.61 529.22 393.99 521.92 394.33 514.88 393.15 510.09 393.82 507.32 391.74 505.03 392.36 501.42 391.25 496.81 392.53 492.59 394.62 490.27 392.63 485.56 395.31 482.07 395.16 476.5 392.42 470.3 391.34 467.49 392.64 464.33 392.04 461.29 393.48 457.24 393.76 455.43 396.52 452.85 397.23 448.76 396.33 444.17 396.24 443.99 397.75 438.92 400.95 435.71 400.4 437.15 406.62 434.79 410.14 428.52 410.82 427 412.73 422.04 411.7 415.77 412.95 411.25 413.02 409.73 416.96 406.13 418.47 403.39 417.06 399.3 419.44 389.01 419.57 382.04 415.37 377.03 414.27 373.48 415.59 368.71 416.11 368.3 417.9 363.33 419.48 358.66 419 354.82 416.99 348.75 418.55 345.4 418.47 341.38 420.21 338.52 417.39 337.96 415.42 330.44 416.15 326.9 418 326.24 414.38 331.25 400.17 333.95 395.48 333.2 390.67 334.18 387.92 332.99 377.52 330.31 374.99 324.96 371.51 320.44 364.44 320.46 361.73 316.76 358.14 308.86 348.52 308.97 346.26 320.71 344.45 322.88 342.33 322.17 339.5 318.76 337.53 314.06 332.28 310.99 331.32 309.2 328.18 303.3 327.28 302.39 322.63 304.43 319.08 317.04 314.46 319.45 314.8 324.17 312.96 327.66 310.74 333.49 312.98 338.87 313.47 340.56 310.58 344.79 309.82 346.9 307.97 351.27 309.74 358.16 310.06 363.48 310.95 366.25 307.3 370.26 306.98 375.89 305.57 377.11 303.59 381.78 304.54 387.74 301.76 389.96 297.92 389.21 296.32 396.15 295.24 399.65 288.41 402.72 287.99 407.51 281.72 410.07 281.51 411.18 277 413.13 274.62 416.31 273.16 416.62 271.64 420.03 269.64 417.43 268.28 416.15 263.44 414.36 259.95 416.14 257.78 414.86 256.27 420.58 251.65 420.44 248.54 422.68 245.29 421.02 242.18 424.52 240.26 424.84 238.49 427.81 237.08 429.14 233.99 428.55 231.78 431.26 227.35 431.1 222.53 429.4 219.97 428.99 216.64 425.94 212.85 428.94 207.11 427.72 205.29 422.12 202.71 419.72 200.08 415.84 194.04 412.05 191.67 408.6 190.86 405.82 186.77 399.65 183.32 399.88 181.41 402.99 180.13 398.04 173.69 406.09 171.2 409.1 171.82 414.57 170.29 418.99 176.68 425.81 178.78 427.51 177.59 421.32 173.29 419.19 170.45 420.48 169.01 425.11 167.77 428.31 165.61 431.61 161.18 434.73 158.77 438.84 157.85 442.36 153.16 443.92 152.34 452.46 150.2 451.68 152.98 454.55 158.12 455.67 164.56 467.25 163.41 467.37 165.06 472.51 164.97 474.01 163.79 479.7 162.42 480.53 166.2 483.03 167.99 481.87 171.63 483.48 175.05 487.69 175.32 492.82 176.61 497.63 182.91 497.48 185.37 501.84 184 505.93 184.99 507.21 187.02 513.3 185.61 517.39 186.09 521.64 188.06 532.24 183.58 533.39 183.45 536.92 187.52 544.16 194.6 542.39 197.97 544.7 203.62 550.35 209.16 552.18 215.71 554.01 218.28 558.54 220.63 562.12 220.69 564.82 221.89 565.46 223.83 570.11 228.3 568.09 231.02 571.66 232.67 575.98 240.47 578 241.83 580.98 240.68 583.04 241.53 590.37 240.98 593.8 244.77 595.83 244.94 Z" id="level=district;display_name=Алай району"/>
</g>
</svg>