<?xml version="1.0"?>
<svg xmlns="http://www.w3.org/2000/svg" version="1.2" baseProfile="tiny" width="800" height="300" viewBox="0 0 800 300" stroke-linecap="round" stroke-linejoin="round">
<g id="export3">
<path d="M 63.04 268.65 62.1 268.82 61.13 269.54 60.29 269.66 59.46 270.56 58.41 270.05 57.31 270.03 56.79 271.47 55.55 272.12 54.15 272.56 53.63 271.88 53.72 271.01 53.03 270.37 50.63 270.54 49.77 270.39 48.95 269.56 47.04 269.97 47.15 271.05 46.13 271.86 46.44 272.16 44.9 273.13 43.8 271.93 42.96 271.78 42.21 271.14 41.01 270.99 40.65 270.28 39.73 270.09 39.45 269.53 35.92 268.87 35.48 268.35 33.68 268.41 32.54 267.95 31.28 268.68 31 269.39 28.56 269.36 27.53 268.45 27.01 268.73 25.54 268.52 25.56 269.25 24.41 269.63 23.5 271.35 22.02 271.04 21.3 272.19 19.83 272.03 19.36 272.47 17.76 272.31 17.07 273.34 15.92 272.37 14.22 273.17 12.53 272.3 10.59 271.07 9.47 273.25 8.15 273.77 6.42 272.21 7.61 270.2 7.45 269.72 7.84 268.21 6.45 267.89 6.78 266.71 6.65 266.02 5.97 265.83 5.61 263.79 4.89 262.77 5.29 261.53 6.24 260.86 5.47 259.18 4.31 258.28 2.76 256.65 2.89 255.81 2.04 254.11 2.09 253.16 1 252.94 1.35 251.5 2.49 251.27 2.26 250.75 3.82 249.96 3.55 248.82 3.92 248.01 4.71 248.22 5.53 247.77 4.49 246.71 3.32 244.61 4.32 243.44 4.82 242.47 5.86 242.37 6.77 241.12 7.75 240.88 7.86 239.54 6.97 237.53 8 237.42 8.8 239.11 9.92 239.27 10.44 238.63 11.81 239.32 13.15 239.67 12.87 240.22 13.37 240.84 13.1 241.43 13.35 242.55 12.8 243.95 13.05 244.48 14.31 243.43 15.01 243.55 15.17 244.74 15.65 244.82 16.67 243.92 18.3 243.9 17.98 243.06 19.38 242.91 20.24 243.26 21.18 243.09 20.01 241.03 20.36 239.23 18.73 236.76 18.62 236.35 19.9 234.41 19.73 233.62 19 232.83 19.91 231.94 21.87 231.82 23.53 231.29 24.54 231.59 25.12 230.95 27.19 230.29 29.07 229.88 30.62 229.88 31.55 230.13 32.73 229.25 35.58 227.42 36.25 226.35 36.85 226 38.51 225.65 39.95 225.58 41.26 225.14 45.92 224.22 47.58 223.78 51.48 223.27 52.63 222.59 54.29 222.32 54.87 221.89 55.81 222 56.85 222.55 56.8 223.59 57.74 223.67 63.45 226.22 66.14 227.86 67.27 228.41 69.55 229.19 72.06 229.79 73.83 229.79 75.76 229.4 76.46 229.96 78.67 230.71 80.1 231.38 80.55 232.92 82.53 232.91 84.15 233.35 85.06 233.89 84.9 234.39 86.49 234.96 88.33 234.63 89.48 235.01 91.56 235.08 92.05 235.44 91.9 236.39 92.69 236.94 94.18 236.2 94.97 236.92 95.86 237.17 96.82 238.63 96.38 239.3 95.05 239.26 94.48 239.53 94.31 240.34 91.79 241.4 92.75 242.37 93.59 242.11 94.31 242.58 95.7 242.12 98.15 240.97 99.71 239.87 99.51 238.67 100.13 237.98 101.33 237.28 100.7 236.24 100.77 235.04 100.34 234.45 102.73 234.6 102.33 231.51 104.28 231.06 105.52 231.09 109.54 230.3 110.33 230.39 111.65 229.61 111.86 228.53 112.72 228.08 112.97 226.28 115.21 226.18 115.56 226.81 116.32 226.78 117.74 226.2 119.27 225.04 124.1 223.53 126.19 222.62 125.61 220.11 124.45 219.34 124.33 218.06 125.29 217.81 126.18 218 128.68 217.26 129.82 217.94 132.9 217.26 135.07 215.39 136.52 214.42 138.21 214.56 143.3 214.01 145.26 214.45 145.64 214.83 147.23 213.8 149.19 214.74 148.64 215.11 149.73 216.37 150.9 215.67 151.82 216.01 154.17 215.61 155.09 216.5 155.7 216.31 157.45 217.62 158.46 218.14 162.22 218.81 163.08 218.45 164.54 219.29 164.64 222 167.77 222.92 170.55 223.36 172.17 223.77 172.98 223.12 172.41 221.51 172.44 219.37 173.29 219.54 174.83 219.07 175.94 219.09 176.87 219.56 176.88 220.13 178.17 221.03 178.32 221.65 177.84 222.46 178.55 223.67 177.74 223.88 177.92 224.72 177.48 225.18 178.38 225.85 179.38 225.91 179.99 226.73 179.94 227.72 181.66 226.17 183.26 225.25 184.46 224.04 185.57 223.65 186.62 223.93 187.77 223.88 187.62 221.27 188.41 220.43 191.7 219.7 192.86 220.08 194.38 220.27 194.86 221.16 195.78 221.51 197.41 221.29 196.41 220.17 198.54 220.14 199.37 219.28 200.42 218.74 201.88 219.27 203.9 218.52 203.74 217.89 204.57 217.36 207.67 217.12 210.54 216.47 211.29 216.07 213.33 215.55 214.32 215.59 214.58 218.55 215.3 219.61 215.47 220.49 216.31 220.46 216.4 221.52 212.69 222.77 212.96 223.63 214.85 224.46 217.14 224.56 219.83 225.42 220.44 226.25 219.94 227.62 220.16 228.39 221.16 228.29 221.72 228.77 222.17 229.93 222.49 231.99 222.1 232.49 220.76 232.98 219.65 233.86 219.97 234.88 221.04 235.55 221.83 235.64 221.14 236.58 221.36 237.12 220.16 238.4 220.97 240.68 222.72 241.45 223.33 241.16 226.5 241.59 227.25 242.5 226.95 243.43 227.61 244.18 227.57 245.15 228.19 245.35 228.59 246.29 229.65 246.76 228.74 247.42 229.18 248.36 230.59 248.54 231.6 247.89 232.55 247.8 233.85 246.65 235.39 246.95 235.63 248.05 235.25 248.63 236.4 250.53 237.8 250.63 238.16 252.02 239.03 252.9 239.59 253.03 239.5 254.37 238.61 254.6 238.05 256.07 237.48 256.06 236.21 257.08 235.52 258.05 234.26 258.06 234.08 258.63 232.66 259.54 231.5 259.22 230.07 260.13 229.03 260.42 228.51 259.85 227.26 260.68 226.53 260.57 224.85 262.5 224.26 262.2 222.01 262.38 221.11 262.79 220.75 263.59 218.81 263.8 217.31 263.05 217.05 263.51 212.73 262.27 210.43 262.84 209.41 262.76 208.8 263.76 207.41 263.83 206.45 264.47 205.83 262.85 204.16 262.87 202.87 263.48 200.14 262.56 200.65 262.01 198.35 261.43 197.38 261.52 196.35 260.72 194.27 260.71 193.34 260.38 192.73 260.86 191.33 261.18 190.03 260.15 188.87 259.63 188.14 259.74 187.01 258.91 187.4 257.44 186.49 256.62 185.54 257.1 184.61 256.75 183.04 257.04 180.1 256.65 179.47 256.07 177.58 256.08 176.59 256.3 176.26 257.2 174.3 258.44 173.12 258.66 171.88 258.57 170.96 258.97 169.92 258.63 169.47 259.11 167.95 259.49 168.27 260.04 167.66 261.33 166.46 261.91 166.3 262.87 165.52 263.35 165.28 265.15 164.63 266.08 163.62 266.43 163.96 267.14 163.11 267.55 161.96 267.49 160.57 267.86 160.83 268.75 159.54 269.3 158.36 269.12 157.33 270.05 155.99 270.04 154.63 269.63 152.02 270.25 151.14 272.62 149.52 273.35 148.78 274.21 148.09 274.07 147.09 272.92 146.43 271.55 145.38 271.37 144.52 272.39 143.34 273.18 142.2 273.62 141.23 274.57 137.65 274.32 136.64 273.9 134.36 273.84 134.36 275.23 133.6 275.79 133.11 277.26 133.33 278.94 132.82 279.32 132.56 280.68 131.83 281.16 131.55 281.85 130.52 281.58 128.76 282.42 126.38 281.35 124.59 281.24 123.19 280.72 122.73 281.73 121.84 282.9 121.01 283.24 120.32 282.94 119.36 281.63 117.11 282.09 116.87 282.82 115.74 282.91 114.89 283.33 112.61 282.9 112.12 282.41 110.32 282.21 109.42 280.89 109.1 279.97 110.18 279 110.23 277.67 109.37 276.21 107.52 274.99 106.59 274.89 104.97 273.81 104.37 272.88 104.29 271.77 103.53 270.79 102.29 270.01 101.74 269.05 100.24 268.97 99.3 268.63 98.42 268.95 96.31 268.15 95.36 268.13 95.02 267 94.47 267.17 92.64 266.39 91.84 267.34 90.7 267.42 89.67 267.82 88.32 269.16 86.74 267.71 85.93 268.49 85.35 269.77 84.18 269.73 82.45 269.06 81.98 268.27 80.73 268.8 80.52 269.79 79.24 270.59 78.56 270.59 78.45 271.43 76.43 273.29 74.36 273.24 72.48 272.49 72 271.41 72.26 270.89 70.84 270.44 69.64 269.46 68.52 270.54 67.29 271.31 65.37 270.87 63.87 269.05 63.04 268.65 Z M 129.93 219.89 129.04 221.17 129.58 221.75 130.22 221.03 130.51 219.98 129.93 219.89 Z M 106.62 251.17 108.17 250.64 108.22 249.47 108.62 249.05 108.27 247.73 107.28 248 105.96 247.99 105.48 248.31 104.26 248.11 102.63 248.47 99.9 247.94 98.7 248.15 96.47 247.67 93.97 246.86 93.35 247.39 91.83 248.01 91.52 247.47 90.48 248.09 92.5 249.34 92.86 250.5 94 250.81 93.98 251.36 95.51 252 95.04 252.54 97.44 254.88 99.88 255.11 101.63 254.51 102.65 253.13 105.87 251.37 106.62 251.17 Z M 186.89 238.84 185.25 238.69 183.97 239.38 183.67 240 182.54 240.53 178.91 240.56 180.3 242.91 181.56 242.88 182.28 243.45 183.74 242.43 183.91 241.59 184.85 241.27 185.37 241.84 187.47 242 188.85 242.72 189.03 241.68 189.54 241.05 189.83 239.97 186.99 239.6 186.89 238.84 Z M 143 245.16 142.96 244.5 143.63 243.8 142.4 243.24 142.35 242.2 141.07 242.38 140.31 242.01 137.4 242.04 139.32 240.94 139.56 239.82 138.31 239.07 140.54 238.79 141.59 237.62 142.35 236.09 140.91 236.43 140.57 236.78 137.57 236.91 137.09 237.5 135.82 237.36 135.96 236.27 134.78 234.73 134.68 233.02 133.83 232.46 133.87 230.7 133.39 230.09 132.83 227.87 132.06 226.77 130.81 225.59 129.42 225.85 127.33 225.39 127.93 226.8 128.7 230.07 128.37 232.04 127.67 232.86 127.92 234.81 128.29 235.71 130.71 237.15 132.09 237 134.87 237.4 135.64 238.4 133.85 239.52 134.61 240.17 134.45 240.8 135.31 241.2 135.4 241.89 133.9 242.52 133.11 243.53 132.85 244.8 132.02 244.87 131.38 245.62 131.55 246.23 134.01 246.11 134.4 245.36 136.04 244.44 137.13 245.51 136.69 246.26 136.79 247.11 137.99 246.93 139.15 247.08 140.06 246.41 141.6 246.31 141.75 245.15 143 245.16 Z M 91.89 241.95 90.89 242.03 90.04 243.16 90.06 243.81 90.94 243.93 91.89 241.95 Z" fill-rule="evenodd" id="level=region;display_name=Баткен облусу"/>
<path d="M 282.53 187.48 283.47 187 283.82 186.34 282.9 184.86 281.98 184.22 281.47 183.33 282.9 182.72 284.15 182.47 284.98 182.73 286.13 183.87 286.78 182.6 286.03 181.61 285.07 181.53 285.27 180.78 287.02 180.09 288.15 179.34 288.06 178.98 286.32 179.09 285.11 179.54 283.2 181.09 283.06 180.2 283.71 179.41 283.56 178.23 282.52 177.56 284.11 176.78 284.7 175.58 285.72 175.66 287.24 175.38 288.19 175.75 289.08 175.2 290.04 173.38 290.46 171.9 289.33 169.81 289.58 168.97 289.3 167.42 289.68 166.45 289.41 165.69 290.11 165.07 291.44 164.77 296.22 162.96 296.67 164.19 297.66 164.65 299.77 164.64 300.14 162.31 301.91 161.79 302.72 162.18 302.79 160.71 303.57 159.89 303.89 158.48 305.57 159.6 309.1 159.28 309.55 159.65 312.95 160.13 313.5 159.85 314.74 160.73 315.61 160.63 316.31 159.91 317.73 159.14 316.55 158.51 315.96 157.77 315.8 156.56 319.56 155.67 320.76 157.33 322.02 158.33 323.05 158.53 322.68 159.48 321.13 160.48 320.19 160.58 317.78 162.01 316.9 162.37 315.51 163.86 315.06 164.67 314.05 165.44 314.12 166.06 315.24 166.52 315.89 166.26 317.29 166.93 316.74 169.01 317.74 168.67 319.73 168.78 320.62 169.36 321.58 169.48 322.33 170.06 323.27 170.18 323.97 169.7 323.51 168.84 323.69 166.72 324.6 165.73 324.57 165.01 325.92 163.54 328.97 162.2 329.48 161.56 330.53 160.98 330.3 159.97 331.63 158.79 331.92 158.12 331.43 157.59 332.37 156.9 333.35 157.17 334.81 157.15 335.68 157.41 335.63 158 334.71 158.71 335.44 159.61 337.6 159.98 337.96 160.52 337.1 161.15 337.08 164.2 336.9 165.33 338.24 165.51 338.64 165.99 339.73 166.28 341.31 165.88 342.88 166.57 344.83 166.49 346.15 166.79 346.9 167.86 347 168.54 349.36 169.04 349.79 169.88 350.66 170.35 351.38 170.24 352.07 172.2 353.01 172.77 354.29 172.88 354.87 174.26 356.01 174.87 357.18 174.95 358.13 175.66 358.37 176.4 359.3 176.88 359.9 177.83 359.64 178.54 359.91 179.72 360.82 180.37 362.83 180.04 363.56 181.07 363.69 182.17 365.32 183.62 366.22 183.35 367.39 184.54 368.14 184.99 368.03 185.55 368.62 186.42 369.88 187.66 371.59 188.27 372.05 188.75 373.86 189.85 374.59 189.68 378.3 191.46 378.79 191.96 380.14 191.25 381.4 192.16 382.17 191.96 383.16 192.66 383.76 192.54 384.6 193.18 386.15 193.2 388.06 195.23 387.76 196.08 387.04 196.61 386.84 197.73 386.27 199.05 388.13 198.58 388.54 199.14 390.48 199.06 391.54 199.85 393.22 199.81 394.69 200.59 395.44 201.26 397.08 200.86 398.71 200.82 399.45 201.43 400.95 201.42 401.98 201.78 403.15 200.44 403.58 199.62 405.29 200.16 406 200.15 406.68 200.82 405.12 202.03 405.34 203.19 404.77 204.3 404.99 204.75 404.54 205.65 403.03 205.9 403.64 207.16 405.87 208.89 406.73 209.12 407.19 210.03 407.95 210.15 409.58 212.3 411.6 213.07 411.94 213.54 411.16 214.14 410.32 214.08 408.42 215.25 407.66 215.08 406.28 214.04 404.71 213.35 403.18 213.07 401.34 213.54 400.15 213.15 399.22 213.74 397.44 213.37 396.43 213.4 396.7 215.15 395.08 217.41 395.54 217.75 393.77 218.95 392.39 219 391.47 218.16 390.44 218.41 389.83 218.11 388.68 218.27 387.38 219.75 386.77 219.92 386.32 220.94 385.26 221.91 384.91 222.7 383.95 223.61 381.96 223.93 380.15 225.56 378.71 227.39 375.25 228.94 373.77 230.35 373.07 230.36 372.55 231.3 371.65 231.38 370.78 232.01 368.94 231.37 367.81 230.46 366.64 231.28 365.97 231.22 365 230.13 364.41 229.09 363.6 229.7 362.36 230 361.95 229.67 360.26 229.82 358.37 230.51 357.68 230.33 356.32 231.17 354.65 230.72 353.94 231.26 353.44 232.53 352.73 232.51 350.51 233.11 349.55 231.93 348.72 231.57 346.55 233.02 347.01 233.66 345.87 234.21 345.49 235.54 344.46 235.28 342.25 236.43 341 236.63 340.86 237.11 342.24 237.62 343.49 237.73 344.02 238.47 342.64 240.64 342.17 240.7 340.8 241.85 339.97 243.28 338.94 244.59 338.85 245.22 339.98 245.71 339.31 248.05 338.64 248.89 337.16 248.83 336.87 249.6 335.48 250.03 334.61 250.88 333.95 252.77 334.06 253.54 333.48 254.71 334.54 256.44 335.96 256.54 336.51 257.31 337.47 257.18 338.71 257.43 339.24 259.23 340.37 260.26 340.1 260.91 340.27 261.9 341.15 263.25 341.48 265.43 341.98 266.38 341.74 268.03 339.22 268.6 339.43 270.6 336.83 272.14 337.83 272.76 336.45 274.26 336.74 275.58 336.55 276.43 334.33 276.88 333.92 277.21 330.99 277.64 329.48 277.53 327.99 277.96 325.72 278.06 323.53 277.69 322.04 277.9 321.18 277.25 320.46 277.45 319.34 277.1 317.91 277.5 316.59 278.15 315.87 277.53 314.4 278.37 313.32 278.32 311.58 277.47 309.65 277.13 308.78 277.53 307.8 277.35 306.85 277.8 305.59 277.88 305.03 278.74 304.23 278.96 302.95 278.68 301.53 278.66 301.47 279.12 299.89 280.12 298.89 279.95 299.34 281.88 298.61 282.98 296.66 283.19 296.18 283.78 294.64 283.47 292.69 283.86 291.28 283.87 290.81 285.1 289.69 285.57 288.84 285.13 287.56 285.87 284.36 285.91 282.19 284.61 280.63 284.26 279.53 284.68 278.04 284.84 277.92 285.4 276.37 285.89 274.92 285.74 273.72 285.11 271.84 285.6 270.79 285.57 269.54 286.11 268.65 285.24 268.48 284.62 266.14 284.85 265.03 285.42 264.1 286.35 261.79 285.97 260.74 285.18 260.1 285.09 257.65 286.38 257.16 285.41 255.8 285.06 255 284.59 253.28 284.2 251.28 283.3 250.61 282.78 248.96 283.41 248.14 282.93 246.25 283.04 244.89 282.78 243.9 284.68 242.96 285.43 242.09 285.52 241.37 286.03 240.34 284.97 240.05 284.09 238.72 283.87 235.26 284.29 234.65 285.27 234.88 286.21 232.38 286.3 231.68 286.62 228.9 286.8 227.69 287.63 226.82 287.39 224.96 287.5 224.27 288.5 222.87 288.59 223.06 289.27 221.92 290.33 222.05 291.64 221.11 292.67 220.67 294.31 220.23 295.11 219.4 295.74 219.36 297.04 219.84 297.82 217.94 299.03 217.36 299.04 216.07 298.33 215.94 296.82 215.25 295.29 215.51 294.6 214.79 294.04 213.55 294.07 213.36 292.77 212.76 291.99 211.86 292.12 211.27 291.71 209.98 292.01 207.79 292.22 206.56 291.37 205.5 289.29 206.04 288.2 205.18 287.36 205.23 285.9 203.14 284.8 202.21 285.71 200.74 286.03 199.76 285.9 198.7 286.2 198.48 286.92 197.38 286.9 196.69 287.38 196.22 288.38 195.29 288.22 194.69 290.12 193.07 290.82 188.6 290.51 186.64 291.53 185.69 291.69 185.07 291.31 184.79 290.44 183.7 289.41 182.64 287.8 182 287.26 183.65 285.69 183.61 284.96 185.16 284.43 185.93 283.35 186.14 282.57 185.66 281.63 185.65 280.33 183.95 279.31 184.18 278.64 183.78 277.84 179.93 278.55 179.09 278.26 177.6 278.39 176.94 278.8 173.73 279.02 173.37 279.26 172.23 278.04 170.51 279.01 169.59 278.28 168.07 278.1 167.4 277.18 167.84 276.75 167.11 276.05 166.49 274.21 167.43 272.1 168.78 270.65 168.56 269.76 166.84 267.94 166.01 268.07 164.78 267.1 163.96 267.14 163.62 266.43 164.63 266.08 165.28 265.15 165.52 263.35 166.3 262.87 166.46 261.91 167.66 261.33 168.27 260.04 167.95 259.49 169.47 259.11 169.92 258.63 170.96 258.97 171.88 258.57 173.12 258.66 174.3 258.44 176.26 257.2 176.59 256.3 177.58 256.08 179.47 256.07 180.1 256.65 183.04 257.04 184.61 256.75 185.54 257.1 186.49 256.62 187.4 257.44 187.01 258.91 188.14 259.74 188.87 259.63 190.03 260.15 191.33 261.18 192.73 260.86 193.34 260.38 194.27 260.71 196.35 260.72 197.38 261.52 198.35 261.43 200.65 262.01 200.14 262.56 202.87 263.48 204.16 262.87 205.83 262.85 206.45 264.47 207.41 263.83 208.8 263.76 209.41 262.76 210.43 262.84 212.73 262.27 217.05 263.51 217.31 263.05 218.81 263.8 220.75 263.59 221.11 262.79 222.01 262.38 224.26 262.2 224.85 262.5 226.53 260.57 227.26 260.68 228.51 259.85 229.03 260.42 230.07 260.13 231.5 259.22 232.66 259.54 234.08 258.63 234.26 258.06 235.52 258.05 236.21 257.08 237.48 256.06 238.05 256.07 238.61 254.6 239.5 254.37 239.59 253.03 239.03 252.9 238.16 252.02 237.8 250.63 236.4 250.53 235.25 248.63 235.63 248.05 235.39 246.95 233.85 246.65 232.55 247.8 231.6 247.89 230.59 248.54 229.18 248.36 228.74 247.42 229.65 246.76 228.59 246.29 228.19 245.35 227.57 245.15 227.61 244.18 226.95 243.43 227.25 242.5 226.5 241.59 223.33 241.16 222.72 241.45 220.97 240.68 220.16 238.4 221.36 237.12 221.14 236.58 221.83 235.64 221.04 235.55 219.97 234.88 219.65 233.86 220.76 232.98 222.1 232.49 222.49 231.99 222.17 229.93 221.72 228.77 221.16 228.29 220.16 228.39 219.94 227.62 220.44 226.25 219.83 225.42 217.14 224.56 214.85 224.46 212.96 223.63 212.69 222.77 216.4 221.52 216.31 220.46 215.47 220.49 215.3 219.61 214.58 218.55 214.32 215.59 213.33 215.55 211.29 216.07 210.54 216.47 207.67 217.12 204.57 217.36 203.74 217.89 202.51 217.56 199.63 217.15 197.71 215.84 197.81 215.23 199.77 214.24 202.03 212.59 203.62 211.82 204.11 211.08 204.94 210.03 206.08 209.62 207.13 208.91 208.33 207.67 207.5 207.44 207.48 206.84 208.63 205.74 210.88 204.36 211.69 203.64 214.7 203.37 217.59 203.62 218.54 203.97 217.83 205.31 219.91 205.99 220.32 207.21 222.17 206.93 222.92 206.42 226.47 208.33 226.94 208.82 228.23 209.34 229.98 209.61 230.73 209.34 230.83 208.57 230.4 207.57 230.75 205.93 231.79 205.59 231.57 204.98 231.89 203.86 231 203.52 230.64 202.14 230.03 201.73 228.76 201.91 227.66 201.56 227.92 200.79 229.61 200.52 230.51 199.91 230.67 198.84 229.92 197.95 228.48 197.62 228.71 196.9 227.22 196.59 226.68 195.98 225.18 195.07 228.16 194.85 228.8 193.96 229.83 193.82 230.34 194.45 231.44 195 233.11 197.34 234.75 198.74 236.02 198.41 236.48 197.33 237.44 198.9 240.22 199.72 242.54 199.8 244.02 200.71 244.51 201.27 246.17 201.62 248.06 201.51 248.83 200.72 248.75 198.23 249.08 197.41 248.29 196.41 248.89 195.89 250.52 195.34 251.14 196.03 252.21 195.92 253.93 196.28 255.44 196.92 256.31 198.4 255.78 199.13 256.37 199.42 256.13 200.52 254.03 201.14 250.15 201.05 249.86 201.31 249.67 202.18 250.42 203.25 249.39 206.52 250.31 208.16 252.18 208.4 253.37 209.77 255.18 208.04 255.66 207.84 255.32 206.8 255.41 205.19 257.58 204.91 257.36 204.17 259.91 204.08 260.34 205.92 261 205.73 260.97 204.9 261.99 204.55 262.78 205.9 264.19 205.47 262.61 204.47 263.31 203.9 262.17 202.99 262.43 201.47 261.64 201.75 261.26 201.06 261.73 200 260.34 199.79 260.42 199.04 259.56 198.94 260.12 197.82 259.91 197.36 257.99 196.65 257.93 197.48 256.9 197.51 255.48 196.79 254.63 195.33 254.7 194.46 255.2 193.54 256.52 192.33 256.97 191.62 256.83 190.71 257.81 189.73 259.79 189.54 261.73 189.85 263.1 187.81 262.68 187.31 265.34 186.46 266.84 186.16 268.09 185.59 268.99 185.53 270.51 184.19 272.2 183.17 274.37 182.93 275.77 183.17 277.06 182.94 277.94 183.81 278.6 183.17 280.44 183.55 281.14 184.74 280.79 185.76 280.94 186.5 281.82 186.47 282.53 187.48 Z" id="level=region;display_name=Ош облусу"/>
<path d="M 310.51 61.53 311.59 62.14 312.41 60.8 313.26 60.56 313.03 59.07 315.01 59.25 315.86 60.55 317.51 60.37 317.86 59.93 319.19 59.99 320.85 60.93 320.35 61.32 320.51 62.16 319.92 63.92 318.92 63.95 318.35 64.65 318.36 65.47 317.11 66.14 317.02 66.94 317.36 68.96 316.2 69.18 315.66 69.97 314.26 70.25 313.22 69.99 311.44 71.04 308.02 71.56 305.69 70.47 302.4 70.64 300.12 70.42 298.97 70.58 298.42 71.04 298.19 72.31 296.55 72.05 295.29 72.41 294.41 71.67 292.24 71.54 291.23 72.24 288.9 72.58 287.23 71.94 285.58 72.11 283.9 71.13 282.38 71.55 281.9 73.11 282.04 74.29 281.07 74.99 280.01 75.07 279.32 74.41 278.25 74.22 276.88 74.38 277.28 75.14 276.89 76 277.03 77.83 276.28 79 277.3 79.27 277.67 79.78 279.57 79.98 280.98 80.41 281.49 81.37 280.44 82.19 281.14 82.68 280.89 84.35 280.55 84.68 278.21 84.69 276.26 83.87 273.96 84.01 272.71 84.54 271.89 83.47 270.67 83 268.68 84.67 268.4 85.43 267.52 85.72 264.34 86.24 264.8 87.11 264.84 88.04 262.64 88.57 261.68 89.47 260.23 89.73 257.81 88.97 256.52 88.28 256.25 87.52 253.31 86.21 252.99 85.75 251.64 85.19 251.12 84.53 249.84 84.3 248.61 83.69 247.17 84.14 246.4 83.74 243.57 83.64 241.94 83.3 241.38 82.3 239.94 81.88 238.28 81.84 237.15 82.12 235.78 81.37 234.66 81.15 232.13 81.77 231.09 81.79 229.98 81.28 228.59 81.36 228.77 79.82 227.94 79.61 227.22 78.71 225.84 78.57 225.14 77.87 223.17 77.68 222.34 77.95 220.91 77.89 218.66 77.2 217.36 77.15 215.84 77.6 216.38 78.63 216.05 80.22 215.14 80.39 215.01 81 213.44 81.97 213.26 83.34 213.77 83.58 213.71 84.93 214.05 85.39 213.26 86.47 213.12 87.61 212.2 88.39 210.59 88.98 209.4 88.73 207.9 88.79 207.54 87.84 205.45 88.27 202.21 86.75 198.72 86.13 197.8 85.43 197.26 85.53 195.5 84.8 193.61 84.33 192.23 83.46 191.58 83.49 189.94 82.67 188.38 82.17 186.72 82.71 184.35 81.8 183.86 82.13 181.58 81.7 180.1 81.08 178.96 81.1 177.79 79.74 176.42 79.44 175.41 78.9 174.62 78.09 172.34 78.05 171.45 77.58 168.16 78.91 165.65 78.82 164.24 78.52 163.45 78.68 162.52 79.8 161.17 79.48 160.22 79.85 159.1 79.39 157.94 79.38 154.71 78.19 150.98 78.05 149.12 77.7 148.62 77.32 147.82 78.11 146.75 78.28 145.54 77.87 145.14 76.64 144.29 76.53 142.9 77.02 142.24 76.65 142.52 75.97 141.38 75.71 139.36 74.39 138.35 74.04 137.02 72.68 135.06 73.28 134 72.66 132.86 72.59 131.94 71.76 130.46 72.07 129.13 71.94 128.6 72.78 127.93 73.01 127.88 73.9 127.34 74.58 126.47 74.83 124.6 74.56 122.47 73.59 120.92 74.21 119.36 74.06 119.42 72.74 118 72 117.49 71.4 117.85 70.64 117.52 69.92 118.67 69.38 118.66 68.25 119.87 66.55 120.54 66.67 122.24 65.52 122.34 64.84 124.05 63.96 122.65 63.26 122.5 62.65 123.77 61.9 124.85 58.9 125.77 57.73 125.97 56.99 128.15 57.52 132.8 58.82 133.78 57.96 130.51 54.35 127.33 52.58 127.43 50.6 128.16 50.29 131.1 49.58 134.68 49.57 138.71 49.17 138.97 50.03 140.39 48.79 140.24 47.75 140.58 46.88 140.54 44.92 140.27 44.15 141.99 43.9 143.27 43.16 145 41.49 145.71 40.58 146.48 40.31 146.52 39.53 147.26 39.12 146.99 37.9 146.48 37.03 148.42 37.31 149.65 37.79 151.04 37.93 152.64 37.39 154.2 37.74 154.81 35.68 156.12 35.18 157.95 35.26 161.09 36.05 163.64 35.33 164.31 35.58 166.18 34.88 167.86 35.77 168.84 36.82 169.77 37.08 171.07 37.03 172.5 37.54 173.69 37.38 176.47 35.73 178.65 35.41 182.67 34.44 184.89 33.74 186.85 32.71 188.06 32.83 190.17 32.6 193.17 33.55 195.66 33.96 196.76 35.08 198.98 36.15 201.63 36.93 202.85 36.89 204.24 37.25 206.55 39.04 208.86 39.61 210.32 39.4 212.19 38.31 214.01 38.59 216.99 37.88 220.63 37.95 224.1 39.18 227.77 40.24 229.35 40.82 230.35 41.53 236.42 43.35 238.49 43.77 240.83 43.95 242.91 43.43 245.69 44.05 248.68 45.4 251.69 46.22 253.38 46.32 254.28 46.72 256.36 48.57 258.14 50.97 259.37 51.89 261.18 52.65 264.12 53.01 265.7 54.11 266.4 54.28 268.35 54.12 271.41 54.62 274.5 53.98 276.58 54.4 277.72 54.34 278.99 53.77 280.06 54.03 282.27 54.03 283.42 54.58 283.93 54.38 285.28 54.77 287.81 55.22 289.37 55.68 289.9 55.14 291.49 55.44 293.23 56.03 295.37 56.05 295.87 56.46 295.47 58.5 295.7 59.54 295.15 60.38 295.62 61.1 298.99 62.23 300.63 62.52 302.35 62.25 304.73 62.42 305.16 62.28 306.84 63.41 310.14 62.8 310.81 62.52 310.51 61.53 Z" id="level=region;display_name=Талас облусу"/>
<path d="M 225.14 77.87 225.84 78.57 227.22 78.71 227.94 79.61 228.77 79.82 228.59 81.36 229.98 81.28 231.09 81.79 232.13 81.77 234.66 81.15 235.78 81.37 237.15 82.12 238.28 81.84 239.94 81.88 241.38 82.3 241.94 83.3 243.57 83.64 246.4 83.74 247.17 84.14 248.61 83.69 249.84 84.3 251.12 84.53 251.64 85.19 252.99 85.75 253.31 86.21 256.25 87.52 256.52 88.28 257.81 88.97 260.23 89.73 261.68 89.47 262.64 88.57 264.84 88.04 264.8 87.11 264.34 86.24 267.52 85.72 268.4 85.43 268.68 84.67 270.67 83 271.89 83.47 272.71 84.54 273.96 84.01 276.26 83.87 278.21 84.69 280.55 84.68 280.89 84.35 281.7 84.34 283.1 84.92 283.52 84.44 286.4 84.68 287.29 85.03 288.49 84.95 289.95 85.51 291.74 85.57 292.11 86 295.14 86.37 295.72 86.67 296.76 90.53 297.89 91.13 299.2 91.3 300.87 90.85 301.54 91.52 302.95 91.25 303.17 92.23 304.23 92.11 304.92 91.65 305.8 91.82 306.15 92.49 307.19 92.23 308.83 92.52 310.62 93.55 312.66 93.61 313.95 93.09 314.94 93.54 316.41 93.67 317.14 93.21 318.9 93.05 322.57 92.05 323.65 92.67 324.08 92.28 325.81 93 327.68 92.58 328.69 92.81 328.53 93.41 329.21 95.03 330.16 95.42 329.84 96.22 330.04 96.98 328.44 98.77 328.27 99.74 326.77 100.36 326.82 101.24 326.04 101.91 325 101.75 324.73 102.77 326.88 102.99 328.91 103.8 329.45 104.3 331.05 104.24 331.48 103.51 331.38 102.41 335.02 104.68 336.57 104.43 337.51 105.03 338.46 104.42 339.55 104.64 340.73 104.15 341.77 104.62 343.43 106.19 342.91 107.22 342.9 108.47 343.42 109.32 343.41 110.11 344.17 110.47 344.59 111.18 343.93 112.11 346.78 112.85 349.46 112.61 350.88 113.29 351.78 113.17 351.65 114.39 351.19 115.1 351.38 116.6 351.24 118.29 351.46 120.23 351.37 121.2 349.48 121.73 348.7 121.47 347.65 120.27 348.49 119.72 348.79 119.02 348.63 117.9 346.81 116.5 345.45 116.02 344 116.18 342.88 115.59 341.01 115.38 340.29 114.74 337.54 114.65 337.62 116.17 338.12 116.28 339.37 118.66 341.21 118.11 342.17 118.28 344.28 119.84 344.07 120.39 344.73 121.51 345.71 122.47 346.81 122.93 347.48 123.66 349.12 124.17 351.6 124.36 352.49 123.91 353.6 124.28 354.44 123.83 356.91 124.55 358.62 125.91 359.69 126.07 362.18 124.8 363.8 125.34 364.02 124.89 365.15 124.7 366.36 125.01 371.12 125.08 372.35 125.74 373.81 125.03 376.21 125.65 376.93 125.18 377.35 123.97 379.39 123.68 381.16 124.13 381.97 123.68 382.73 123.78 383.86 124.64 384.7 123.14 385.68 122.32 388.04 121.18 390.03 121.62 391.16 120.81 393.35 120.9 394.13 119.83 395.68 119.56 398.03 119.46 398.46 119.27 399.35 120.3 399.18 121.59 398.72 122.29 397.64 122.45 397.3 123.18 398.06 124.12 398.81 124.53 399.34 126.48 398.74 128.83 398.12 128.97 396.54 131.23 395.31 131.7 395.45 132.58 395.12 133.9 395.08 135.14 394.26 136.25 392.3 136.26 390.99 137.36 389.8 138.66 388.42 138.63 385.42 139.24 385.5 140 384.59 140.26 382.34 140.14 381.88 140.59 376.84 141.06 376.61 141.71 375.44 142.6 373.81 143.13 370.57 143.42 370.06 143.91 368.94 144.09 368.96 146.27 369.27 147.08 370.34 147.62 370.56 148.75 371.77 149.06 372.87 150.04 371.1 151.43 369.89 151.91 367.25 150.85 364.73 150.93 363.02 151.48 360.62 151.56 359.2 151.94 358 151.64 356.32 151.75 355.75 152.62 353.34 153.71 351.89 154.01 351.24 155.08 348.8 155.73 348.01 156.93 348.41 158.16 349.86 159.41 350.03 160.14 351.79 161.69 351.02 163.64 350.26 163.83 348.84 165.05 347.73 166.99 346.9 167.86 346.15 166.79 344.83 166.49 342.88 166.57 341.31 165.88 339.73 166.28 338.64 165.99 338.24 165.51 336.9 165.33 337.08 164.2 337.1 161.15 337.96 160.52 337.6 159.98 335.44 159.61 334.71 158.71 335.63 158 335.68 157.41 334.81 157.15 333.35 157.17 332.37 156.9 331.43 157.59 331.92 158.12 331.63 158.79 330.3 159.97 330.53 160.98 329.48 161.56 328.97 162.2 325.92 163.54 324.57 165.01 324.6 165.73 323.69 166.72 323.51 168.84 323.97 169.7 323.27 170.18 322.33 170.06 321.58 169.48 320.62 169.36 319.73 168.78 317.74 168.67 316.74 169.01 317.29 166.93 315.89 166.26 315.24 166.52 314.12 166.06 314.05 165.44 315.06 164.67 315.51 163.86 316.9 162.37 317.78 162.01 320.19 160.58 321.13 160.48 322.68 159.48 323.05 158.53 322.02 158.33 320.76 157.33 319.56 155.67 315.8 156.56 315.96 157.77 316.55 158.51 317.73 159.14 316.31 159.91 315.61 160.63 314.74 160.73 313.5 159.85 312.95 160.13 309.55 159.65 309.1 159.28 305.57 159.6 303.89 158.48 303.57 159.89 302.79 160.71 302.72 162.18 301.91 161.79 300.14 162.31 299.77 164.64 297.66 164.65 296.67 164.19 296.22 162.96 291.44 164.77 290.11 165.07 289.41 165.69 289.68 166.45 289.3 167.42 289.58 168.97 289.33 169.81 290.46 171.9 290.04 173.38 289.08 175.2 288.19 175.75 287.24 175.38 285.72 175.66 284.7 175.58 284.11 176.78 282.52 177.56 281.23 177.36 277.44 177.58 276.07 177.16 275.15 177.74 273.9 177.28 272.39 178.37 271.43 178.43 270.95 179.08 269.84 179.52 269.85 180.22 268.46 180.55 266.79 180.1 265.64 179.45 265.05 178.41 263.25 177.4 260.81 176.51 259.9 176.65 256.31 176.71 251.97 177.04 250.89 176.6 249.34 176.82 245.94 176.04 244.4 175.25 243.66 175.44 242.07 175.08 242.36 174.33 243.26 172.93 241.16 170.49 240.74 169.46 239.76 168.51 238.34 168.96 237.93 168.24 236.44 168.4 235.66 167.79 236.52 167.16 235.44 166.69 235.62 165.96 232.43 163.72 231.12 163.51 230.44 164.1 228.72 164.02 227.86 163.72 227.56 163.04 226.45 162.87 225.41 161.65 224.89 162.63 224.14 163.33 223.09 163.77 221.54 163.85 219.81 165.21 217.93 165.92 216.11 165.95 212.59 166.4 211.68 165.63 211.86 165.05 213.38 165.52 214.48 163.76 215.23 163.95 215.4 162.32 215.2 161.51 214.14 159.68 213.95 158.58 213.17 158.27 213.12 157.53 211.02 156.9 211.13 155.95 212.1 155.49 212.97 154.61 212.03 154.07 210.8 154.43 210.07 154.2 208.86 154.86 208.15 154.81 207.35 155.37 206.92 156.21 205.5 157.16 202.77 156.14 201.03 155.66 200.58 154.63 197.2 154.59 196.58 155.39 193.82 154.34 193.15 154.42 191.83 153.8 191.64 151.95 190.05 151.4 190.59 150.18 191.26 149.63 191.84 147.38 192.56 147.16 193.41 145.77 194.65 144.6 192.84 143.52 191.39 141.43 192.34 141.08 192.24 140.51 191.1 139.73 190.39 140.6 188.69 140.36 187.98 139.65 188.5 138.76 187.78 138.6 187.8 137.8 186.45 137.4 185.02 135.65 184.96 134.03 183.62 133.41 182.6 134.33 180.43 133.68 180.11 134 180.33 135.97 180.07 136.73 178.73 136.77 177.4 135.48 177.85 134.81 178.03 133.6 179.86 132.04 179.06 130.52 180.43 129.28 180.57 128.53 179.78 127.9 180.95 127.19 180.71 126.46 179.53 126.11 178.07 126.53 178.14 127.53 176.56 128.54 176.04 129.81 174.12 130.56 172.55 130.51 171.41 131.56 172.44 131.63 173.12 131.25 174.7 130.94 175.58 133.12 176.23 133.71 176.86 135.3 175.76 136.79 174.67 137.03 175.52 138.2 173.63 141.09 171.78 141.63 171.21 142.58 168.09 144.91 166.4 144.59 165.42 144.8 165.08 143.76 164.53 143.7 162.93 144.56 161.56 144.41 159.82 145.27 160.23 145.78 159.51 147.96 160.37 148.8 159.92 149.49 160.51 149.87 160.7 150.93 158.69 152.25 158.99 153.45 160.02 154.01 160.18 154.59 158.77 156.36 156.11 158.21 155.06 156.91 154.16 157.22 152.54 156.76 150.77 157.15 149.95 157.82 147.64 158.6 147.33 157.77 147.56 155.1 147.14 153.4 146.05 152.45 145.64 152.69 144.15 152 143.64 152.46 143.65 153.57 142.71 153.77 142.04 152.51 140.98 152.85 140.24 153.71 139.08 153.87 137.78 154.92 136.56 155.57 135.77 155.46 133.05 153.81 132.46 153.11 130.9 152.81 130.14 152.16 128.28 152.53 125.72 153.7 124.58 153.95 123.11 153.22 122.51 152.1 121.52 151.84 119.21 150.43 118.31 149.02 117.02 148.16 115.72 147.75 114.75 148.09 113.27 149.15 112.71 149.24 112.56 150.33 111.85 151.43 111 150.26 110.78 147.12 110.45 146.72 111.08 145.62 110.79 143.77 111.68 142.31 111.07 141.78 111.37 140.22 111.17 137.75 109.64 136.65 109.28 135.92 107.97 134.92 107.87 134.35 106.99 133.84 106.58 133 106.71 132.11 102.99 131.79 101.69 132.69 100.43 132.45 98.45 133.05 97.77 132.77 97.16 133.78 95.99 133.81 95.73 134.6 94.76 135.38 94.66 136.16 93.47 136.26 91.91 136.98 91.24 136.69 90.03 137.04 88.66 136.16 88.28 134.94 86.43 133.53 85.25 133.12 84.43 132.48 84.17 131.78 82.23 132.05 80.97 130.16 79.84 130.13 78.17 129.59 76.58 128.12 74.54 128.82 74.25 129.61 72.01 130.25 70.47 129.93 69.88 129.32 68.06 128.96 67.12 128.43 67.71 127.63 68.16 126.35 67.56 125.44 68.35 124.67 69.69 124.29 70.22 122.71 69.74 121.47 71.05 121.57 72.03 121.1 73.67 121.81 74.81 120.91 75.81 120.76 76.48 120.07 77.95 119.66 79.4 119.57 81.23 118.89 82.58 116.97 83.38 116.22 86.28 115.03 87.25 114.88 88.49 113.56 90.67 113.63 91.55 111.66 91.25 111.38 91.54 109.82 92.91 107.89 94.04 107.68 95.94 107.01 96.47 106.41 97.94 106.46 98.02 105.21 98.43 104.09 100.14 104.02 100.46 103.42 102.24 101.55 102.91 100 104.54 99.37 106.02 99.06 107.68 99.01 108.27 99.49 109.57 99.37 109.63 97.85 110.8 98.44 112.02 98.39 113.24 99 113.78 98.59 115.28 98.82 116.67 97.48 116.79 96.83 116.29 95.1 116.53 94.03 115.5 93.25 116.16 91.88 117.05 91.27 116.79 90.32 117.49 89.28 118.27 89.81 119.16 89.45 120.07 90.25 121.08 90.17 123.1 90.96 125.79 90.83 126.78 91.01 127.46 90.01 128.29 89.41 128.42 88.78 129.41 88.3 130.23 88.59 130.9 87.32 132.27 87.02 133.46 86.36 134.56 86.34 134.75 85.19 136.76 84.74 137.58 83.47 138.42 83.74 139.96 82.76 141.53 82.78 141.83 83.21 143.16 83.24 144.61 82.07 145.3 81.14 146.17 80.66 145.54 79.99 146.89 78.93 146.75 78.28 147.82 78.11 148.62 77.32 149.12 77.7 150.98 78.05 154.71 78.19 157.94 79.38 159.1 79.39 160.22 79.85 161.17 79.48 162.52 79.8 163.45 78.68 164.24 78.52 165.65 78.82 168.16 78.91 171.45 77.58 172.34 78.05 174.62 78.09 175.41 78.9 176.42 79.44 177.79 79.74 178.96 81.1 180.1 81.08 181.58 81.7 183.86 82.13 184.35 81.8 186.72 82.71 188.38 82.17 189.94 82.67 191.58 83.49 192.23 83.46 193.61 84.33 195.5 84.8 197.26 85.53 197.8 85.43 198.72 86.13 202.21 86.75 205.45 88.27 207.54 87.84 207.9 88.79 209.4 88.73 210.59 88.98 212.2 88.39 213.12 87.61 213.26 86.47 214.05 85.39 213.71 84.93 213.77 83.58 213.26 83.34 213.44 81.97 215.01 81 215.14 80.39 216.05 80.22 216.38 78.63 215.84 77.6 217.36 77.15 218.66 77.2 220.91 77.89 222.34 77.95 223.17 77.68 225.14 77.87 Z" id="level=region;display_name=Жалал-Абад облусу"/>
<path d="M 745.16 104.59 743.74 103.97 741.36 104.69 739.48 104.81 737.66 106.66 736.44 107.19 734.91 108.25 734 107.33 733.17 107 732.14 108.13 731.03 108.49 729.61 110.24 727.74 110.89 727.78 111.77 726.61 111.89 726.38 112.46 725.45 113.16 723.97 113.37 721.55 112.97 719.84 113.53 718.7 113.43 718.09 114.62 716.79 114.98 715.73 115.8 713.97 115.88 712.81 116.56 711.74 116.54 711.83 117.22 710.89 118.21 709.97 118.18 708.99 117.72 706.99 118.71 705.37 119.09 704 120.62 702.85 121.41 701.69 121.63 701.19 122.69 700.56 122.9 699.6 122.54 698.88 123.11 698.88 123.83 697.53 124.43 696.85 124.43 696.21 125.35 694.97 125.35 694.48 124.97 693.25 125.39 691.35 125.52 690.6 125.9 689.62 125.62 687.97 126.25 687.11 127.37 688.06 127.98 687.26 128.86 686.31 128.93 685.12 129.68 684.57 130.93 683.79 131.87 682.01 131.31 680.52 131.97 679.44 131.88 679.07 131.04 677.45 131.32 675.71 133.04 675.28 134.03 674.21 133.94 673.77 134.53 671.84 134.94 669.58 135.95 668.78 135.65 667.73 135.74 666.36 136.22 665.21 136.31 665.35 136.91 664.67 137.51 661.34 137.27 660.23 138.29 659.34 137.65 657.92 137.5 657.11 137.74 654.7 137.31 654.26 136.87 652.71 137.18 650.65 137.36 648.26 138.22 647.5 139.26 648.34 141.16 646.93 143.18 647.01 145.08 646.61 145.21 646.42 147.71 646.6 148.14 645.71 149.46 644.49 149.8 643.52 149.62 641.95 150.32 640.88 150.44 638.45 151.96 636.62 152.01 634.89 152.8 634.34 152.28 630.46 152.49 629.96 152.64 629.47 152.14 627.59 151.44 626.5 151.53 625.41 151.28 622.48 151.13 622.26 150.68 620.65 150.51 618.95 151.12 617 151.04 615.12 151.85 613.47 151.29 612.8 150.63 611.93 150.66 611.17 149.97 611.16 147.84 611.74 146.88 612.98 145.92 612.88 145.42 610.09 145.54 609.75 144.69 608.27 144.73 606.52 145.07 605.28 144.77 603.32 145.07 599 146.4 597.95 146.88 590.82 147.75 590.75 147.38 592.24 146.83 594.01 145.59 594.62 143.48 594.58 142.55 595.22 141.29 595.81 141.09 596.52 140.19 595.63 138.76 594.54 138.22 592.25 138.27 589.88 137.77 588.09 136.67 587.73 134.76 587.34 134.42 587.01 132.71 586.49 131.08 585.2 129.8 587.94 129.15 589.05 128.7 589.65 127.62 590.55 126.83 591.03 125.44 590.89 124.01 590.25 122.62 589.55 121.98 589.38 121.09 588.17 121.23 587.46 122.54 586.64 123.39 585.68 123.42 583.42 124.61 580.44 124.87 579.85 125.22 578.26 124.43 576.26 124.77 574.8 124.57 574.26 124.08 572.68 124.5 569.34 123.92 569.3 124.49 568.47 124.93 567.57 124.74 566.08 125.74 565.1 125.47 563.91 125.64 563.19 125.25 563.48 123.96 562.63 123.87 558.18 124.08 555.38 125.68 554.64 125.03 552.03 124.6 549.31 125.06 548.67 124.16 547.95 124.08 547.03 122.69 545.98 122.21 545.02 122.46 544.57 123.52 543.44 123.8 541.26 123.24 541.02 122.16 541.33 120.75 542 119.87 542.75 119.64 543.57 118.7 543.68 117.35 541.78 115.99 541.76 115.48 544.68 114.03 544.98 113.25 544.77 111.39 545.15 110.56 543.85 110.1 542.83 109.42 540.4 109.2 539.59 109.73 539.05 110.77 536.49 111.3 534.09 111.3 532.1 111.03 529.31 111.35 528.41 110.57 527.07 110.26 525.84 110.67 523.38 110.49 524.13 109.71 524.16 108.83 523.56 107.88 523.58 107.18 524.22 105.52 526.25 103.75 530.3 104.17 532.15 103.7 534.02 104.29 535.06 104.2 536.44 103.34 536.74 101.22 538.05 100.46 539.07 99.34 538.92 98.62 538.1 97.56 536.61 98.62 535.63 98.47 534.59 97.78 534.62 97.1 531.05 96.64 530.74 95.55 529.04 95.41 527.3 94.49 525.56 94.09 525.37 94.5 524.07 94.65 522.99 94.15 521.68 94.28 519.62 93.92 519.45 93.24 517.91 92.59 516.69 92.68 514.69 92.13 513.8 92.64 512.43 92.46 511.58 91.88 510.89 92.27 509.68 91.55 508.67 91.46 507.73 90.88 506.86 91.08 505.55 90.1 504 91 503.58 91.67 502.39 91.76 501.63 91.36 500.76 91.73 498.44 91.98 496.49 92.48 494.14 92.11 494.56 90.28 495.82 89.83 495.97 89.01 497.79 89.15 498.91 88.14 498.56 86.92 499.62 86.15 499.86 85.01 500.57 83.99 499.53 82.84 498.48 82.61 495.21 81.29 495.38 79.87 493.83 78.75 491.33 77.62 491.57 75.29 490.05 73.01 489.88 70.45 490.18 69.81 489.28 69.55 489.22 68.67 489.95 65.74 489.47 64.87 486.4 64.6 484.23 63.76 483.64 64.01 483.49 65.07 482.87 66.47 482.14 67 480.6 67.15 478.34 66.98 476.55 67.36 475.81 65.36 476.51 64.49 476.06 63.94 474.86 63.85 473.19 64.32 471.78 63.32 469.24 62.33 468.44 62.6 467.76 62.11 466.12 61.81 465.19 60.82 466.01 59.9 467.25 59.5 468.72 58.38 468.82 57.79 469.81 56.55 469.82 55.61 471.4 55.14 472.73 55.26 473.78 54.17 475.28 53.93 477.5 54.74 478.07 52.6 477.07 51.25 477.69 49.82 478.07 49.57 479.64 50.71 481.71 51.07 482.47 51.56 485.36 50.57 487.46 50.67 487.58 51.27 488.76 51.22 488.98 50.57 490.33 50.3 490.7 49.72 491.82 49.48 494.44 49.64 495.1 49 497.53 48.93 498.94 48.29 501.58 48.53 502.24 48.95 504.49 48.8 505.5 47.75 505.14 46.87 505.96 46.16 508.48 45.6 509.53 44 510.24 43.93 512.81 42.19 515.06 41.34 516.93 40.86 517.89 39.91 518.9 39.78 520.57 39.05 521.97 38.87 523.51 38.29 524.97 38.34 526.59 37.56 526.95 37.1 529.59 37.18 530.57 37.01 532.61 37.45 535.31 36.76 538.05 36.92 538.42 37.1 541.9 36.52 542.5 36.79 546.04 37 547.23 36.67 549.2 36.61 550.32 35.76 552.7 35.31 553.48 34.56 555.18 34.97 556.68 34.55 560.61 34.68 562.57 34.37 563.59 34.56 565.38 33.94 567.21 34.04 568.07 33.81 570.25 33.97 571.03 34.25 572.33 33.72 573.26 31.9 573.19 30.86 573.55 29.9 574.27 29.89 575.31 29.09 575.42 28.59 576.81 28.2 577.24 27.59 579.82 27.17 580.21 26.54 581.09 26.83 583.8 26.72 585.54 27.16 586.06 26.5 587.6 26.82 589.83 27.78 590.83 27.21 593.49 26.29 594.83 25.64 595.81 25.85 597.21 25.63 598.32 24.88 599.13 25.86 601.88 25.6 602.41 25.07 604.11 24.83 604.8 25.6 606.01 25.94 606.35 26.57 608.72 26.68 609.4 26.29 611.22 26.54 611.99 26.87 612.88 26.4 614.15 26.82 614.82 27.42 616.57 27 617.24 27.38 618.43 27.03 619.57 27.29 620.82 26.63 623.09 27.54 623.53 28.64 625.28 29.03 625.95 28.66 627.64 28.57 628.5 29.12 629.59 29.3 630.4 29.84 632.06 29.08 632.56 29.44 632.74 30.62 634.51 31.28 636.99 30.42 637.03 29.85 638.65 30.3 639.42 30.24 641 31.49 641.94 31.23 643.64 31.36 644.73 30.38 647.76 30.79 649.36 30.6 649.97 30.19 650.17 29.3 651.28 29.02 652.56 29.92 653.11 29.38 654.84 29.75 655.61 29.64 659.22 30.82 662.38 30.97 663.26 30.38 663.81 28.68 664.44 28.5 665.54 29.17 666.77 29.38 668.52 29.18 669.05 28.61 669.98 28.69 670.71 27.97 671.65 28.23 672.68 27.66 673.62 28.31 674.82 28.51 675.96 29.09 676.33 29.96 678.76 30.42 679.24 31.22 680.13 31.55 681.5 31 682.38 31.61 683.6 31.9 684.05 33.04 685.22 33.91 687.42 33.92 688.53 33.09 689.74 33.34 690.33 33.89 691.72 33.61 693.24 33.89 694.13 34.95 694.94 34.35 697.25 34.64 698.89 35.36 699.89 34.94 702.62 35.82 704.61 36.86 707.29 36.31 708.69 36.73 711.34 36.65 711.8 37.71 712.88 37.7 713.8 36.77 714.71 36.69 716.54 35.94 717.4 36.3 720.55 35.32 724.21 34.66 723.83 36.39 722.2 38.26 722.09 40.15 722.93 41.8 722.92 42.45 725.44 45.46 727.2 46.76 728.01 47 729.41 47.97 731.4 48.08 732.89 49.39 734.88 49.38 737.15 51 737.44 52.04 738.72 53.17 740.54 54.18 741.15 55.72 742.55 56.23 742.54 56.78 744.42 57.32 745.43 57.82 746.03 58.62 746.42 59.75 747.99 59.94 750.07 59.61 750.51 59.93 752.03 59.77 753 60.14 754.4 59.85 756.31 60.13 756.56 59.16 757.37 58.6 758.69 58.28 760.39 58.62 761.47 59.14 762.04 58.97 764.13 59.45 764.22 60.28 765.82 60.03 766.97 60.71 768.4 60.61 770.17 61.04 772.08 60.81 772.69 61.35 773.45 61.19 775.12 61.4 776.66 61.03 776.94 61.47 778.29 61.3 778.58 61.62 780.12 61.76 779.86 62.55 780.37 63.46 780.15 63.96 781.17 65.74 782.51 65.71 782.56 66.67 783.41 67.03 783.84 67.88 784.67 68.26 788.41 68.52 788.27 69.53 788.71 70 790.2 70.24 791.62 71.14 792.84 72.43 791.07 73.11 795.16 77.88 794.49 79.49 794.39 81.9 792.77 82.07 792.55 82.69 793.43 83.13 793.66 84.04 793.37 84.61 794.51 85.88 797.62 87.89 799 88.43 798.86 88.88 796.93 90.54 795.18 90.41 792.51 90.94 791.27 90.58 789.45 90.37 787.97 89.87 787.32 90.03 784.38 89.65 783.72 90.18 782.14 90.22 780.93 89.9 780.18 90.25 779.09 89.93 777.29 90.3 776.21 90.15 774.93 90.7 771.87 91.63 771.18 92.3 771.2 93.17 771.71 94.27 770.37 94.98 770.12 95.51 769.16 95.8 769.24 96.81 768.08 97.85 768.42 98.27 768.05 99.09 766.71 100.39 765.66 101.07 764.48 100.37 762.17 100.37 760.88 100.87 760.07 100.6 758.07 100.89 756.1 100.98 754.6 102.27 754.47 103.38 751.19 104.63 750.19 104.61 749.43 105.07 747.65 105.1 746.92 104.86 745.87 105.06 745.16 104.59 Z" id="level=region;display_name=Ысык-Көл облусу"/>
<path d="M 377.43 8.47 380.26 9.29 381.81 8.97 383.12 9.96 386.01 10.44 386.8 10.9 387.72 10.75 388.42 11.98 389.45 12.54 390.49 14.23 391.8 14.58 392.57 16.08 394 16.61 394.6 17.41 396.25 17.68 397.33 18.97 398.62 20.09 399.88 20.87 402.06 20.93 402.82 20.31 405.87 20.44 406.28 20.14 407.81 20.44 409.21 21.25 410.94 21.85 411.63 22.49 412.4 22.5 415.61 23.81 416.69 24.46 418.19 24.66 419.12 25.36 420.15 25.6 421.17 26.21 422.24 26.05 423.72 26.76 424.45 26.66 428.45 28.78 431.02 29.39 432.39 29.53 432.84 30.24 435.32 31.09 437.55 30.57 439.32 30.72 442.98 30.95 444.54 31.49 445.29 31.29 448.99 32.11 450.51 31.99 451.16 32.26 452.57 32.35 453.61 31.83 456.2 32.48 458.69 32.82 460 32.77 465.89 34.15 467.55 34.67 470.67 35.18 473.92 32.55 474.72 31.05 475.73 27.77 476.81 26.42 478.42 24.89 479.31 25.03 480.22 24.63 483.71 24.46 486.71 23.65 487.64 24.4 488.08 25.25 491.88 25.87 493.34 26.91 494.52 26.52 495.78 26.54 496.39 26.13 497.7 26.4 498.36 26.01 499.84 26.05 505.5 25.47 505.86 26.5 508.61 26.12 510.57 26.32 513.22 26.89 513.78 27.65 513.12 28.57 513.41 29.57 514.87 29.75 515.2 30.36 516.31 30.57 517.57 30.1 518.17 30.21 519.7 29.47 521.75 29.65 522.79 29.29 523.26 28.69 524.14 28.94 526.65 28.56 527.15 27.48 527.9 27.28 527.97 26.37 529.29 26.08 530.63 26.48 531.29 26.99 533.11 27.25 534.51 27.06 535.06 26.57 537.07 27.29 538.42 26.92 540.5 27.01 542.89 27.41 544.86 26.42 545.83 26.12 546.28 25.21 545.78 24.64 546.27 24.07 548.1 23.6 549.43 24.25 551.18 23.7 552.21 22.47 552.08 21.74 555 22.53 555.51 22.12 557.64 22.51 558.16 22.89 559.27 22.53 559.8 21.74 560.98 21.97 562.01 21.37 562.97 21.77 564.38 21.64 565.07 23.04 566.01 23.86 566.94 24.25 568.48 22.94 568.57 22.1 570.25 21.79 571.61 22.29 572.49 22.19 573.14 22.62 575.26 22.42 575.52 24.55 577.34 24.5 578.27 24.81 579.54 25.68 580.4 25.68 580.21 26.54 579.82 27.17 577.24 27.59 576.81 28.2 575.42 28.59 575.31 29.09 574.27 29.89 573.55 29.9 573.19 30.86 573.26 31.9 572.33 33.72 571.03 34.25 570.25 33.97 568.07 33.81 567.21 34.04 565.38 33.94 563.59 34.56 562.57 34.37 560.61 34.68 556.68 34.55 555.18 34.97 553.48 34.56 552.7 35.31 550.32 35.76 549.2 36.61 547.23 36.67 546.04 37 542.5 36.79 541.9 36.52 538.42 37.1 538.05 36.92 535.31 36.76 532.61 37.45 530.57 37.01 529.59 37.18 526.95 37.1 526.59 37.56 524.97 38.34 523.51 38.29 521.97 38.87 520.57 39.05 518.9 39.78 517.89 39.91 516.93 40.86 515.06 41.34 512.81 42.19 510.24 43.93 509.53 44 508.48 45.6 505.96 46.16 505.14 46.87 505.5 47.75 504.49 48.8 502.24 48.95 501.58 48.53 498.94 48.29 497.53 48.93 495.1 49 494.44 49.64 491.82 49.48 490.7 49.72 490.33 50.3 488.98 50.57 488.76 51.22 487.58 51.27 487.46 50.67 485.36 50.57 482.47 51.56 481.71 51.07 479.64 50.71 478.07 49.57 477.69 49.82 477.07 51.25 478.07 52.6 477.5 54.74 475.28 53.93 473.78 54.17 472.73 55.26 471.4 55.14 469.82 55.61 469.81 56.55 468.82 57.79 468.72 58.38 467.25 59.5 466.01 59.9 465.19 60.82 464.75 60.59 463.9 60.85 463.52 61.56 461.38 61.86 460.92 62.49 458.7 62.61 458.38 62.16 457.08 62.34 456.46 61.84 456.69 61 455.88 60.32 454.2 61.51 452.33 61.53 450.86 61.98 449.48 61.47 448.36 62.32 447.7 62.15 445.86 60.46 445.13 60.76 443.85 61.86 442.36 61.77 440.79 62.06 438.9 62.84 437.17 62.9 435.4 61.87 433.8 61.92 432.37 61.57 431.39 62.28 429.5 62.17 427.45 60.89 426.4 61.12 424.26 62.63 422.57 62.49 421.79 62.69 420.89 62.13 420.35 61.07 418.86 60.87 418.76 61.43 417.26 61.82 417.05 62.26 415.29 62.33 413.97 61.76 412.09 61.8 410.55 62.33 409.53 61.75 407.71 62.45 407.06 62.23 405.08 62.34 403.97 62.72 403.82 63.37 404.82 64.25 405.42 65.5 406.09 66.08 408.22 69.27 408.96 69.23 409.28 70 408.15 71.07 406.99 71.44 406.52 70.97 405.63 71.27 403.95 71.24 402.96 70.94 402.62 71.46 401.12 72 399.23 71.7 398.75 72.74 397.58 73.49 396.36 73.49 396.21 74.64 395.4 75.95 393.82 75.5 392.31 75.64 391.8 75.4 390.13 75.93 388.42 75.99 387.64 76.4 386.57 76.15 384.89 76.56 384.06 76.47 382.17 77.08 380.98 77.18 378.46 76.85 377.75 77.2 376.87 77.01 375.31 77.84 374.66 78.41 374.74 79.07 373.99 80.62 372.28 81.82 371.69 82.5 373.12 83.32 374.28 84.26 372.61 85.52 373.07 86.28 371.56 86.64 371.06 87.24 371.1 88.59 371.53 89.37 371.18 89.76 369.28 90.15 368.51 92.06 368.76 92.69 367.46 93.34 366.9 94.12 365.4 95.49 365 96.46 365.55 97.62 365.17 98.6 364.18 98.96 363.55 99.61 360.75 98.86 359.63 98.98 358.89 98.69 357.06 99.66 355.26 102.01 355.41 103.86 354.61 104.64 353.81 103.83 354.11 102.09 355.12 100.01 355.1 98.84 354.55 98.62 353.11 99.53 351.14 99.92 350.12 100.33 349.83 99.76 348.47 98.62 347.64 97.46 346.13 96.98 345.88 96.62 344.12 95.86 343.17 94.56 342.07 94.63 340.29 96.44 337.63 96.6 337.26 96.98 335.77 97.02 335.19 96.77 333.19 96.75 330.51 97.21 330.04 96.98 329.84 96.22 330.16 95.42 329.21 95.03 328.53 93.41 328.69 92.81 327.68 92.58 325.81 93 324.08 92.28 323.65 92.67 322.57 92.05 318.9 93.05 317.14 93.21 316.41 93.67 314.94 93.54 313.95 93.09 312.66 93.61 310.62 93.55 308.83 92.52 307.19 92.23 306.15 92.49 305.8 91.82 304.92 91.65 304.23 92.11 303.17 92.23 302.95 91.25 301.54 91.52 300.87 90.85 299.2 91.3 297.89 91.13 296.76 90.53 295.72 86.67 295.14 86.37 292.11 86 291.74 85.57 289.95 85.51 288.49 84.95 287.29 85.03 286.4 84.68 283.52 84.44 283.1 84.92 281.7 84.34 280.89 84.35 281.14 82.68 280.44 82.19 281.49 81.37 280.98 80.41 279.57 79.98 277.67 79.78 277.3 79.27 276.28 79 277.03 77.83 276.89 76 277.28 75.14 276.88 74.38 278.25 74.22 279.32 74.41 280.01 75.07 281.07 74.99 282.04 74.29 281.9 73.11 282.38 71.55 283.9 71.13 285.58 72.11 287.23 71.94 288.9 72.58 291.23 72.24 292.24 71.54 294.41 71.67 295.29 72.41 296.55 72.05 298.19 72.31 298.42 71.04 298.97 70.58 300.12 70.42 302.4 70.64 305.69 70.47 308.02 71.56 311.44 71.04 313.22 69.99 314.26 70.25 315.66 69.97 316.2 69.18 317.36 68.96 317.02 66.94 317.11 66.14 318.36 65.47 318.35 64.65 318.92 63.95 319.92 63.92 320.51 62.16 320.35 61.32 320.85 60.93 319.19 59.99 317.86 59.93 317.51 60.37 315.86 60.55 315.01 59.25 313.03 59.07 313.26 60.56 312.41 60.8 311.59 62.14 310.51 61.53 309.09 59.78 307.7 59.52 306.91 58.64 306.46 57.61 305.05 56.38 304.44 55.5 304.51 54.64 303.88 53.66 304.06 52.9 303.29 51.78 303.82 50.84 304.01 49.62 303.51 48.46 303.74 46.51 305.12 44.87 305.51 43.85 305.33 43.22 306.04 42.09 306.84 40.02 309.34 37.47 310.01 34.39 310.09 31.1 309.7 28.82 308.84 28.01 309.05 26.21 309.96 25.4 311.78 24.5 312.82 22.87 312.09 21.51 311.84 19.89 312.62 18.56 313.12 18.26 317.75 16.84 319.54 16.08 323.32 15.06 327.08 13.42 328.42 12.68 330.61 12.23 331.3 11.9 333.33 11.06 333.9 11.85 336.01 12.02 338.82 12.43 339.96 10.91 340.49 9.74 341.51 8.97 342.12 7.9 342.74 5.83 342.41 5.12 343.54 4.21 346.68 6.26 348.14 7.41 348.76 7.9 351.27 6.83 355.31 6.34 358.08 5.96 361.04 6.17 361.85 5.49 359.72 1.83 360.56 1 362.47 2.09 363.87 1.89 364.89 2.69 366.28 2.48 367.08 2.82 368.14 4.68 370.48 5.03 371.85 6.05 373.69 6.06 375.15 6.71 374.78 7.04 376.59 7.76 377.43 8.47 Z M 382.58 21.19 383.61 20.27 382.71 19.53 382.58 21.19 Z M 396.54 29.1 396.4 29.34 393.49 29.09 393.56 28.31 391.64 28.07 391.2 26.57 392.34 24.61 390.9 24.21 391.59 22.46 390 23.13 390.1 25.97 389.21 26.85 389.34 25.79 388.98 25.26 389.22 24.1 388.17 24.09 387.52 25.29 387.72 26.92 386.63 27 386.69 28 384.02 28.06 382.81 28.23 382.99 29.59 381.11 30.62 381.11 31.59 381.96 31.6 381.74 33.35 382.48 33.4 383.54 32.19 384.89 32.34 384.81 34.31 385.9 34.05 387.04 34.89 387.81 36.07 388.33 35.5 388.46 34.99 390.31 34.49 392.74 34.84 392.23 32.63 393.01 32.51 393.01 31 394.05 31.03 393.85 31.89 394.84 31.8 394.93 31.18 397.05 31.69 396.82 30.35 397.26 30.15 396.52 29.72 396.54 29.1 Z" fill-rule="evenodd" id="level=region;display_name=Чүй облусу"/>
<path d="M 406.68 200.82 406 200.15 405.29 200.16 403.58 199.62 403.15 200.44 401.98 201.78 400.95 201.42 399.45 201.43 398.71 200.82 397.08 200.86 395.44 201.26 394.69 200.59 393.22 199.81 391.54 199.85 390.48 199.06 388.54 199.14 388.13 198.58 386.27 199.05 386.84 197.73 387.04 196.61 387.76 196.08 388.06 195.23 386.15 193.2 384.6 193.18 383.76 192.54 383.16 192.66 382.17 191.96 381.4 192.16 380.14 191.25 378.79 191.96 378.3 191.46 374.59 189.68 373.86 189.85 372.05 188.75 371.59 188.27 369.88 187.66 368.62 186.42 368.03 185.55 368.14 184.99 367.39 184.54 366.22 183.35 365.32 183.62 363.69 182.17 363.56 181.07 362.83 180.04 360.82 180.37 359.91 179.72 359.64 178.54 359.9 177.83 359.3 176.88 358.37 176.4 358.13 175.66 357.18 174.95 356.01 174.87 354.87 174.26 354.29 172.88 353.01 172.77 352.07 172.2 351.38 170.24 350.66 170.35 349.79 169.88 349.36 169.04 347 168.54 346.9 167.86 347.73 166.99 348.84 165.05 350.26 163.83 351.02 163.64 351.79 161.69 350.03 160.14 349.86 159.41 348.41 158.16 348.01 156.93 348.8 155.73 351.24 155.08 351.89 154.01 353.34 153.71 355.75 152.62 356.32 151.75 358 151.64 359.2 151.94 360.62 151.56 363.02 151.48 364.73 150.93 367.25 150.85 369.89 151.91 371.1 151.43 372.87 150.04 371.77 149.06 370.56 148.75 370.34 147.62 369.27 147.08 368.96 146.27 368.94 144.09 370.06 143.91 370.57 143.42 373.81 143.13 375.44 142.6 376.61 141.71 376.84 141.06 381.88 140.59 382.34 140.14 384.59 140.26 385.5 140 385.42 139.24 388.42 138.63 389.8 138.66 390.99 137.36 392.3 136.26 394.26 136.25 395.08 135.14 395.12 133.9 395.45 132.58 395.31 131.7 396.54 131.23 398.12 128.97 398.74 128.83 399.34 126.48 398.81 124.53 398.06 124.12 397.3 123.18 397.64 122.45 398.72 122.29 399.18 121.59 399.35 120.3 398.46 119.27 398.03 119.46 395.68 119.56 394.13 119.83 393.35 120.9 391.16 120.81 390.03 121.62 388.04 121.18 385.68 122.32 384.7 123.14 383.86 124.64 382.73 123.78 381.97 123.68 381.16 124.13 379.39 123.68 377.35 123.97 376.93 125.18 376.21 125.65 373.81 125.03 372.35 125.74 371.12 125.08 366.36 125.01 365.15 124.7 364.02 124.89 363.8 125.34 362.18 124.8 359.69 126.07 358.62 125.91 356.91 124.55 354.44 123.83 353.6 124.28 352.49 123.91 351.6 124.36 349.12 124.17 347.48 123.66 346.81 122.93 345.71 122.47 344.73 121.51 344.07 120.39 344.28 119.84 342.17 118.28 341.21 118.11 339.37 118.66 338.12 116.28 337.62 116.17 337.54 114.65 340.29 114.74 341.01 115.38 342.88 115.59 344 116.18 345.45 116.02 346.81 116.5 348.63 117.9 348.79 119.02 348.49 119.72 347.65 120.27 348.7 121.47 349.48 121.73 351.37 121.2 351.46 120.23 351.24 118.29 351.38 116.6 351.19 115.1 351.65 114.39 351.78 113.17 350.88 113.29 349.46 112.61 346.78 112.85 343.93 112.11 344.59 111.18 344.17 110.47 343.41 110.11 343.42 109.32 342.9 108.47 342.91 107.22 343.43 106.19 341.77 104.62 340.73 104.15 339.55 104.64 338.46 104.42 337.51 105.03 336.57 104.43 335.02 104.68 331.38 102.41 331.48 103.51 331.05 104.24 329.45 104.3 328.91 103.8 326.88 102.99 324.73 102.77 325 101.75 326.04 101.91 326.82 101.24 326.77 100.36 328.27 99.74 328.44 98.77 330.04 96.98 330.51 97.21 333.19 96.75 335.19 96.77 335.77 97.02 337.26 96.98 337.63 96.6 340.29 96.44 342.07 94.63 343.17 94.56 344.12 95.86 345.88 96.62 346.13 96.98 347.64 97.46 348.47 98.62 349.83 99.76 350.12 100.33 351.14 99.92 353.11 99.53 354.55 98.62 355.1 98.84 355.12 100.01 354.11 102.09 353.81 103.83 354.61 104.64 355.41 103.86 355.26 102.01 357.06 99.66 358.89 98.69 359.63 98.98 360.75 98.86 363.55 99.61 364.18 98.96 365.17 98.6 365.55 97.62 365 96.46 365.4 95.49 366.9 94.12 367.46 93.34 368.76 92.69 368.51 92.06 369.28 90.15 371.18 89.76 371.53 89.37 371.1 88.59 371.06 87.24 371.56 86.64 373.07 86.28 372.61 85.52 374.28 84.26 373.12 83.32 371.69 82.5 372.28 81.82 373.99 80.62 374.74 79.07 374.66 78.41 375.31 77.84 376.87 77.01 377.75 77.2 378.46 76.85 380.98 77.18 382.17 77.08 384.06 76.47 384.89 76.56 386.57 76.15 387.64 76.4 388.42 75.99 390.13 75.93 391.8 75.4 392.31 75.64 393.82 75.5 395.4 75.95 396.21 74.64 396.36 73.49 397.58 73.49 398.75 72.74 399.23 71.7 401.12 72 402.62 71.46 402.96 70.94 403.95 71.24 405.63 71.27 406.52 70.97 406.99 71.44 408.15 71.07 409.28 70 408.96 69.23 408.22 69.27 406.09 66.08 405.42 65.5 404.82 64.25 403.82 63.37 403.97 62.72 405.08 62.34 407.06 62.23 407.71 62.45 409.53 61.75 410.55 62.33 412.09 61.8 413.97 61.76 415.29 62.33 417.05 62.26 417.26 61.82 418.76 61.43 418.86 60.87 420.35 61.07 420.89 62.13 421.79 62.69 422.57 62.49 424.26 62.63 426.4 61.12 427.45 60.89 429.5 62.17 431.39 62.28 432.37 61.57 433.8 61.92 435.4 61.87 437.17 62.9 438.9 62.84 440.79 62.06 442.36 61.77 443.85 61.86 445.13 60.76 445.86 60.46 447.7 62.15 448.36 62.32 449.48 61.47 450.86 61.98 452.33 61.53 454.2 61.51 455.88 60.32 456.69 61 456.46 61.84 457.08 62.34 458.38 62.16 458.7 62.61 460.92 62.49 461.38 61.86 463.52 61.56 463.9 60.85 464.75 60.59 465.19 60.82 466.12 61.81 467.76 62.11 468.44 62.6 469.24 62.33 471.78 63.32 473.19 64.32 474.86 63.85 476.06 63.94 476.51 64.49 475.81 65.36 476.55 67.36 478.34 66.98 480.6 67.15 482.14 67 482.87 66.47 483.49 65.07 483.64 64.01 484.23 63.76 486.4 64.6 489.47 64.87 489.95 65.74 489.22 68.67 489.28 69.55 490.18 69.81 489.88 70.45 490.05 73.01 491.57 75.29 491.33 77.62 493.83 78.75 495.38 79.87 495.21 81.29 498.48 82.61 499.53 82.84 500.57 83.99 499.86 85.01 499.62 86.15 498.56 86.92 498.91 88.14 497.79 89.15 495.97 89.01 495.82 89.83 494.56 90.28 494.14 92.11 496.49 92.48 498.44 91.98 500.76 91.73 501.63 91.36 502.39 91.76 503.58 91.67 504 91 505.55 90.1 506.86 91.08 507.73 90.88 508.67 91.46 509.68 91.55 510.89 92.27 511.58 91.88 512.43 92.46 513.8 92.64 514.69 92.13 516.69 92.68 517.91 92.59 519.45 93.24 519.62 93.92 521.68 94.28 522.99 94.15 524.07 94.65 525.37 94.5 525.56 94.09 527.3 94.49 529.04 95.41 530.74 95.55 531.05 96.64 534.62 97.1 534.59 97.78 535.63 98.47 536.61 98.62 538.1 97.56 538.92 98.62 539.07 99.34 538.05 100.46 536.74 101.22 536.44 103.34 535.06 104.2 534.02 104.29 532.15 103.7 530.3 104.17 526.25 103.75 524.22 105.52 523.58 107.18 523.56 107.88 524.16 108.83 524.13 109.71 523.38 110.49 525.84 110.67 527.07 110.26 528.41 110.57 529.31 111.35 532.1 111.03 534.09 111.3 536.49 111.3 539.05 110.77 539.59 109.73 540.4 109.2 542.83 109.42 543.85 110.1 545.15 110.56 544.77 111.39 544.98 113.25 544.68 114.03 541.76 115.48 541.78 115.99 543.68 117.35 543.57 118.7 542.75 119.64 542 119.87 541.33 120.75 541.02 122.16 541.26 123.24 543.44 123.8 544.57 123.52 545.02 122.46 545.98 122.21 547.03 122.69 547.95 124.08 548.67 124.16 549.31 125.06 552.03 124.6 554.64 125.03 555.38 125.68 558.18 124.08 562.63 123.87 563.48 123.96 563.19 125.25 563.91 125.64 565.1 125.47 566.08 125.74 567.57 124.74 568.47 124.93 569.3 124.49 569.34 123.92 572.68 124.5 574.26 124.08 574.8 124.57 576.26 124.77 578.26 124.43 579.85 125.22 580.44 124.87 583.42 124.61 585.68 123.42 586.64 123.39 587.46 122.54 588.17 121.23 589.38 121.09 589.55 121.98 590.25 122.62 590.89 124.01 591.03 125.44 590.55 126.83 589.65 127.62 589.05 128.7 587.94 129.15 585.2 129.8 586.49 131.08 587.01 132.71 587.34 134.42 587.73 134.76 588.09 136.67 589.88 137.77 592.25 138.27 594.54 138.22 595.63 138.76 596.52 140.19 595.81 141.09 595.22 141.29 594.58 142.55 594.62 143.48 594.01 145.59 592.24 146.83 590.75 147.38 590.82 147.75 597.95 146.88 599 146.4 603.32 145.07 605.28 144.77 606.52 145.07 608.27 144.73 609.75 144.69 610.09 145.54 612.88 145.42 612.98 145.92 611.74 146.88 611.16 147.84 611.17 149.97 611.93 150.66 612.8 150.63 613.47 151.29 615.12 151.85 617 151.04 618.95 151.12 620.65 150.51 622.26 150.68 622.48 151.13 625.41 151.28 626.5 151.53 627.59 151.44 629.47 152.14 629.96 152.64 628.51 153.14 627.7 154.04 624.61 155.08 623.41 156.1 622.66 157.09 622.43 158.72 622.68 160.19 624.1 161.76 623.49 162.74 622.01 162.48 620.76 163.88 620.78 164.44 619.78 164.94 617.31 163.83 617 164.43 614.09 165.78 612.19 165.85 611.15 164.97 609.73 165.8 608.54 165.34 606.56 166.47 605.24 166.33 604.19 165.69 603.4 166.05 602.3 165.87 601.31 166.24 598.85 166.33 598.09 166.13 598.27 164.46 596.46 164.61 595.21 164.5 593.07 163.53 591.78 163.96 591.05 163.09 586.7 164.71 586.57 165.36 584.21 165.93 583.19 165.7 582.62 164.94 581.72 164.98 581.7 164.08 580.74 163.79 579.97 164.16 577.6 164.32 577.44 165.28 574.44 164.57 574.19 164.11 572.63 164.05 571.35 163.27 571.85 162.5 570.65 162.01 570.29 161.43 569.13 161.68 567.02 161.44 566.45 161.79 565.01 161.74 564.18 160.86 561.43 161.77 561.14 162.65 559.7 163.8 557.06 164.76 556.3 164.76 555.2 164.02 554.32 164.44 554.02 165.14 552.98 166.28 553.38 167.72 550.93 167.7 549.21 168.32 548.98 168.9 547.94 168.88 546.8 169.45 545.91 170.27 546.18 170.81 545.1 171.94 544.43 173.23 544.99 173.75 545.11 175.07 543.6 177.5 543.74 179.1 542.73 180.49 542.41 181.48 541.21 182.21 539.91 181.85 539.91 182.47 537.87 183.36 537.84 184.25 538.41 185.3 538.3 185.99 539.86 187.5 540.27 188.28 538.93 189.31 539.2 190.45 538.42 191.61 538.91 193.55 537.67 194.19 535.8 194.36 535.27 194.87 535.37 195.81 534.69 196.71 533.07 197.5 531.47 199.1 531.41 200.04 530.01 201.78 530.6 202.11 530.25 203.3 530.49 204.3 529.86 205.2 528.12 206.42 527.95 207.76 526.29 207.73 525.95 208.39 524.36 208.89 523.85 210.14 523.3 210.49 521.11 210.71 520.54 211.28 519.23 211.47 518.96 210.52 517.95 210.65 516.97 212.26 516.01 213.37 514.3 212.3 515.12 210.65 514.22 210.13 514.01 209.26 512.72 209.31 511.59 208.79 512.11 207.57 511.13 206.87 510.37 207.9 509.59 208.38 508.12 208.71 507.87 209.45 506.95 209.99 505.43 210.5 504.79 211.17 503.53 211.08 501.63 210.54 500.85 209.91 499.97 209.95 498.2 210.51 496.29 210.05 494.96 210.45 494.02 211.09 494.71 212.79 492.81 213.13 492 212.36 491.02 211.89 490.54 211.04 489.45 211.07 488.53 211.54 488.25 212.61 487.29 213.32 487.15 213.91 485.91 214.45 485.85 215.68 486.17 216.83 484.9 217.61 484.55 216.78 482.88 216.51 481.46 215.97 480.5 216.23 478.89 215.69 478.61 214.96 477.55 215.2 477.06 216.02 475.93 216.18 475.11 216.94 473.39 216.78 472.74 217.31 471.89 216.55 471.05 217.17 470.77 217.94 469.47 218.45 468.76 217.59 469.47 216.69 469.14 215.94 468.39 215.4 468.1 213.76 466.78 212.98 466.62 212.31 467.35 211.19 467.21 210.11 468 208.15 468.84 207.89 470.18 206.51 469.97 205.76 470.92 205.24 471.16 204.46 468.43 202.96 467.85 202.39 467.07 202.68 465.58 202.04 464.92 200.75 465.13 200.38 463.86 199.12 463.92 197.03 463.75 195.04 464.36 193.48 463 192.65 463.22 192.04 461.85 191.67 462.22 190.53 461.08 190.6 459.89 191.2 457.72 191.69 456.93 192.43 454.38 193.66 453.3 194.68 452.14 194.92 451.12 196.62 449.74 197.69 448.22 198.59 445.62 198.9 443.17 200.21 442.48 200.92 441.76 201.11 440.45 202.11 440.51 203.04 439.28 203.83 437.71 203.69 437.43 204.49 435.86 205.27 435.86 206.18 434.71 206.45 434 206.19 431.89 206.19 430.83 205.59 429.73 205.69 428.55 205.26 427.5 205.48 426.32 206.31 425.89 207 425.05 207.16 422.99 206.26 422.28 206.47 420.58 205.64 419.79 204.85 417.55 205.92 413.34 204.05 412.58 203.53 412.72 202.94 410.89 202.39 409.57 201.59 409.09 201.67 406.68 200.82 Z" id="level=region;display_name=Нарын облусу"/>
<path d="M 382.58 21.19 382.71 19.53 383.61 20.27 382.58 21.19 Z M 397.26 30.15 396.82 30.35 397.05 31.69 394.93 31.18 394.84 31.8 393.85 31.89 394.05 31.03 393.01 31 393.01 32.51 392.23 32.63 392.74 34.84 390.31 34.49 388.46 34.99 388.33 35.5 387.81 36.07 387.04 34.89 385.9 34.05 384.81 34.31 384.89 32.34 383.54 32.19 382.48 33.4 381.74 33.35 381.96 31.6 381.11 31.59 381.11 30.62 382.99 29.59 382.81 28.23 384.02 28.06 386.69 28 386.63 27 387.72 26.92 387.52 25.29 388.17 24.09 389.22 24.1 388.98 25.26 389.34 25.79 389.21 26.85 390.1 25.97 390 23.13 391.59 22.46 390.9 24.21 392.34 24.61 391.2 26.57 391.64 28.07 393.56 28.31 393.49 29.09 396.4 29.34 396.54 29.1 396.52 29.72 397.26 30.15 Z" fill-rule="evenodd" id="level=region;display_name=Бишкек шаары"/>
<path d="M 255.66 207.84 255.18 208.04 253.37 209.77 252.18 208.4 250.31 208.16 249.39 206.52 250.42 203.25 249.67 202.18 249.86 201.31 250.15 201.05 254.03 201.14 256.13 200.52 256.37 199.42 255.78 199.13 256.31 198.4 255.44 196.92 255.48 196.79 256.9 197.51 257.93 197.48 257.99 196.65 259.91 197.36 260.12 197.82 259.56 198.94 260.42 199.04 260.34 199.79 261.73 200 261.26 201.06 261.64 201.75 262.43 201.47 262.17 202.99 263.31 203.9 262.61 204.47 264.19 205.47 262.78 205.9 261.99 204.55 260.97 204.9 261 205.73 260.34 205.92 259.91 204.08 257.36 204.17 257.58 204.91 255.41 205.19 255.32 206.8 255.66 207.84 Z" id="level=region;display_name=Ош шаары"/>
</g>
</svg>